<?xml version="1.0" encoding="UTF-8" standalone="no"?>
<!-- Created with Inkscape (http://www.inkscape.org/) -->

<svg
   xmlns:dc="http://purl.org/dc/elements/1.1/"
   xmlns:cc="http://creativecommons.org/ns#"
   xmlns:rdf="http://www.w3.org/1999/02/22-rdf-syntax-ns#"
   xmlns:svg="http://www.w3.org/2000/svg"
   xmlns="http://www.w3.org/2000/svg"
   xmlns:xlink="http://www.w3.org/1999/xlink"
   xmlns:sodipodi="http://sodipodi.sourceforge.net/DTD/sodipodi-0.dtd"
   xmlns:inkscape="http://www.inkscape.org/namespaces/inkscape"
   id="svg2"
   version="1.1"
   inkscape:version="0.92.3 (2405546, 2018-03-11)"
   xml:space="preserve"
   width="166.08"
   height="194.66667"
   viewBox="0 0 155.7 182.5"
   sodipodi:docname="BASDA.svg"
   inkscape:export-filename="/home/sneumann/agmsbi/IPBSticker/BASDA/BASDA.svg.png"
   inkscape:export-xdpi="96"
   inkscape:export-ydpi="96"><metadata
     id="metadata8"><rdf:RDF><cc:Work
         rdf:about=""><dc:format>image/svg+xml</dc:format><dc:type
           rdf:resource="http://purl.org/dc/dcmitype/StillImage" /><dc:title /></cc:Work></rdf:RDF></metadata><defs
     id="defs6"><clipPath
       clipPathUnits="userSpaceOnUse"
       id="clipPath16"><path
         d="m 2.422,38.688 v 68.945 l 59.858,34.478 59.859,-34.478 V 38.688 L 62.28,4.211 Z"
         id="path18"
         inkscape:connector-curvature="0" /></clipPath><radialGradient
       fx="0"
       fy="0"
       cx="0"
       cy="0"
       r="1"
       gradientUnits="userSpaceOnUse"
       gradientTransform="matrix(64.567177,0,0,-64.564835,65.073593,36.61673)"
       spreadMethod="pad"
       id="radialGradient24"><stop
         style="stop-opacity:1;stop-color:#cf8484"
         offset="0"
         id="stop26" /><stop
         style="stop-opacity:1;stop-color:#b02626"
         offset="1"
         id="stop28" /></radialGradient><clipPath
       clipPathUnits="userSpaceOnUse"
       id="clipPath44"><path
         d="M 0,146 H 124.56 V 0 H 0 Z"
         id="path46"
         inkscape:connector-curvature="0" /></clipPath><clipPath
       clipPathUnits="userSpaceOnUse"
       id="clipPath196"><path
         d="m 79.288,86.078 c -1.013,0 -1.843,-0.83 -1.843,-1.843 v 0 c 0,-1.015 0.83,-1.844 1.843,-1.844 v 0 h 10.058 c 1.013,0 1.843,0.829 1.843,1.844 v 0 c 0,1.013 -0.83,1.843 -1.843,1.843 v 0 z m -15.365,0 c -1.014,0 -1.844,-0.83 -1.844,-1.843 v 0 c 0,-1.015 0.83,-1.844 1.844,-1.844 v 0 h 8.964 c 1.015,0 1.845,0.829 1.845,1.844 v 0 c 0,1.013 -0.83,1.843 -1.845,1.843 v 0 z m -17.551,0 c -1.014,0 -1.843,-0.83 -1.843,-1.843 v 0 c 0,-1.015 0.829,-1.844 1.843,-1.844 v 0 H 56.43 c 1.013,0 1.843,0.829 1.843,1.844 v 0 c 0,1.013 -0.83,1.843 -1.843,1.843 v 0 z m -11.081,0 c -1.014,0 -1.844,-0.83 -1.844,-1.843 v 0 c 0,-1.015 0.83,-1.844 1.844,-1.844 v 0 h 4.681 c 1.014,0 1.844,0.829 1.844,1.844 v 0 c 0,1.013 -0.83,1.843 -1.844,1.843 v 0 z m 42.971,-6.399 c -0.45,0 -0.817,-0.368 -0.817,-0.817 v 0 c 0,-0.449 0.367,-0.818 0.817,-0.818 v 0 h 11.987 c 0.45,0 0.817,0.369 0.817,0.818 v 0 c 0,0.449 -0.367,0.817 -0.817,0.817 v 0 z m -15.038,0 c -0.449,0 -0.817,-0.368 -0.817,-0.817 v 0 c 0,-0.449 0.368,-0.818 0.817,-0.818 v 0 h 10.581 c 0.449,0 0.817,0.369 0.817,0.818 v 0 c 0,0.449 -0.368,0.817 -0.817,0.817 v 0 z m -12.654,0 c -0.449,0 -0.817,-0.368 -0.817,-0.817 v 0 c 0,-0.449 0.368,-0.818 0.817,-0.818 v 0 h 6.836 c 0.449,0 0.817,0.369 0.817,0.818 v 0 c 0,0.449 -0.368,0.817 -0.817,0.817 v 0 z m -16.382,0 c -0.449,0 -0.817,-0.368 -0.817,-0.817 v 0 c 0,-0.449 0.368,-0.818 0.817,-0.818 v 0 h 6.836 c 0.449,0 0.817,0.369 0.817,0.818 v 0 c 0,0.449 -0.368,0.817 -0.817,0.817 v 0 z m 44.074,-3.12 c -0.45,0 -0.817,-0.367 -0.817,-0.817 v 0 c 0,-0.449 0.367,-0.817 0.817,-0.817 v 0 h 11.987 c 0.45,0 0.817,0.368 0.817,0.817 v 0 c 0,0.45 -0.367,0.817 -0.817,0.817 v 0 z m -15.038,0 c -0.449,0 -0.817,-0.367 -0.817,-0.817 v 0 c 0,-0.449 0.368,-0.817 0.817,-0.817 v 0 h 10.581 c 0.449,0 0.817,0.368 0.817,0.817 v 0 c 0,0.45 -0.368,0.817 -0.817,0.817 v 0 z m -17.878,0 c -0.45,0 -0.817,-0.367 -0.817,-0.817 v 0 c 0,-0.449 0.367,-0.817 0.817,-0.817 v 0 h 12.06 c 0.449,0 0.817,0.368 0.817,0.817 v 0 c 0,0.45 -0.368,0.817 -0.817,0.817 v 0 z m -11.158,0 c -0.449,0 -0.817,-0.367 -0.817,-0.817 v 0 c 0,-0.449 0.368,-0.817 0.817,-0.817 v 0 h 6.836 c 0.449,0 0.817,0.368 0.817,0.817 v 0 c 0,0.45 -0.368,0.817 -0.817,0.817 v 0 z m 44.074,-3.118 c -0.45,0 -0.817,-0.368 -0.817,-0.817 v 0 c 0,-0.45 0.367,-0.817 0.817,-0.817 v 0 h 11.987 c 0.45,0 0.817,0.367 0.817,0.817 v 0 c 0,0.449 -0.367,0.817 -0.817,0.817 v 0 z m -15.038,0 c -0.449,0 -0.817,-0.368 -0.817,-0.817 v 0 c 0,-0.45 0.368,-0.817 0.817,-0.817 v 0 h 10.581 c 0.449,0 0.817,0.367 0.817,0.817 v 0 c 0,0.449 -0.368,0.817 -0.817,0.817 v 0 z m -6.352,0 c -0.45,0 -0.817,-0.368 -0.817,-0.817 v 0 c 0,-0.45 0.367,-0.817 0.817,-0.817 v 0 h 0.534 c 0.449,0 0.817,0.367 0.817,0.817 v 0 c 0,0.449 -0.368,0.817 -0.817,0.817 v 0 z m -22.684,0 c -0.449,0 -0.817,-0.368 -0.817,-0.817 v 0 c 0,-0.45 0.368,-0.817 0.817,-0.817 v 0 h 6.836 c 0.449,0 0.817,0.367 0.817,0.817 v 0 c 0,0.449 -0.368,0.817 -0.817,0.817 v 0 z m 44.074,-3.119 c -0.45,0 -0.817,-0.368 -0.817,-0.818 v 0 c 0,-0.449 0.367,-0.817 0.817,-0.817 v 0 h 11.987 c 0.45,0 0.817,0.368 0.817,0.817 v 0 c 0,0.45 -0.367,0.818 -0.817,0.818 v 0 z m -10.878,0 c -0.449,0 -0.817,-0.368 -0.817,-0.818 v 0 c 0,-0.449 0.368,-0.817 0.817,-0.817 v 0 h 6.421 c 0.449,0 0.817,0.368 0.817,0.817 v 0 c 0,0.45 -0.368,0.818 -0.817,0.818 v 0 z m -12.68,0 c -0.45,0 -0.817,-0.368 -0.817,-0.818 v 0 c 0,-0.449 0.367,-0.817 0.817,-0.817 v 0 h 2.702 c 0.449,0 0.817,0.368 0.817,0.817 v 0 c 0,0.45 -0.368,0.818 -0.817,0.818 v 0 z m -20.516,0 c -0.449,0 -0.817,-0.368 -0.817,-0.818 v 0 c 0,-0.449 0.368,-0.817 0.817,-0.817 v 0 h 6.836 c 0.449,0 0.817,0.368 0.817,0.817 v 0 c 0,0.45 -0.368,0.818 -0.817,0.818 v 0 z m 44.197,-3.119 c -0.45,0 -0.818,-0.368 -0.818,-0.817 v 0 c 0,-0.45 0.368,-0.817 0.818,-0.817 v 0 h 11.987 c 0.45,0 0.817,0.367 0.817,0.817 v 0 c 0,0.449 -0.367,0.817 -0.817,0.817 v 0 z m -15.051,0 c -0.449,0 -0.817,-0.368 -0.817,-0.817 v 0 c 0,-0.45 0.368,-0.817 0.817,-0.817 v 0 h 10.58 c 0.449,0 0.818,0.367 0.818,0.817 v 0 c 0,0.449 -0.369,0.817 -0.818,0.817 v 0 z m -11.57,0 c -0.45,0 -0.817,-0.368 -0.817,-0.817 v 0 c 0,-0.45 0.367,-0.817 0.817,-0.817 v 0 h 5.717 c 0.45,0 0.817,0.367 0.817,0.817 v 0 c 0,0.449 -0.367,0.817 -0.817,0.817 v 0 z m -17.499,0 c -0.45,0 -0.818,-0.368 -0.818,-0.817 v 0 c 0,-0.45 0.368,-0.817 0.818,-0.817 v 0 h 6.834 c 0.45,0 0.818,0.367 0.818,0.817 v 0 c 0,0.449 -0.368,0.817 -0.818,0.817 v 0 z m 44.12,-3.119 c -0.45,0 -0.818,-0.369 -0.818,-0.818 v 0 c 0,-0.449 0.368,-0.817 0.818,-0.817 v 0 h 11.987 c 0.45,0 0.817,0.368 0.817,0.817 v 0 c 0,0.449 -0.367,0.818 -0.817,0.818 v 0 z m -12.39,0 c -0.449,0 -0.817,-0.369 -0.817,-0.818 v 0 c 0,-0.449 0.368,-0.817 0.817,-0.817 v 0 h 7.919 c 0.449,0 0.818,0.368 0.818,0.817 v 0 c 0,0.449 -0.369,0.818 -0.818,0.818 v 0 z m -8.781,0 c -0.449,0 -0.817,-0.369 -0.817,-0.818 v 0 c 0,-0.449 0.368,-0.817 0.817,-0.817 v 0 h 0.267 c 0.45,0 0.817,0.368 0.817,0.817 v 0 c 0,0.449 -0.367,0.818 -0.817,0.818 v 0 z m -22.949,0 c -0.45,0 -0.818,-0.369 -0.818,-0.818 v 0 c 0,-0.449 0.368,-0.817 0.818,-0.817 v 0 h 6.834 c 0.45,0 0.818,0.368 0.818,0.817 v 0 c 0,0.449 -0.368,0.818 -0.818,0.818 v 0 z m 44.12,-3.119 c -0.45,0 -0.818,-0.368 -0.818,-0.818 v 0 c 0,-0.449 0.368,-0.817 0.818,-0.817 v 0 h 11.987 c 0.45,0 0.817,0.368 0.817,0.817 v 0 c 0,0.45 -0.367,0.818 -0.817,0.818 v 0 z m -14.507,0 c -0.45,0 -0.818,-0.368 -0.818,-0.818 v 0 c 0,-0.449 0.368,-0.817 0.818,-0.817 v 0 h 10.036 c 0.449,0 0.818,0.368 0.818,0.817 v 0 c 0,0.45 -0.369,0.818 -0.818,0.818 v 0 z m -17.064,0 c -0.449,0 -0.817,-0.368 -0.817,-0.818 v 0 c 0,-0.449 0.368,-0.817 0.817,-0.817 v 0 h 10.667 c 0.45,0 0.817,0.368 0.817,0.817 v 0 c 0,0.45 -0.367,0.818 -0.817,0.818 v 0 z m -12.549,0 c -0.45,0 -0.818,-0.368 -0.818,-0.818 v 0 c 0,-0.449 0.368,-0.817 0.818,-0.817 v 0 h 6.834 c 0.45,0 0.818,0.368 0.818,0.817 v 0 c 0,0.45 -0.368,0.818 -0.818,0.818 v 0 z m 44.12,-3.119 c -0.45,0 -0.818,-0.368 -0.818,-0.817 v 0 c 0,-0.45 0.368,-0.818 0.818,-0.818 v 0 h 11.987 c 0.45,0 0.817,0.368 0.817,0.818 v 0 c 0,0.449 -0.367,0.817 -0.817,0.817 v 0 z m -15.051,0 c -0.449,0 -0.817,-0.368 -0.817,-0.817 v 0 c 0,-0.45 0.368,-0.818 0.817,-0.818 v 0 h 10.58 c 0.449,0 0.818,0.368 0.818,0.818 v 0 c 0,0.449 -0.369,0.817 -0.818,0.817 v 0 z m -11.769,0 c -0.45,0 -0.818,-0.368 -0.818,-0.817 v 0 c 0,-0.45 0.368,-0.818 0.818,-0.818 v 0 h 5.916 c 0.45,0 0.817,0.368 0.817,0.818 v 0 c 0,0.449 -0.367,0.817 -0.817,0.817 v 0 z m -17.3,0 c -0.45,0 -0.818,-0.368 -0.818,-0.817 v 0 c 0,-0.45 0.368,-0.818 0.818,-0.818 v 0 h 6.834 c 0.45,0 0.818,0.368 0.818,0.818 v 0 c 0,0.449 -0.368,0.817 -0.818,0.817 v 0 z"
         id="path198"
         inkscape:connector-curvature="0" /></clipPath><clipPath
       clipPathUnits="userSpaceOnUse"
       id="clipPath204"><path
         d="M -32768,32767 H 32767 V -32768 H -32768 Z"
         id="path206"
         inkscape:connector-curvature="0" /></clipPath><linearGradient
       x1="0"
       y1="0"
       x2="1"
       y2="0"
       gradientUnits="userSpaceOnUse"
       gradientTransform="matrix(0,29.86697,29.86697,0,62.280125,56.211143)"
       spreadMethod="pad"
       id="linearGradient208"><stop
         style="stop-opacity:0.2;stop-color:#ffffff"
         offset="0"
         id="stop210" /><stop
         style="stop-opacity:1;stop-color:#ffffff"
         offset="1"
         id="stop212" /></linearGradient><mask
       maskUnits="userSpaceOnUse"
       x="0"
       y="0"
       width="1"
       height="1"
       id="mask214"><g
         id="g216"><g
           clip-path="url(#clipPath204)"
           id="g218"><g
             id="g220"><g
               id="g222"><path
                 d="M -32768,32767 H 32767 V -32768 H -32768 Z"
                 style="fill:url(#linearGradient208);stroke:none"
                 id="path224"
                 inkscape:connector-curvature="0" /></g></g></g></g></mask><linearGradient
       x1="0"
       y1="0"
       x2="1"
       y2="0"
       gradientUnits="userSpaceOnUse"
       gradientTransform="matrix(0,29.86697,29.86697,0,62.280125,56.211143)"
       spreadMethod="pad"
       id="linearGradient230"><stop
         style="stop-opacity:1;stop-color:#ffffff"
         offset="0"
         id="stop232" /><stop
         style="stop-opacity:1;stop-color:#ffffff"
         offset="1"
         id="stop234" /></linearGradient><clipPath
       clipPathUnits="userSpaceOnUse"
       id="clipPath242"><path
         d="M 0,146 H 124.56 V 0 H 0 Z"
         id="path244"
         inkscape:connector-curvature="0" /></clipPath><radialGradient
       inkscape:collect="always"
       xlink:href="#radialGradient1169"
       id="radialGradient1163"
       gradientUnits="userSpaceOnUse"
       gradientTransform="matrix(101.30742,0,0,76.584975,82.025613,138.34881)"
       cx="-0.033188026"
       cy="2.3714364e-13"
       fx="-0.033188026"
       fy="2.3714364e-13"
       r="1"
       spreadMethod="pad" /><radialGradient
       fx="-0.033188026"
       fy="2.3714364e-13"
       cx="-0.033188026"
       cy="2.3714364e-13"
       r="1"
       gradientUnits="userSpaceOnUse"
       gradientTransform="matrix(28.591206,0,0,21.613982,152.76634,162.74222)"
       spreadMethod="pad"
       id="radialGradient1169"><stop
         style="stop-opacity:0.042;stop-color:#ffffff"
         offset="0"
         id="stop1165" /><stop
         style="stop-opacity:0.145;stop-color:#2b2d3c"
         offset="1"
         id="stop1167" /></radialGradient></defs><sodipodi:namedview
     pagecolor="#ffffff"
     bordercolor="#666666"
     borderopacity="1"
     objecttolerance="10"
     gridtolerance="10"
     guidetolerance="10"
     inkscape:pageopacity="0"
     inkscape:pageshadow="2"
     inkscape:window-width="1853"
     inkscape:window-height="1025"
     id="namedview4"
     showgrid="false"
     inkscape:zoom="3.6575826"
     inkscape:cx="93.570575"
     inkscape:cy="81.313926"
     inkscape:window-x="67"
     inkscape:window-y="27"
     inkscape:window-maximized="1"
     inkscape:current-layer="g10" /><g
     inkscape:groupmode="layer"
     id="layer4"
     inkscape:label="Background"
     style="display:inline"><g
       transform="matrix(1.25,0,0,-1.25,0,182.5)"
       clip-path="url(#clipPath16)"
       id="g14"><g
         id="g20"><g
           id="g22" /></g></g><path
       d="M 3.027508,135.75972 V 49.57849 L 77.85,6.481 152.67373,49.57849 v 86.18123 L 77.85,178.85597 Z"
       style="fill:url(#radialGradient1163);stroke:#ffffff;stroke-width:1.77165353;stroke-miterlimit:4;stroke-dasharray:none;stroke-opacity:1"
       id="path1141"
       inkscape:connector-curvature="0" /></g><g
     id="g10"
     inkscape:groupmode="layer"
     inkscape:label="Border"
     transform="matrix(1.25,0,0,-1.25,0,182.5)"
     style="display:inline"><path
       inkscape:connector-curvature="0"
       id="path34"
       style="fill:#899e00;fill-opacity:0.94117647;fill-rule:nonzero;stroke:none"
       d="m 0,109.0332 v -71.745 l 62.28,-35.872 62.28,35.872 v 71.745 l -62.28,35.872 z m 4.844,-68.945 v 66.145 l 57.436,33.082 57.436,-33.082 V 40.0882 L 62.28,7.0062 Z" /><path
       sodipodi:type="star"
       style="display:inline;opacity:1;fill:#899e00;fill-opacity:0.25098041;stroke:#899e00;stroke-width:2.99999994;stroke-miterlimit:4;stroke-dasharray:none;stroke-opacity:0.94117647"
       id="path868-3-6-1-8"
       sodipodi:sides="6"
       sodipodi:cx="62.336256"
       sodipodi:cy="-112.98446"
       sodipodi:r1="16.413797"
       sodipodi:r2="14.214769"
       sodipodi:arg1="0.52359878"
       sodipodi:arg2="1.0471976"
       inkscape:flatsided="true"
       inkscape:rounded="0"
       inkscape:randomized="0"
       d="m 76.55102,-104.77756 -14.214766,8.206898 -14.214765,-8.206898 0,-16.4138 14.214765,-8.2069 14.214766,8.2069 z"
       transform="scale(1,-1)" /><path
       sodipodi:type="star"
       style="display:inline;opacity:1;fill:#2b2d3c;fill-opacity:0.25098041;stroke:#2b2d3c;stroke-width:2.99999994;stroke-miterlimit:4;stroke-dasharray:none;stroke-opacity:1"
       id="path868-3-6-1"
       sodipodi:sides="6"
       sodipodi:cx="96.375122"
       sodipodi:cy="-93.111261"
       sodipodi:r1="16.413797"
       sodipodi:r2="14.214768"
       sodipodi:arg1="0.52359878"
       sodipodi:arg2="1.0471976"
       inkscape:flatsided="true"
       inkscape:rounded="0"
       inkscape:randomized="0"
       d="m 110.58989,-84.904361 -14.214768,8.206899 -14.214765,-8.206899 0,-16.413799 14.214765,-8.2069 14.214768,8.2069 z"
       transform="scale(1,-1)" /><path
       sodipodi:type="star"
       style="display:inline;opacity:1;fill:#800080;fill-opacity:0.25098041;stroke:#800080;stroke-width:2.99999994;stroke-miterlimit:4;stroke-dasharray:none;stroke-opacity:1"
       id="path868-3-6-1-7"
       sodipodi:sides="6"
       sodipodi:cx="27.272112"
       sodipodi:cy="-92.684158"
       sodipodi:r1="16.413797"
       sodipodi:r2="14.214769"
       sodipodi:arg1="0.52359878"
       sodipodi:arg2="1.0471976"
       inkscape:flatsided="true"
       inkscape:rounded="0"
       inkscape:randomized="0"
       d="m 41.486877,-84.47726 -14.214765,8.206899 -14.214766,-8.206899 0,-16.4138 14.214766,-8.2069 14.214765,8.2069 z"
       transform="scale(1,-1)" /></g><g
     inkscape:groupmode="layer"
     id="layer5"
     inkscape:label="Guides" /><g
     inkscape:groupmode="layer"
     id="layer3"
     inkscape:label="Bioconductor"
     style="display:inline"><text
   transform="rotate(-29.91402)"
   style="font-variant:normal;font-weight:300;font-stretch:normal;font-size:5.00000048px;font-family:'Aller Light';-inkscape-font-specification:Aller-Light;writing-mode:lr-tb;fill:#899e00;fill-opacity:0.94117647;fill-rule:nonzero;stroke:none;stroke-width:1.25"
   id="text1147"
   x="-16.125662"
   y="187.45607"><tspan
     style="stroke-width:1.25;fill:#2b2d3c;fill-opacity:1"
     sodipodi:role="line"
     id="tspan1145"
     x="-16.125662"
     y="187.45607">www.ipb-halle.de</tspan></text>


</g><g
     inkscape:groupmode="layer"
     id="layer2"
     inkscape:label="Logo"
     style="display:inline" /><g
     inkscape:groupmode="layer"
     id="layer1"
     inkscape:label="Title"
     style="display:inline"><text
   transform="scale(1.0000201,0.99997991)"
   style="font-variant:normal;font-weight:300;font-stretch:normal;line-height:0%;font-family:'Aller Light';-inkscape-font-specification:Aller-Light;writing-mode:lr-tb;fill:#ffffff;fill-opacity:1;fill-rule:nonzero;stroke:none"
   id="text36"
   x="9.5681868"
   y="126.52906"><tspan
     sodipodi:role="line"
     id="tspan38"
     x="9.5681868"
     y="126.52906"
     style="font-style:normal;font-variant:normal;font-weight:500;font-stretch:normal;font-size:35px;line-height:1.25;font-family:Ubuntu;-inkscape-font-specification:'Ubuntu Medium'"><tspan
       style="font-style:normal;font-variant:normal;font-weight:500;font-stretch:normal;font-size:35px;font-family:Ubuntu;-inkscape-font-specification:'Ubuntu Medium';fill:#899e00;fill-opacity:0.94117647"
       id="tspan961">B@</tspan><tspan
       style="font-style:normal;font-variant:normal;font-weight:500;font-stretch:normal;font-size:35px;font-family:Ubuntu;-inkscape-font-specification:'Ubuntu Medium';fill:#2b2d3c;fill-opacity:1"
       id="tspan963">SD@</tspan></tspan></text>



</g></svg>