<?xml version="1.0" encoding="UTF-8" standalone="no"?>
<!-- Created with Inkscape (http://www.inkscape.org/) -->

<svg
   id="svg2"
   version="1.1"
   inkscape:version="1.2.2 (b0a8486541, 2022-12-01)"
   xml:space="preserve"
   width="166.08"
   height="194.66667"
   viewBox="0 0 155.7 182.5"
   sodipodi:docname="MetaCom.svg"
   inkscape:export-filename="/home/sneumann/agmsbi/IPBSticker/BASDA/BASDA.svg.png"
   inkscape:export-xdpi="96"
   inkscape:export-ydpi="96"
   xmlns:inkscape="http://www.inkscape.org/namespaces/inkscape"
   xmlns:sodipodi="http://sodipodi.sourceforge.net/DTD/sodipodi-0.dtd"
   xmlns:xlink="http://www.w3.org/1999/xlink"
   xmlns="http://www.w3.org/2000/svg"
   xmlns:svg="http://www.w3.org/2000/svg"
   xmlns:rdf="http://www.w3.org/1999/02/22-rdf-syntax-ns#"
   xmlns:cc="http://creativecommons.org/ns#"
   xmlns:dc="http://purl.org/dc/elements/1.1/"><metadata
     id="metadata8"><rdf:RDF><cc:Work
         rdf:about=""><dc:format>image/svg+xml</dc:format><dc:type
           rdf:resource="http://purl.org/dc/dcmitype/StillImage" /><dc:title /></cc:Work></rdf:RDF></metadata><defs
     id="defs6"><clipPath
       clipPathUnits="userSpaceOnUse"
       id="clipPath16"><path
         d="m 2.422,38.688 v 68.945 l 59.858,34.478 59.859,-34.478 V 38.688 L 62.28,4.211 Z"
         id="path18"
         inkscape:connector-curvature="0" /></clipPath><radialGradient
       fx="0"
       fy="0"
       cx="0"
       cy="0"
       r="1"
       gradientUnits="userSpaceOnUse"
       gradientTransform="matrix(64.567177,0,0,-64.564835,65.073593,36.61673)"
       spreadMethod="pad"
       id="radialGradient24"><stop
         style="stop-opacity:1;stop-color:#cf8484"
         offset="0"
         id="stop26" /><stop
         style="stop-opacity:1;stop-color:#b02626"
         offset="1"
         id="stop28" /></radialGradient><clipPath
       clipPathUnits="userSpaceOnUse"
       id="clipPath44"><path
         d="M 0,146 H 124.56 V 0 H 0 Z"
         id="path46"
         inkscape:connector-curvature="0" /></clipPath><clipPath
       clipPathUnits="userSpaceOnUse"
       id="clipPath196"><path
         d="m 79.288,86.078 c -1.013,0 -1.843,-0.83 -1.843,-1.843 v 0 c 0,-1.015 0.83,-1.844 1.843,-1.844 v 0 h 10.058 c 1.013,0 1.843,0.829 1.843,1.844 v 0 c 0,1.013 -0.83,1.843 -1.843,1.843 v 0 z m -15.365,0 c -1.014,0 -1.844,-0.83 -1.844,-1.843 v 0 c 0,-1.015 0.83,-1.844 1.844,-1.844 v 0 h 8.964 c 1.015,0 1.845,0.829 1.845,1.844 v 0 c 0,1.013 -0.83,1.843 -1.845,1.843 v 0 z m -17.551,0 c -1.014,0 -1.843,-0.83 -1.843,-1.843 v 0 c 0,-1.015 0.829,-1.844 1.843,-1.844 v 0 H 56.43 c 1.013,0 1.843,0.829 1.843,1.844 v 0 c 0,1.013 -0.83,1.843 -1.843,1.843 v 0 z m -11.081,0 c -1.014,0 -1.844,-0.83 -1.844,-1.843 v 0 c 0,-1.015 0.83,-1.844 1.844,-1.844 v 0 h 4.681 c 1.014,0 1.844,0.829 1.844,1.844 v 0 c 0,1.013 -0.83,1.843 -1.844,1.843 v 0 z m 42.971,-6.399 c -0.45,0 -0.817,-0.368 -0.817,-0.817 v 0 c 0,-0.449 0.367,-0.818 0.817,-0.818 v 0 h 11.987 c 0.45,0 0.817,0.369 0.817,0.818 v 0 c 0,0.449 -0.367,0.817 -0.817,0.817 v 0 z m -15.038,0 c -0.449,0 -0.817,-0.368 -0.817,-0.817 v 0 c 0,-0.449 0.368,-0.818 0.817,-0.818 v 0 h 10.581 c 0.449,0 0.817,0.369 0.817,0.818 v 0 c 0,0.449 -0.368,0.817 -0.817,0.817 v 0 z m -12.654,0 c -0.449,0 -0.817,-0.368 -0.817,-0.817 v 0 c 0,-0.449 0.368,-0.818 0.817,-0.818 v 0 h 6.836 c 0.449,0 0.817,0.369 0.817,0.818 v 0 c 0,0.449 -0.368,0.817 -0.817,0.817 v 0 z m -16.382,0 c -0.449,0 -0.817,-0.368 -0.817,-0.817 v 0 c 0,-0.449 0.368,-0.818 0.817,-0.818 v 0 h 6.836 c 0.449,0 0.817,0.369 0.817,0.818 v 0 c 0,0.449 -0.368,0.817 -0.817,0.817 v 0 z m 44.074,-3.12 c -0.45,0 -0.817,-0.367 -0.817,-0.817 v 0 c 0,-0.449 0.367,-0.817 0.817,-0.817 v 0 h 11.987 c 0.45,0 0.817,0.368 0.817,0.817 v 0 c 0,0.45 -0.367,0.817 -0.817,0.817 v 0 z m -15.038,0 c -0.449,0 -0.817,-0.367 -0.817,-0.817 v 0 c 0,-0.449 0.368,-0.817 0.817,-0.817 v 0 h 10.581 c 0.449,0 0.817,0.368 0.817,0.817 v 0 c 0,0.45 -0.368,0.817 -0.817,0.817 v 0 z m -17.878,0 c -0.45,0 -0.817,-0.367 -0.817,-0.817 v 0 c 0,-0.449 0.367,-0.817 0.817,-0.817 v 0 h 12.06 c 0.449,0 0.817,0.368 0.817,0.817 v 0 c 0,0.45 -0.368,0.817 -0.817,0.817 v 0 z m -11.158,0 c -0.449,0 -0.817,-0.367 -0.817,-0.817 v 0 c 0,-0.449 0.368,-0.817 0.817,-0.817 v 0 h 6.836 c 0.449,0 0.817,0.368 0.817,0.817 v 0 c 0,0.45 -0.368,0.817 -0.817,0.817 v 0 z m 44.074,-3.118 c -0.45,0 -0.817,-0.368 -0.817,-0.817 v 0 c 0,-0.45 0.367,-0.817 0.817,-0.817 v 0 h 11.987 c 0.45,0 0.817,0.367 0.817,0.817 v 0 c 0,0.449 -0.367,0.817 -0.817,0.817 v 0 z m -15.038,0 c -0.449,0 -0.817,-0.368 -0.817,-0.817 v 0 c 0,-0.45 0.368,-0.817 0.817,-0.817 v 0 h 10.581 c 0.449,0 0.817,0.367 0.817,0.817 v 0 c 0,0.449 -0.368,0.817 -0.817,0.817 v 0 z m -6.352,0 c -0.45,0 -0.817,-0.368 -0.817,-0.817 v 0 c 0,-0.45 0.367,-0.817 0.817,-0.817 v 0 h 0.534 c 0.449,0 0.817,0.367 0.817,0.817 v 0 c 0,0.449 -0.368,0.817 -0.817,0.817 v 0 z m -22.684,0 c -0.449,0 -0.817,-0.368 -0.817,-0.817 v 0 c 0,-0.45 0.368,-0.817 0.817,-0.817 v 0 h 6.836 c 0.449,0 0.817,0.367 0.817,0.817 v 0 c 0,0.449 -0.368,0.817 -0.817,0.817 v 0 z m 44.074,-3.119 c -0.45,0 -0.817,-0.368 -0.817,-0.818 v 0 c 0,-0.449 0.367,-0.817 0.817,-0.817 v 0 h 11.987 c 0.45,0 0.817,0.368 0.817,0.817 v 0 c 0,0.45 -0.367,0.818 -0.817,0.818 v 0 z m -10.878,0 c -0.449,0 -0.817,-0.368 -0.817,-0.818 v 0 c 0,-0.449 0.368,-0.817 0.817,-0.817 v 0 h 6.421 c 0.449,0 0.817,0.368 0.817,0.817 v 0 c 0,0.45 -0.368,0.818 -0.817,0.818 v 0 z m -12.68,0 c -0.45,0 -0.817,-0.368 -0.817,-0.818 v 0 c 0,-0.449 0.367,-0.817 0.817,-0.817 v 0 h 2.702 c 0.449,0 0.817,0.368 0.817,0.817 v 0 c 0,0.45 -0.368,0.818 -0.817,0.818 v 0 z m -20.516,0 c -0.449,0 -0.817,-0.368 -0.817,-0.818 v 0 c 0,-0.449 0.368,-0.817 0.817,-0.817 v 0 h 6.836 c 0.449,0 0.817,0.368 0.817,0.817 v 0 c 0,0.45 -0.368,0.818 -0.817,0.818 v 0 z m 44.197,-3.119 c -0.45,0 -0.818,-0.368 -0.818,-0.817 v 0 c 0,-0.45 0.368,-0.817 0.818,-0.817 v 0 h 11.987 c 0.45,0 0.817,0.367 0.817,0.817 v 0 c 0,0.449 -0.367,0.817 -0.817,0.817 v 0 z m -15.051,0 c -0.449,0 -0.817,-0.368 -0.817,-0.817 v 0 c 0,-0.45 0.368,-0.817 0.817,-0.817 v 0 h 10.58 c 0.449,0 0.818,0.367 0.818,0.817 v 0 c 0,0.449 -0.369,0.817 -0.818,0.817 v 0 z m -11.57,0 c -0.45,0 -0.817,-0.368 -0.817,-0.817 v 0 c 0,-0.45 0.367,-0.817 0.817,-0.817 v 0 h 5.717 c 0.45,0 0.817,0.367 0.817,0.817 v 0 c 0,0.449 -0.367,0.817 -0.817,0.817 v 0 z m -17.499,0 c -0.45,0 -0.818,-0.368 -0.818,-0.817 v 0 c 0,-0.45 0.368,-0.817 0.818,-0.817 v 0 h 6.834 c 0.45,0 0.818,0.367 0.818,0.817 v 0 c 0,0.449 -0.368,0.817 -0.818,0.817 v 0 z m 44.12,-3.119 c -0.45,0 -0.818,-0.369 -0.818,-0.818 v 0 c 0,-0.449 0.368,-0.817 0.818,-0.817 v 0 h 11.987 c 0.45,0 0.817,0.368 0.817,0.817 v 0 c 0,0.449 -0.367,0.818 -0.817,0.818 v 0 z m -12.39,0 c -0.449,0 -0.817,-0.369 -0.817,-0.818 v 0 c 0,-0.449 0.368,-0.817 0.817,-0.817 v 0 h 7.919 c 0.449,0 0.818,0.368 0.818,0.817 v 0 c 0,0.449 -0.369,0.818 -0.818,0.818 v 0 z m -8.781,0 c -0.449,0 -0.817,-0.369 -0.817,-0.818 v 0 c 0,-0.449 0.368,-0.817 0.817,-0.817 v 0 h 0.267 c 0.45,0 0.817,0.368 0.817,0.817 v 0 c 0,0.449 -0.367,0.818 -0.817,0.818 v 0 z m -22.949,0 c -0.45,0 -0.818,-0.369 -0.818,-0.818 v 0 c 0,-0.449 0.368,-0.817 0.818,-0.817 v 0 h 6.834 c 0.45,0 0.818,0.368 0.818,0.817 v 0 c 0,0.449 -0.368,0.818 -0.818,0.818 v 0 z m 44.12,-3.119 c -0.45,0 -0.818,-0.368 -0.818,-0.818 v 0 c 0,-0.449 0.368,-0.817 0.818,-0.817 v 0 h 11.987 c 0.45,0 0.817,0.368 0.817,0.817 v 0 c 0,0.45 -0.367,0.818 -0.817,0.818 v 0 z m -14.507,0 c -0.45,0 -0.818,-0.368 -0.818,-0.818 v 0 c 0,-0.449 0.368,-0.817 0.818,-0.817 v 0 h 10.036 c 0.449,0 0.818,0.368 0.818,0.817 v 0 c 0,0.45 -0.369,0.818 -0.818,0.818 v 0 z m -17.064,0 c -0.449,0 -0.817,-0.368 -0.817,-0.818 v 0 c 0,-0.449 0.368,-0.817 0.817,-0.817 v 0 h 10.667 c 0.45,0 0.817,0.368 0.817,0.817 v 0 c 0,0.45 -0.367,0.818 -0.817,0.818 v 0 z m -12.549,0 c -0.45,0 -0.818,-0.368 -0.818,-0.818 v 0 c 0,-0.449 0.368,-0.817 0.818,-0.817 v 0 h 6.834 c 0.45,0 0.818,0.368 0.818,0.817 v 0 c 0,0.45 -0.368,0.818 -0.818,0.818 v 0 z m 44.12,-3.119 c -0.45,0 -0.818,-0.368 -0.818,-0.817 v 0 c 0,-0.45 0.368,-0.818 0.818,-0.818 v 0 h 11.987 c 0.45,0 0.817,0.368 0.817,0.818 v 0 c 0,0.449 -0.367,0.817 -0.817,0.817 v 0 z m -15.051,0 c -0.449,0 -0.817,-0.368 -0.817,-0.817 v 0 c 0,-0.45 0.368,-0.818 0.817,-0.818 v 0 h 10.58 c 0.449,0 0.818,0.368 0.818,0.818 v 0 c 0,0.449 -0.369,0.817 -0.818,0.817 v 0 z m -11.769,0 c -0.45,0 -0.818,-0.368 -0.818,-0.817 v 0 c 0,-0.45 0.368,-0.818 0.818,-0.818 v 0 h 5.916 c 0.45,0 0.817,0.368 0.817,0.818 v 0 c 0,0.449 -0.367,0.817 -0.817,0.817 v 0 z m -17.3,0 c -0.45,0 -0.818,-0.368 -0.818,-0.817 v 0 c 0,-0.45 0.368,-0.818 0.818,-0.818 v 0 h 6.834 c 0.45,0 0.818,0.368 0.818,0.818 v 0 c 0,0.449 -0.368,0.817 -0.818,0.817 v 0 z"
         id="path198"
         inkscape:connector-curvature="0" /></clipPath><clipPath
       clipPathUnits="userSpaceOnUse"
       id="clipPath204"><path
         d="M -32768,32767 H 32767 V -32768 H -32768 Z"
         id="path206"
         inkscape:connector-curvature="0" /></clipPath><linearGradient
       x1="0"
       y1="0"
       x2="1"
       y2="0"
       gradientUnits="userSpaceOnUse"
       gradientTransform="matrix(0,29.86697,29.86697,0,62.280125,56.211143)"
       spreadMethod="pad"
       id="linearGradient208"><stop
         style="stop-opacity:0.2;stop-color:#ffffff"
         offset="0"
         id="stop210" /><stop
         style="stop-opacity:1;stop-color:#ffffff"
         offset="1"
         id="stop212" /></linearGradient><mask
       maskUnits="userSpaceOnUse"
       x="0"
       y="0"
       width="1"
       height="1"
       id="mask214"><g
         id="g216"><g
           clip-path="url(#clipPath204)"
           id="g218"><g
             id="g220"><g
               id="g222"><path
                 d="M -32768,32767 H 32767 V -32768 H -32768 Z"
                 style="fill:url(#linearGradient208);stroke:none"
                 id="path224"
                 inkscape:connector-curvature="0" /></g></g></g></g></mask><linearGradient
       x1="0"
       y1="0"
       x2="1"
       y2="0"
       gradientUnits="userSpaceOnUse"
       gradientTransform="matrix(0,29.86697,29.86697,0,62.280125,56.211143)"
       spreadMethod="pad"
       id="linearGradient230"><stop
         style="stop-opacity:1;stop-color:#ffffff"
         offset="0"
         id="stop232" /><stop
         style="stop-opacity:1;stop-color:#ffffff"
         offset="1"
         id="stop234" /></linearGradient><clipPath
       clipPathUnits="userSpaceOnUse"
       id="clipPath242"><path
         d="M 0,146 H 124.56 V 0 H 0 Z"
         id="path244"
         inkscape:connector-curvature="0" /></clipPath><radialGradient
       inkscape:collect="always"
       xlink:href="#radialGradient1169"
       id="radialGradient1163"
       gradientUnits="userSpaceOnUse"
       gradientTransform="matrix(101.30742,0,0,76.584975,82.025613,138.34881)"
       cx="-0.033188026"
       cy="2.3714364e-13"
       fx="-0.033188026"
       fy="2.3714364e-13"
       r="1"
       spreadMethod="pad" /><radialGradient
       fx="-0.033188026"
       fy="2.3714364e-13"
       cx="-0.033188026"
       cy="2.3714364e-13"
       r="1"
       gradientUnits="userSpaceOnUse"
       gradientTransform="matrix(28.591206,0,0,21.613982,152.76634,162.74222)"
       spreadMethod="pad"
       id="radialGradient1169"><stop
         style="stop-opacity:0.042;stop-color:#ffffff"
         offset="0"
         id="stop1165" /><stop
         style="stop-opacity:0.145;stop-color:#2b2d3c"
         offset="1"
         id="stop1167" /></radialGradient></defs><sodipodi:namedview
     pagecolor="#ffffff"
     bordercolor="#666666"
     borderopacity="1"
     objecttolerance="10"
     gridtolerance="10"
     guidetolerance="10"
     inkscape:pageopacity="0"
     inkscape:pageshadow="2"
     inkscape:window-width="1916"
     inkscape:window-height="1160"
     id="namedview4"
     showgrid="false"
     inkscape:zoom="2.5863015"
     inkscape:cx="-21.072563"
     inkscape:cy="102.46292"
     inkscape:window-x="445"
     inkscape:window-y="112"
     inkscape:window-maximized="0"
     inkscape:current-layer="layer3"
     inkscape:showpageshadow="2"
     inkscape:pagecheckerboard="0"
     inkscape:deskcolor="#d1d1d1" /><g
     inkscape:groupmode="layer"
     id="layer4"
     inkscape:label="Background"
     style="display:inline"><g
       transform="matrix(1.25,0,0,-1.25,0,182.5)"
       clip-path="url(#clipPath16)"
       id="g14"><g
         id="g20"><g
           id="g22" /></g></g><path
       d="M 3.027508,135.75972 V 49.57849 L 77.85,6.481 152.67373,49.57849 v 86.18123 L 77.85,178.85597 Z"
       style="fill:url(#radialGradient1163);stroke:#ffffff;stroke-width:1.77165353;stroke-miterlimit:4;stroke-dasharray:none;stroke-opacity:1"
       id="path1141"
       inkscape:connector-curvature="0" /></g><g
     id="g10"
     inkscape:groupmode="layer"
     inkscape:label="Border"
     transform="matrix(1.25,0,0,-1.25,0,182.5)"
     style="display:inline"><path
       inkscape:connector-curvature="0"
       id="path34"
       style="fill:#899e00;fill-opacity:0.94117647;fill-rule:nonzero;stroke:none"
       d="m 0,109.0332 v -71.745 l 62.28,-35.872 62.28,35.872 v 71.745 l -62.28,35.872 z m 4.844,-68.945 v 66.145 l 57.436,33.082 57.436,-33.082 V 40.0882 L 62.28,7.0062 Z" /></g><g
     inkscape:groupmode="layer"
     id="layer5"
     inkscape:label="Guides" /><g
     inkscape:groupmode="layer"
     id="layer3"
     inkscape:label="Bioconductor"
     style="display:inline"><text
   transform="rotate(-90.268082)"
   style="font-variant:normal;font-weight:300;font-stretch:normal;font-size:5px;font-family:'Aller Light';-inkscape-font-specification:Aller-Light;writing-mode:lr-tb;fill:#899e00;fill-opacity:0.941176;fill-rule:nonzero;stroke:none;stroke-width:1.25"
   id="text1147"
   x="-130.51964"
   y="146.43596"><tspan
     style="fill:#2b2d3c;fill-opacity:1;stroke-width:1.25"
     sodipodi:role="line"
     id="tspan1145"
     x="-130.51964"
     y="146.43596"><a
       href="https://www.ipb-halle.de/"
       id="a45">www.ipb-halle.de</a></tspan></text>


</g><g
     inkscape:groupmode="layer"
     id="layer2"
     inkscape:label="Logo"
     style="display:inline" /><g
     inkscape:groupmode="layer"
     id="layer1"
     inkscape:label="Title"
     style="display:inline">



<g
   id="Ebene_1-2"
   transform="matrix(0.26675411,0,0,0.26675411,36.344862,26.499682)"><path
     class="cls-2"
     d="m 79.476,342.526 h 21.458 V 247.234 H 72.946 L 52.687,303.077 32.162,247.234 H 3.641 v 95.292 h 19.325 v -66.905 l 26.522,66.905 h 3.6 l 26.388,-66.905 z m 53.805,-42.382 c 1.466,-9.862 7.33,-15.593 15.993,-15.593 9.196,0 14.527,5.064 15.193,15.593 z m -0.267,11.862 h 50.245 v -5.331 c 0,-24.923 -15.993,-35.452 -33.985,-35.452 -20.258,0 -35.851,14.261 -35.851,36.251 v 1.067 c 0,22.257 15.326,35.451 36.384,35.451 19.059,0 31.053,-8.396 33.319,-23.456 h -18.259 c -1.199,5.864 -5.597,9.729 -14.527,9.729 -10.529,0 -16.793,-6.664 -17.326,-18.259 m 89.453,31.853 c 5.198,0 9.063,-0.933 11.729,-1.866 v -14.927 c -2.266,0.933 -4.398,1.333 -7.331,1.333 -4.931,0 -7.73,-2.666 -7.73,-8.263 V 286.55 h 14.661 v -13.727 h -14.661 v -15.061 h -19.191 v 15.061 h -8.93 v 13.727 h 8.93 v 35.318 c 0,14.527 7.863,21.991 22.523,21.991 m 64.917,-25.722 c 0,7.73 -6.53,12.394 -15.06,12.394 -7.063,0 -10.129,-3.332 -10.129,-8.396 0,-7.464 6.531,-9.863 17.726,-9.863 h 7.463 z m 19.059,24.389 v -45.447 c 0,-18.925 -12.128,-25.856 -29.187,-25.856 -17.059,0 -30.121,7.33 -31.321,23.857 h 18.259 c 0.8,-5.998 4.265,-9.863 11.862,-9.863 8.796,0 11.328,4.532 11.328,12.795 v 2.799 h -7.863 c -21.324,0 -36.251,6.13 -36.251,22.39 0,14.661 10.662,20.791 23.323,20.791 10.929,0 17.06,-4.265 21.058,-9.862 v 8.396 z"
     id="path1274"
     style="fill:#1c1f3d" /><path
     class="cls-1"
     d="m 303.595,173.23 c 2.27,0 4.11,-1.84 4.11,-4.11 0,-2.27 -1.84,-4.111 -4.11,-4.111 -2.27,0 -4.111,1.84 -4.111,4.111 0,2.271 1.841,4.11 4.111,4.11 M 127.564,425.234 c 0,-13.328 7.236,-21.058 18.432,-21.058 11.335,0 18.432,7.996 18.432,21.324 v 0.933 c 0,13.195 -7.097,21.191 -18.432,21.191 -11.475,0 -18.432,-7.996 -18.432,-21.324 z m -20.192,0.399 v 1.067 c 0,21.724 16.653,35.584 38.484,35.584 21.97,0 38.623,-13.993 38.623,-35.984 v -1.066 c 0,-21.724 -16.513,-35.718 -38.483,-35.718 -21.97,0 -38.624,14.26 -38.624,36.117 M 0,411.666 v 2.106 c 0,29.321 19.224,48.512 51.97,48.512 24.63,0 44.134,-12.128 46.653,-35.718 H 76.026 c -1.819,12.262 -11.881,18.259 -24.335,18.259 -16.513,0 -28.281,-11.461 -28.281,-31.186 v -2.106 c 0,-19.725 12.327,-31.453 28.141,-31.453 12.594,0 20.697,6.131 22.376,17.592 H 97.504 C 95.125,374.216 75.48,363.021 51.411,363.021 23.003,363.021 0,382.745 0,411.666 M 240.411,3.484 C 222.062,30.759 177.252,40.543 139.291,50.316 81.07,65.305 0.886,101.642 35.985,185.514 23.971,200.43 12.945,219.856 12.477,220.7 c 0,0 1.3,1.097 2.383,1.698 1.302,0.722 2.916,1.238 2.916,1.238 0.111,-0.202 11.984,-21.35 21.955,-34.752 51.088,30.32 111.919,21.943 154.251,-16.646 H 53.317 c -4.834,5.334 -9.297,10.759 -13.601,16.456 -1.013,-0.435 -2.852,-2.148 -3.631,-3.244 22.699,-31.711 66.149,-63.533 109.053,-90.315 44.504,-27.779 83.622,-56.409 95.273,-91.651 m -4.139,144.553 c 0,2.27 1.84,4.11 4.11,4.11 2.27,0 4.11,-1.84 4.11,-4.11 0,-2.27 -1.84,-4.11 -4.11,-4.11 -2.27,0 -4.11,1.84 -4.11,4.11 m 0,21.083 c 0,2.27 1.84,4.11 4.11,4.11 2.27,0 4.11,-1.84 4.11,-4.11 0,-2.27 -1.84,-4.111 -4.11,-4.111 -2.27,0 -4.11,1.84 -4.11,4.111 m 8.22,-42.166 c 0,-2.029 -1.473,-3.704 -3.407,-4.039 -1.018,2.474 -2.089,4.898 -3.204,7.28 0.694,0.537 1.555,0.87 2.501,0.87 2.27,0 4.11,-1.841 4.11,-4.111 M 140.432,102.73 h 96.819 c 1.499,-4.8 2.822,-9.747 3.959,-14.84 h -78.301 c -1.033,0.683 -2.064,1.363 -3.094,2.035 -6.86,4.48 -13.297,8.732 -19.383,12.805 m 88.705,21.086 c 2.208,-4.76 4.216,-9.713 6.03,-14.839 H 131.169 c -7.697,5.235 -14.755,10.157 -21.267,14.839 z m -0.448,45.304 c 0,-2.271 -1.84,-4.111 -4.11,-4.111 -2.27,0 -4.11,1.84 -4.11,4.111 0,2.271 1.84,4.11 4.11,4.11 2.27,0 4.11,-1.84 4.11,-4.11 m -11.345,-24.217 c 3.124,-4.703 6.038,-9.65 8.72,-14.84 H 101.347 c -6.98,5.185 -13.282,10.094 -19.038,14.84 z m -16.93,21.088 c 4.443,-4.594 8.651,-9.536 12.571,-14.84 H 74.944 c -5.76,5.027 -10.956,9.927 -15.748,14.84 z M 242.495,81.643 C 247.07,57.409 247.51,30.085 242.578,0 237.74,29.819 205.652,58.405 172.13,81.643 Z m 17.801,3.146 c 0,-2.27 -1.841,-4.11 -4.111,-4.11 -2.27,0 -4.11,1.84 -4.11,4.11 0,2.27 1.84,4.11 4.11,4.11 2.27,0 4.111,-1.84 4.111,-4.11 m 0,21.083 c 0,-2.27 -1.841,-4.111 -4.111,-4.111 -2.27,0 -4.11,1.841 -4.11,4.111 0,2.27 1.84,4.11 4.11,4.11 2.27,0 4.111,-1.84 4.111,-4.11 m 0,21.082 c 0,-2.27 -1.841,-4.11 -4.111,-4.11 -2.27,0 -4.11,1.84 -4.11,4.11 0,2.27 1.84,4.11 4.11,4.11 2.27,0 4.111,-1.84 4.111,-4.11 m 0,21.083 c 0,-2.27 -1.841,-4.11 -4.111,-4.11 -2.27,0 -4.11,1.84 -4.11,4.11 0,2.27 1.84,4.11 4.11,4.11 2.27,0 4.111,-1.84 4.111,-4.11 m 0,21.083 c 0,-2.271 -1.841,-4.111 -4.111,-4.111 -2.27,0 -4.11,1.84 -4.11,4.111 0,2.271 1.84,4.11 4.11,4.11 2.27,0 4.111,-1.84 4.111,-4.11 m 15.803,-84.331 c 0,-2.27 -1.841,-4.11 -4.11,-4.11 -2.269,0 -4.111,1.84 -4.111,4.11 0,2.27 1.84,4.11 4.111,4.11 2.271,0 4.11,-1.84 4.11,-4.11 m 0,21.083 c 0,-2.27 -1.841,-4.111 -4.11,-4.111 -2.269,0 -4.111,1.841 -4.111,4.111 0,2.27 1.84,4.11 4.111,4.11 2.271,0 4.11,-1.84 4.11,-4.11 m 0,21.082 c 0,-2.27 -1.841,-4.11 -4.11,-4.11 -2.269,0 -4.111,1.84 -4.111,4.11 0,2.27 1.84,4.11 4.111,4.11 2.271,0 4.11,-1.84 4.11,-4.11 m 0,21.083 c 0,-2.27 -1.841,-4.11 -4.11,-4.11 -2.269,0 -4.111,1.84 -4.111,4.11 0,2.27 1.84,4.11 4.111,4.11 2.271,0 4.11,-1.84 4.11,-4.11 m 0,21.083 c 0,-2.271 -1.841,-4.111 -4.11,-4.111 -2.269,0 -4.111,1.84 -4.111,4.111 0,2.271 1.84,4.11 4.111,4.11 2.271,0 4.11,-1.84 4.11,-4.11 m 15.803,-84.331 c 0,-2.27 -1.84,-4.11 -4.111,-4.11 -2.271,0 -4.11,1.84 -4.11,4.11 0,2.27 1.84,4.11 4.11,4.11 2.27,0 4.111,-1.84 4.111,-4.11 m 0,21.083 c 0,-2.27 -1.84,-4.111 -4.111,-4.111 -2.271,0 -4.11,1.841 -4.11,4.111 0,2.27 1.84,4.11 4.11,4.11 2.27,0 4.111,-1.84 4.111,-4.11 m 0,21.082 c 0,-2.27 -1.84,-4.11 -4.111,-4.11 -2.271,0 -4.11,1.84 -4.11,4.11 0,2.27 1.84,4.11 4.11,4.11 2.27,0 4.111,-1.84 4.111,-4.11 m 0,21.083 c 0,-2.27 -1.84,-4.11 -4.111,-4.11 -2.271,0 -4.11,1.84 -4.11,4.11 0,2.27 1.84,4.11 4.11,4.11 2.27,0 4.111,-1.84 4.111,-4.11 m 0,21.083 c 0,-2.271 -1.84,-4.111 -4.111,-4.111 -2.271,0 -4.11,1.84 -4.11,4.111 0,2.271 1.84,4.11 4.11,4.11 2.27,0 4.111,-1.84 4.111,-4.11 m 14.499,247.051 c 0,-18.526 -10.495,-26.655 -24.07,-26.655 -9.236,0 -18.752,3.731 -24.629,12.128 -3.499,-8.263 -10.776,-12.128 -20.431,-12.128 -10.916,0 -18.752,5.73 -22.391,12.261 v -10.662 h -20.291 v 69.703 h 20.291 v -41.182 c 0,-9.463 6.297,-14.261 14.134,-14.261 7.137,0 11.822,3.999 11.822,12.928 v 42.515 h 19.805 v -41.182 c 0,-9.463 6.297,-14.261 14.134,-14.261 7.276,0 11.821,3.999 11.821,12.928 v 42.515 h 19.805 z m 1.304,-331.382 c 0,-2.27 -1.84,-4.11 -4.11,-4.11 -2.27,0 -4.111,1.84 -4.111,4.11 0,2.27 1.841,4.11 4.111,4.11 2.27,0 4.11,-1.84 4.11,-4.11 m 0,21.083 c 0,-2.27 -1.84,-4.111 -4.11,-4.111 -2.27,0 -4.111,1.841 -4.111,4.111 0,2.27 1.841,4.11 4.111,4.11 2.27,0 4.11,-1.84 4.11,-4.11 m 0,21.082 c 0,-2.27 -1.84,-4.11 -4.11,-4.11 -2.27,0 -4.111,1.84 -4.111,4.11 0,2.27 1.841,4.11 4.111,4.11 2.27,0 4.11,-1.84 4.11,-4.11 m 0,21.083 c 0,-2.27 -1.84,-4.11 -4.11,-4.11 -2.27,0 -4.111,1.84 -4.111,4.11 0,2.27 1.841,4.11 4.111,4.11 2.27,0 4.11,-1.84 4.11,-4.11"
     id="path1276"
     style="fill:#85a640" /></g></g></svg>
