<?xml version="1.0" encoding="UTF-8" standalone="no"?>
<!-- Created with Inkscape (http://www.inkscape.org/) -->

<svg
   xmlns:dc="http://purl.org/dc/elements/1.1/"
   xmlns:cc="http://creativecommons.org/ns#"
   xmlns:rdf="http://www.w3.org/1999/02/22-rdf-syntax-ns#"
   xmlns:svg="http://www.w3.org/2000/svg"
   xmlns="http://www.w3.org/2000/svg"
   xmlns:sodipodi="http://sodipodi.sourceforge.net/DTD/sodipodi-0.dtd"
   xmlns:inkscape="http://www.inkscape.org/namespaces/inkscape"
   id="svg2"
   version="1.1"
   inkscape:version="0.92.5 (2060ec1f9f, 2020-04-08)"
   xml:space="preserve"
   width="166.08"
   height="194.66667"
   viewBox="0 0 155.7 182.5"
   sodipodi:docname="IPB1.svg"
   inkscape:export-filename="/home/sneumann/agmsbi/IPBSticker/BASDA/BASDA.svg.png"
   inkscape:export-xdpi="96"
   inkscape:export-ydpi="96"><metadata
     id="metadata8"><rdf:RDF><cc:Work
         rdf:about=""><dc:format>image/svg+xml</dc:format><dc:type
           rdf:resource="http://purl.org/dc/dcmitype/StillImage" /><dc:title></dc:title></cc:Work></rdf:RDF></metadata><defs
     id="defs6"><clipPath
       clipPathUnits="userSpaceOnUse"
       id="clipPath16"><path
         d="m 2.422,38.688 v 68.945 l 59.858,34.478 59.859,-34.478 V 38.688 L 62.28,4.211 Z"
         id="path18"
         inkscape:connector-curvature="0" /></clipPath><radialGradient
       fx="0"
       fy="0"
       cx="0"
       cy="0"
       r="1"
       gradientUnits="userSpaceOnUse"
       gradientTransform="matrix(64.567177,0,0,-64.564835,65.073593,36.61673)"
       spreadMethod="pad"
       id="radialGradient24"><stop
         style="stop-opacity:1;stop-color:#cf8484"
         offset="0"
         id="stop26" /><stop
         style="stop-opacity:1;stop-color:#b02626"
         offset="1"
         id="stop28" /></radialGradient><clipPath
       clipPathUnits="userSpaceOnUse"
       id="clipPath44"><path
         d="M 0,146 H 124.56 V 0 H 0 Z"
         id="path46"
         inkscape:connector-curvature="0" /></clipPath><clipPath
       clipPathUnits="userSpaceOnUse"
       id="clipPath196"><path
         d="m 79.288,86.078 c -1.013,0 -1.843,-0.83 -1.843,-1.843 v 0 c 0,-1.015 0.83,-1.844 1.843,-1.844 v 0 h 10.058 c 1.013,0 1.843,0.829 1.843,1.844 v 0 c 0,1.013 -0.83,1.843 -1.843,1.843 v 0 z m -15.365,0 c -1.014,0 -1.844,-0.83 -1.844,-1.843 v 0 c 0,-1.015 0.83,-1.844 1.844,-1.844 v 0 h 8.964 c 1.015,0 1.845,0.829 1.845,1.844 v 0 c 0,1.013 -0.83,1.843 -1.845,1.843 v 0 z m -17.551,0 c -1.014,0 -1.843,-0.83 -1.843,-1.843 v 0 c 0,-1.015 0.829,-1.844 1.843,-1.844 v 0 H 56.43 c 1.013,0 1.843,0.829 1.843,1.844 v 0 c 0,1.013 -0.83,1.843 -1.843,1.843 v 0 z m -11.081,0 c -1.014,0 -1.844,-0.83 -1.844,-1.843 v 0 c 0,-1.015 0.83,-1.844 1.844,-1.844 v 0 h 4.681 c 1.014,0 1.844,0.829 1.844,1.844 v 0 c 0,1.013 -0.83,1.843 -1.844,1.843 v 0 z m 42.971,-6.399 c -0.45,0 -0.817,-0.368 -0.817,-0.817 v 0 c 0,-0.449 0.367,-0.818 0.817,-0.818 v 0 h 11.987 c 0.45,0 0.817,0.369 0.817,0.818 v 0 c 0,0.449 -0.367,0.817 -0.817,0.817 v 0 z m -15.038,0 c -0.449,0 -0.817,-0.368 -0.817,-0.817 v 0 c 0,-0.449 0.368,-0.818 0.817,-0.818 v 0 h 10.581 c 0.449,0 0.817,0.369 0.817,0.818 v 0 c 0,0.449 -0.368,0.817 -0.817,0.817 v 0 z m -12.654,0 c -0.449,0 -0.817,-0.368 -0.817,-0.817 v 0 c 0,-0.449 0.368,-0.818 0.817,-0.818 v 0 h 6.836 c 0.449,0 0.817,0.369 0.817,0.818 v 0 c 0,0.449 -0.368,0.817 -0.817,0.817 v 0 z m -16.382,0 c -0.449,0 -0.817,-0.368 -0.817,-0.817 v 0 c 0,-0.449 0.368,-0.818 0.817,-0.818 v 0 h 6.836 c 0.449,0 0.817,0.369 0.817,0.818 v 0 c 0,0.449 -0.368,0.817 -0.817,0.817 v 0 z m 44.074,-3.12 c -0.45,0 -0.817,-0.367 -0.817,-0.817 v 0 c 0,-0.449 0.367,-0.817 0.817,-0.817 v 0 h 11.987 c 0.45,0 0.817,0.368 0.817,0.817 v 0 c 0,0.45 -0.367,0.817 -0.817,0.817 v 0 z m -15.038,0 c -0.449,0 -0.817,-0.367 -0.817,-0.817 v 0 c 0,-0.449 0.368,-0.817 0.817,-0.817 v 0 h 10.581 c 0.449,0 0.817,0.368 0.817,0.817 v 0 c 0,0.45 -0.368,0.817 -0.817,0.817 v 0 z m -17.878,0 c -0.45,0 -0.817,-0.367 -0.817,-0.817 v 0 c 0,-0.449 0.367,-0.817 0.817,-0.817 v 0 h 12.06 c 0.449,0 0.817,0.368 0.817,0.817 v 0 c 0,0.45 -0.368,0.817 -0.817,0.817 v 0 z m -11.158,0 c -0.449,0 -0.817,-0.367 -0.817,-0.817 v 0 c 0,-0.449 0.368,-0.817 0.817,-0.817 v 0 h 6.836 c 0.449,0 0.817,0.368 0.817,0.817 v 0 c 0,0.45 -0.368,0.817 -0.817,0.817 v 0 z m 44.074,-3.118 c -0.45,0 -0.817,-0.368 -0.817,-0.817 v 0 c 0,-0.45 0.367,-0.817 0.817,-0.817 v 0 h 11.987 c 0.45,0 0.817,0.367 0.817,0.817 v 0 c 0,0.449 -0.367,0.817 -0.817,0.817 v 0 z m -15.038,0 c -0.449,0 -0.817,-0.368 -0.817,-0.817 v 0 c 0,-0.45 0.368,-0.817 0.817,-0.817 v 0 h 10.581 c 0.449,0 0.817,0.367 0.817,0.817 v 0 c 0,0.449 -0.368,0.817 -0.817,0.817 v 0 z m -6.352,0 c -0.45,0 -0.817,-0.368 -0.817,-0.817 v 0 c 0,-0.45 0.367,-0.817 0.817,-0.817 v 0 h 0.534 c 0.449,0 0.817,0.367 0.817,0.817 v 0 c 0,0.449 -0.368,0.817 -0.817,0.817 v 0 z m -22.684,0 c -0.449,0 -0.817,-0.368 -0.817,-0.817 v 0 c 0,-0.45 0.368,-0.817 0.817,-0.817 v 0 h 6.836 c 0.449,0 0.817,0.367 0.817,0.817 v 0 c 0,0.449 -0.368,0.817 -0.817,0.817 v 0 z m 44.074,-3.119 c -0.45,0 -0.817,-0.368 -0.817,-0.818 v 0 c 0,-0.449 0.367,-0.817 0.817,-0.817 v 0 h 11.987 c 0.45,0 0.817,0.368 0.817,0.817 v 0 c 0,0.45 -0.367,0.818 -0.817,0.818 v 0 z m -10.878,0 c -0.449,0 -0.817,-0.368 -0.817,-0.818 v 0 c 0,-0.449 0.368,-0.817 0.817,-0.817 v 0 h 6.421 c 0.449,0 0.817,0.368 0.817,0.817 v 0 c 0,0.45 -0.368,0.818 -0.817,0.818 v 0 z m -12.68,0 c -0.45,0 -0.817,-0.368 -0.817,-0.818 v 0 c 0,-0.449 0.367,-0.817 0.817,-0.817 v 0 h 2.702 c 0.449,0 0.817,0.368 0.817,0.817 v 0 c 0,0.45 -0.368,0.818 -0.817,0.818 v 0 z m -20.516,0 c -0.449,0 -0.817,-0.368 -0.817,-0.818 v 0 c 0,-0.449 0.368,-0.817 0.817,-0.817 v 0 h 6.836 c 0.449,0 0.817,0.368 0.817,0.817 v 0 c 0,0.45 -0.368,0.818 -0.817,0.818 v 0 z m 44.197,-3.119 c -0.45,0 -0.818,-0.368 -0.818,-0.817 v 0 c 0,-0.45 0.368,-0.817 0.818,-0.817 v 0 h 11.987 c 0.45,0 0.817,0.367 0.817,0.817 v 0 c 0,0.449 -0.367,0.817 -0.817,0.817 v 0 z m -15.051,0 c -0.449,0 -0.817,-0.368 -0.817,-0.817 v 0 c 0,-0.45 0.368,-0.817 0.817,-0.817 v 0 h 10.58 c 0.449,0 0.818,0.367 0.818,0.817 v 0 c 0,0.449 -0.369,0.817 -0.818,0.817 v 0 z m -11.57,0 c -0.45,0 -0.817,-0.368 -0.817,-0.817 v 0 c 0,-0.45 0.367,-0.817 0.817,-0.817 v 0 h 5.717 c 0.45,0 0.817,0.367 0.817,0.817 v 0 c 0,0.449 -0.367,0.817 -0.817,0.817 v 0 z m -17.499,0 c -0.45,0 -0.818,-0.368 -0.818,-0.817 v 0 c 0,-0.45 0.368,-0.817 0.818,-0.817 v 0 h 6.834 c 0.45,0 0.818,0.367 0.818,0.817 v 0 c 0,0.449 -0.368,0.817 -0.818,0.817 v 0 z m 44.12,-3.119 c -0.45,0 -0.818,-0.369 -0.818,-0.818 v 0 c 0,-0.449 0.368,-0.817 0.818,-0.817 v 0 h 11.987 c 0.45,0 0.817,0.368 0.817,0.817 v 0 c 0,0.449 -0.367,0.818 -0.817,0.818 v 0 z m -12.39,0 c -0.449,0 -0.817,-0.369 -0.817,-0.818 v 0 c 0,-0.449 0.368,-0.817 0.817,-0.817 v 0 h 7.919 c 0.449,0 0.818,0.368 0.818,0.817 v 0 c 0,0.449 -0.369,0.818 -0.818,0.818 v 0 z m -8.781,0 c -0.449,0 -0.817,-0.369 -0.817,-0.818 v 0 c 0,-0.449 0.368,-0.817 0.817,-0.817 v 0 h 0.267 c 0.45,0 0.817,0.368 0.817,0.817 v 0 c 0,0.449 -0.367,0.818 -0.817,0.818 v 0 z m -22.949,0 c -0.45,0 -0.818,-0.369 -0.818,-0.818 v 0 c 0,-0.449 0.368,-0.817 0.818,-0.817 v 0 h 6.834 c 0.45,0 0.818,0.368 0.818,0.817 v 0 c 0,0.449 -0.368,0.818 -0.818,0.818 v 0 z m 44.12,-3.119 c -0.45,0 -0.818,-0.368 -0.818,-0.818 v 0 c 0,-0.449 0.368,-0.817 0.818,-0.817 v 0 h 11.987 c 0.45,0 0.817,0.368 0.817,0.817 v 0 c 0,0.45 -0.367,0.818 -0.817,0.818 v 0 z m -14.507,0 c -0.45,0 -0.818,-0.368 -0.818,-0.818 v 0 c 0,-0.449 0.368,-0.817 0.818,-0.817 v 0 h 10.036 c 0.449,0 0.818,0.368 0.818,0.817 v 0 c 0,0.45 -0.369,0.818 -0.818,0.818 v 0 z m -17.064,0 c -0.449,0 -0.817,-0.368 -0.817,-0.818 v 0 c 0,-0.449 0.368,-0.817 0.817,-0.817 v 0 h 10.667 c 0.45,0 0.817,0.368 0.817,0.817 v 0 c 0,0.45 -0.367,0.818 -0.817,0.818 v 0 z m -12.549,0 c -0.45,0 -0.818,-0.368 -0.818,-0.818 v 0 c 0,-0.449 0.368,-0.817 0.818,-0.817 v 0 h 6.834 c 0.45,0 0.818,0.368 0.818,0.817 v 0 c 0,0.45 -0.368,0.818 -0.818,0.818 v 0 z m 44.12,-3.119 c -0.45,0 -0.818,-0.368 -0.818,-0.817 v 0 c 0,-0.45 0.368,-0.818 0.818,-0.818 v 0 h 11.987 c 0.45,0 0.817,0.368 0.817,0.818 v 0 c 0,0.449 -0.367,0.817 -0.817,0.817 v 0 z m -15.051,0 c -0.449,0 -0.817,-0.368 -0.817,-0.817 v 0 c 0,-0.45 0.368,-0.818 0.817,-0.818 v 0 h 10.58 c 0.449,0 0.818,0.368 0.818,0.818 v 0 c 0,0.449 -0.369,0.817 -0.818,0.817 v 0 z m -11.769,0 c -0.45,0 -0.818,-0.368 -0.818,-0.817 v 0 c 0,-0.45 0.368,-0.818 0.818,-0.818 v 0 h 5.916 c 0.45,0 0.817,0.368 0.817,0.818 v 0 c 0,0.449 -0.367,0.817 -0.817,0.817 v 0 z m -17.3,0 c -0.45,0 -0.818,-0.368 -0.818,-0.817 v 0 c 0,-0.45 0.368,-0.818 0.818,-0.818 v 0 h 6.834 c 0.45,0 0.818,0.368 0.818,0.818 v 0 c 0,0.449 -0.368,0.817 -0.818,0.817 v 0 z"
         id="path198"
         inkscape:connector-curvature="0" /></clipPath><clipPath
       clipPathUnits="userSpaceOnUse"
       id="clipPath204"><path
         d="M -32768,32767 H 32767 V -32768 H -32768 Z"
         id="path206"
         inkscape:connector-curvature="0" /></clipPath><linearGradient
       x1="0"
       y1="0"
       x2="1"
       y2="0"
       gradientUnits="userSpaceOnUse"
       gradientTransform="matrix(0,29.86697,29.86697,0,62.280125,56.211143)"
       spreadMethod="pad"
       id="linearGradient208"><stop
         style="stop-opacity:0.2;stop-color:#ffffff"
         offset="0"
         id="stop210" /><stop
         style="stop-opacity:1;stop-color:#ffffff"
         offset="1"
         id="stop212" /></linearGradient><mask
       maskUnits="userSpaceOnUse"
       x="0"
       y="0"
       width="1"
       height="1"
       id="mask214"><g
         id="g216"><g
           clip-path="url(#clipPath204)"
           id="g218"><g
             id="g220"><g
               id="g222"><path
                 d="M -32768,32767 H 32767 V -32768 H -32768 Z"
                 style="fill:url(#linearGradient208);stroke:none"
                 id="path224"
                 inkscape:connector-curvature="0" /></g></g></g></g></mask><linearGradient
       x1="0"
       y1="0"
       x2="1"
       y2="0"
       gradientUnits="userSpaceOnUse"
       gradientTransform="matrix(0,29.86697,29.86697,0,62.280125,56.211143)"
       spreadMethod="pad"
       id="linearGradient230"><stop
         style="stop-opacity:1;stop-color:#ffffff"
         offset="0"
         id="stop232" /><stop
         style="stop-opacity:1;stop-color:#ffffff"
         offset="1"
         id="stop234" /></linearGradient><clipPath
       clipPathUnits="userSpaceOnUse"
       id="clipPath242"><path
         d="M 0,146 H 124.56 V 0 H 0 Z"
         id="path244"
         inkscape:connector-curvature="0" /></clipPath><radialGradient
       fx="-0.033188026"
       fy="2.3714364e-13"
       cx="-0.033188026"
       cy="2.3714364e-13"
       r="1"
       gradientUnits="userSpaceOnUse"
       gradientTransform="matrix(28.591206,0,0,21.613982,152.76634,162.74222)"
       spreadMethod="pad"
       id="radialGradient1169"><stop
         style="stop-opacity:0.042;stop-color:#ffffff"
         offset="0"
         id="stop1165" /><stop
         style="stop-opacity:0.145;stop-color:#2b2d3c"
         offset="1"
         id="stop1167" /></radialGradient><radialGradient
       id="radialGradient841"
       spreadMethod="pad"
       gradientTransform="matrix(64.567177,0,0,-64.564835,65.073593,36.61673)"
       gradientUnits="userSpaceOnUse"
       r="1"
       cy="-2.220446e-16"
       cx="-0.033188026"
       fy="-2.220446e-16"
       fx="-0.033188026"><stop
         id="stop837"
         offset="0"
         style="stop-opacity:0.99354839;stop-color:#ffffff" /><stop
         id="stop839"
         offset="1"
         style="stop-opacity:0.94117647;stop-color:#f2f2f2" /></radialGradient></defs><sodipodi:namedview
     pagecolor="#ffffff"
     bordercolor="#666666"
     borderopacity="1"
     objecttolerance="10"
     gridtolerance="10"
     guidetolerance="10"
     inkscape:pageopacity="0"
     inkscape:pageshadow="2"
     inkscape:window-width="924"
     inkscape:window-height="1016"
     id="namedview4"
     showgrid="false"
     inkscape:zoom="3.6575826"
     inkscape:cx="93.570575"
     inkscape:cy="81.313926"
     inkscape:window-x="72"
     inkscape:window-y="27"
     inkscape:window-maximized="0"
     inkscape:current-layer="layer3" /><g
     inkscape:groupmode="layer"
     id="layer4"
     inkscape:label="Background"
     style="display:inline"><g
       transform="matrix(1.25,0,0,-1.25,0,182.5)"
       clip-path="url(#clipPath16)"
       id="g14"><g
         id="g20"><g
           id="g22" /></g></g></g><g
     id="g10"
     inkscape:groupmode="layer"
     inkscape:label="Border"
     transform="matrix(1.25,0,0,-1.25,0,182.5)"
     style="display:inline" /><g
     inkscape:groupmode="layer"
     id="layer5"
     inkscape:label="Guides" /><g
     inkscape:groupmode="layer"
     id="layer3"
     inkscape:label="Bioconductor"
     style="display:inline">


<g
   id="g861"
   transform="matrix(3.5433071,0,0,3.5433071,-294.48191,-427.41506)"><g
     transform="matrix(0.35277777,0,0,-0.35277777,83.106385,172.37494)"
     id="g833"><g
       id="g835"><path
         inkscape:connector-curvature="0"
         id="path843"
         style="fill:url(#radialGradient841);stroke:#ffffff;stroke-width:1.41732287;stroke-miterlimit:4;stroke-dasharray:none;stroke-opacity:1"
         d="m 2.422,38.688 v 68.945 l 59.858,34.478 59.859,-34.478 V 38.688 L 62.28,4.211 Z" /></g></g><path
     d="m 83.106385,133.91045 v 25.31004 l 21.970995,12.65485 21.971,-12.65485 v -25.31004 l -21.971,-12.65484 z m 1.708856,24.32226 v -23.33448 l 20.262139,-11.6706 20.26215,11.6706 v 23.33448 l -20.26215,11.6706 z"
     style="opacity:1;fill:#899e00;fill-opacity:0.94117647;fill-rule:nonzero;stroke:none;stroke-width:0.35277778"
     id="path847"
     inkscape:connector-curvature="0" /><text
     y="198.98662"
     x="6.5313101"
     id="text1061"
     style="font-variant:normal;font-weight:300;font-stretch:normal;font-size:1.41111135px;font-family:'Aller Light';-inkscape-font-specification:Aller-Light;writing-mode:lr-tb;fill:#899e00;fill-opacity:0.94117647;fill-rule:nonzero;stroke:none;stroke-width:0.35277778"
     transform="rotate(-29.91402)"><tspan
       id="tspan1442"
       sodipodi:role="line"
       x="6.5313101"
       y="198.98662">www.ipb-halle.de</tspan></text>
<g
     transform="matrix(0.05602341,0,0,0.05602341,113.77717,104.50662)"
     id="g1865"><path
       style="fill:#7e9a2c;stroke-width:0.28907362"
       d="M -160.25938,740.8304 V 385.04705 h 5.82083 5.82084 v 355.78335 355.7833 h -5.82084 -5.82083 z"
       id="path1804"
       inkscape:connector-curvature="0" /><path
       inkscape:connector-curvature="0"
       style="fill:#7e9a2c;stroke-width:0.26458332"
       d="m -182.21979,1020.5139 c -0.94589,-0.6333 -6.89902,-4.5929 -13.22917,-8.799 -11.14176,-7.4032 -13.83282,-9.222 -19.44688,-13.1434 -1.4552,-1.01648 -3.77692,-2.62417 -5.15937,-3.57267 -2.69101,-1.84629 -7.14769,-5.01298 -17.73828,-12.60385 -3.65449,-2.61938 -7.14128,-5.11424 -7.74843,-5.54411 -5.50701,-3.89919 -31.45345,-23.44131 -38.13131,-28.71943 -1.56492,-1.23693 -3.17352,-2.48709 -3.57462,-2.77813 -1.2058,-0.87495 -11.3713,-8.98985 -16.5068,-13.17702 -2.642,-2.15415 -5.5628,-4.5354 -6.4906,-5.29166 -6.4057,-5.22145 -19.959,-16.77181 -25.9445,-22.11041 -1.0818,-0.96483 -2.2724,-1.98702 -2.6458,-2.27155 -0.3735,-0.28451 -1.9887,-1.71929 -3.5895,-3.18839 -1.6007,-1.4691 -4.2201,-3.84974 -5.8208,-5.29032 -2.9044,-2.61382 -8.515,-7.84841 -14.0229,-13.08312 -1.6007,-1.52132 -7.1371,-7.00132 -12.3031,-12.17774 -10.5831,-10.60442 -16.5505,-16.98781 -24.8396,-26.57086 -25.6106,-29.60856 -41.333,-55.72871 -47.3955,-78.73997 -0.875,-3.32094 -1.473,-6.52441 -2.1208,-11.35981 -0.3041,-2.27012 -0.4031,-13.74544 -0.1283,-14.87569 0.083,-0.34084 0.2578,-1.69127 0.3887,-3.00096 0.3422,-3.4227 0.8869,-6.41067 1.857,-10.18646 0.9235,-3.59481 1.2055,-4.58822 1.9084,-6.72449 4.7739,-14.50877 14.4081,-30.9073 26.6465,-45.35543 1.3975,-1.64983 2.9374,-3.4953 3.4221,-4.10104 2.5133,-3.14111 11.8876,-12.90521 18.9666,-19.75517 10.9827,-10.62741 28.9811,-26.10064 45.5042,-39.12003 2.6194,-2.06393 5.3579,-4.22354 6.0855,-4.79912 0.7276,-0.57559 1.9777,-1.56318 2.7781,-2.19464 0.8004,-0.63146 2.5863,-2.04128 3.9687,-3.13294 1.3825,-1.09165 3.5913,-2.81029 4.9086,-3.8192 3.2338,-2.47685 7.8684,-6.06072 14.0053,-10.83023 2.8086,-2.18281 7.0322,-5.45703 9.3858,-7.27604 2.3535,-1.81901 5.5684,-4.31932 7.1442,-5.55625 1.5757,-1.23693 3.4859,-2.72521 4.2448,-3.3073 0.7589,-0.58208 1.9919,-1.55334 2.7399,-2.15836 0.748,-0.60501 5.0509,-4.04913 9.5621,-7.6536 4.51111,-3.60446 8.79736,-7.06272 9.52496,-7.68501 0.72761,-0.6223 3.52558,-2.96753 6.21771,-5.21163 17.633,-14.69848 33.63259,-29.8595 45.00213,-42.64348 3.38984,-3.81155 6.85732,-7.86893 7.77209,-9.09434 0.28546,-0.38238 1.42052,-1.82634 2.52235,-3.20878 3.14021,-3.93997 4.69305,-6.09128 8.49844,-11.77396 7.23681,-10.80683 12.41298,-21.07947 16.11173,-31.97538 1.24618,-3.67104 1.28653,-3.74497 2.08928,-3.82628 0.66447,-0.0673 0.81857,0.0146 0.81857,0.43499 0,0.68952 -0.46205,5.45517 -0.79317,8.18073 -0.14584,1.20055 -0.38767,3.22461 -0.5374,4.49792 -0.14973,1.27331 -0.38322,2.96995 -0.51887,3.77031 -0.23315,1.3757 -0.43013,2.63081 -1.06937,6.81302 -0.15012,0.98227 -0.38783,2.38125 -0.52821,3.10885 -0.14039,0.72761 -0.4839,2.51355 -0.76335,3.96875 -0.97441,5.07387 -1.34885,6.89426 -1.87759,9.12813 -0.29276,1.23693 -0.65246,2.84427 -0.79931,3.57187 -0.26821,1.3289 -2.17725,8.71338 -3.14645,12.17084 -1.25492,4.47684 -3.10618,10.24049 -5.0565,15.74271 -0.74793,2.11005 -1.69712,4.78895 -2.10929,5.95312 -1.53228,4.32785 -6.09221,15.26186 -8.66188,20.76979 -3.2068,6.8736 -8.64109,17.52351 -11.30218,22.14955 -1.07024,1.86051 -2.45239,4.27571 -3.07144,5.36712 -3.22429,5.68455 -14.31441,22.87226 -16.75741,25.971 -0.30495,0.3868 -1.20584,1.63696 -2.00196,2.77812 -2.02704,2.90555 -9.57633,13.01934 -11.64607,15.60226 -0.9477,1.18268 -2.43747,3.08025 -3.3106,4.21682 -0.87312,1.13657 -2.24597,2.84783 -3.05078,3.80279 -0.80481,0.95497 -2.82843,3.40318 -4.49693,5.44047 -2.66414,3.253 -6.11917,7.31708 -15.183,17.85938 -1.3137,1.52797 -4.1274,4.74265 -6.2528,7.14375 -6.6601,7.52414 -19.5036,22.4573 -22.7112,26.40647 -7.6169,9.37763 -13.7573,17.82821 -17.593,24.21202 -2.9888,4.97446 -4.2388,7.44604 -6.8489,13.54296 -2.9394,6.86618 -4.6095,16.59454 -3.9212,22.84056 2.0205,18.33491 17.0292,39.03011 47.2495,65.15177 9.25783,8.00221 24.66645,19.80006 37.57081,28.76663 2.18282,1.51673 4.38547,3.05128 4.89479,3.41011 1.9375,1.36501 17.18458,11.45143 19.71146,13.03975 1.45521,0.91469 3.24115,2.05105 3.96875,2.52521 0.72761,0.47419 2.36216,1.50098 3.63234,2.28177 1.27018,0.78079 3.47283,2.13887 4.89479,3.01794 10.24342,6.33259 28.20717,16.82224 34.86454,20.35855 1.60073,0.85029 3.23784,1.77261 3.63802,2.04957 l 0.72761,0.50356 v 71.15489 c 0,56.7529 -0.0669,71.1529 -0.33073,71.1449 -0.18191,-0.01 -1.10464,-0.5283 -2.05052,-1.1617 z"
       id="path1796" /><path
       inkscape:connector-curvature="0"
       style="fill:#7e9a2c;stroke-width:0.26458332"
       d="m -129.39131,767.50921 c -0.097,-0.097 -0.1764,-13.96778 -0.1764,-30.82396 v -30.64756 h 6.61458 6.61458 v 30.82396 30.82395 h -6.43818 c -3.54103,0 -6.51759,-0.0794 -6.61458,-0.17639 z"
       id="path1794" /><path
       inkscape:connector-curvature="0"
       style="fill:#7e9a2c;stroke-width:0.99999994"
       d="m -376.70508,2668.291 v 116.6172 116.6172 l 24.25,-0.2676 24.25,-0.2695 0.1582,-41.8848 c 0.1152,-30.4144 0.47473,-42.0798 1.3125,-42.5976 0.63463,-0.3921 12.2637,-0.9859 25.8418,-1.3204 16.36823,-0.4033 27.11958,-1.1305 31.90235,-2.1582 24.91222,-5.3523 43.14978,-17.6636 51.52929,-34.7851 6.10118,-12.4664 7.18976,-17.9264 7.12891,-35.7539 -0.0628,-18.3723 -1.05521,-23.6015 -6.73047,-35.5 -7.93523,-16.6364 -24.59218,-29.2982 -44.64258,-33.9356 -4.12501,-0.9541 -9.07501,-2.2085 -11,-2.7871 -2.15051,-0.6464 -22.875,-1.2298 -53.75,-1.5136 z m 72.60547,37.0098 c 19.68589,-0.051 28.90781,2.7228 37.01758,10.3926 7.90851,7.4795 9.8367,12.7253 9.85937,26.7949 0.0157,10.4593 -0.2302,12.0281 -2.71679,17.3359 -5.28979,11.2913 -11.99675,16.9497 -24.11524,20.3399 -7.45829,2.0865 -39.54656,2.9849 -41.91406,1.1738 -1.63797,-1.2529 -1.74529,-3.9942 -1.5,-38.3496 l 0.26367,-37 14,-0.5 c 3.26664,-0.1167 6.2932,-0.1802 9.10547,-0.1875 z"
       transform="scale(0.26458333)"
       id="path1792" /><path
       inkscape:connector-curvature="0"
       style="fill:#7e9a2c;stroke-width:0.99999994"
       d="m -148.24023,2668.5723 c -14.0995,0.049 -18.12563,0.3694 -18.55274,1.0605 -0.85727,1.3869 -1.12723,229.6985 -0.27344,231.0801 0.26393,0.4269 24.41491,0.7691 53.66993,0.7578 54.832167,-0.018 61.890892,-0.4224 77.191402,-4.4277 9.245896,-2.4203 20.31192,-8.4505 26.9785155,-14.6992 14.3352187,-13.437 20.5453315,-36.957 15.9101563,-60.2559 -3.7639182,-18.9194 -14.9429212,-30.868 -34.7578128,-37.1504 -3.906935,-1.2387 -7.533202,-2.9327 -8.058593,-3.7656 -1.244523,-1.9731 0.630239,-4.2687 4.21875,-5.1621 4.565479,-1.1368 13.000626,-6.4483 18.048828,-11.3653 10.4512999,-10.18 14.69771055,-26.1901 12.3203121,-46.4531 -2.833814,-24.1527 -16.9362771,-39.0823 -43.7343751,-46.3008 l -9.925781,-2.6738 -55.378902,-0.4629 c -17.11073,-0.143 -29.19656,-0.2113 -37.65625,-0.1816 z m 39.67578,31.9336 c 3.34885,-0.026 8.1293,0.074 15.156247,0.2636 23.684183,0.64 28.831933,1.6492 35.910156,7.041 2.361676,1.7991 5.28744,5.0684 6.501953,7.2637 4.791081,8.6609 5.035117,26.1265 0.490235,35.0156 -4.3759,8.5586 -10.485016,12.5312 -22.9375,14.9141 -5.033008,0.963 -13.945302,1.4843 -25.355469,1.4844 -15.775902,2e-4 -17.766122,-0.1885 -19.250002,-1.8281 -1.46188,-1.6151 -1.65625,-5.2919 -1.65625,-31.4766 v -29.6484 l 2.54688,-1.67 c 1.40688,-0.9218 3.01233,-1.3161 8.59375,-1.3593 z m 5.15429,96.0859 c 3.29915,0 7.236221,0.039 11.900394,0.1055 23.337411,0.3321 25.739355,0.5327 30.884766,2.5839 13.610306,5.4258 20.877967,16.8079 20.908203,32.7481 0.03379,17.1855 -8.693771,29.9655 -23.337891,34.1738 -3.610809,1.0376 -12.340574,1.6354 -29.208984,2.002 -21.692408,0.4714 -24.225298,0.3567 -25.749998,-1.168 -1.52028,-1.5204 -1.69141,-5.0534 -1.69141,-34.998 0,-27.816 0.239,-33.5027 1.44531,-34.5039 0.79867,-0.6627 4.95216,-0.9519 14.84961,-0.9434 z"
       transform="scale(0.26458333)"
       id="path1788" /><path
       inkscape:connector-curvature="0"
       id="path1753"
       d="m -129.60422,1021.7517 c -0.10764,-1.3647 -0.11748,-142.07276 -0.0101,-142.37804 0.11364,-0.32263 6.99008,-3.78145 25.84336,-12.99913 3.20146,-1.56525 10.107092,-4.95806 15.345842,-7.53957 12.46772,-6.14376 23.50632,-11.57203 32.01458,-15.74329 3.78354,-1.85494 10.45104,-5.12694 14.81667,-7.27115 4.36562,-2.14418 9.96156,-4.88376 12.43541,-6.0879 4.5365,-2.20814 9.07865,-4.43878 37.04167,-18.19109 8.44021,-4.15094 23.14443,-11.3788 32.67604,-16.06192 9.53162,-4.68313 17.5981,-8.68818 17.92552,-8.90008 l 0.59531,-0.38529 V 716.9205 c 0,-65.6432 -0.0243,-69.29509 -0.46302,-69.68156 -0.25466,-0.22432 -2.7252,-1.62351 -5.4901,-3.10931 -2.7649,-1.48582 -6.27724,-3.39002 -7.80521,-4.23161 -1.52797,-0.84156 -7.06437,-3.85035 -12.30312,-6.68615 -5.23875,-2.83583 -11.66813,-6.3196 -14.2875,-7.74174 -2.61938,-1.42211 -7.73907,-4.18805 -11.37709,-6.14651 -3.63802,-1.95847 -6.97177,-3.77342 -7.40833,-4.03324 -0.43656,-0.25982 -1.74625,-0.9794 -2.91042,-1.59907 -3.0894,-1.64445 -11.46871,-6.17944 -12.7,-6.87341 -0.58208,-0.32806 -1.89177,-1.04251 -2.91041,-1.58766 -1.01865,-0.54515 -4.76912,-2.57445 -8.33438,-4.50955 -3.56526,-1.93511 -7.91104,-4.28437 -9.65729,-5.22059 -1.74625,-0.93622 -5.13953,-2.77911 -7.54062,-4.09531 -2.4011,-1.3162 -5.19907,-2.83536 -6.21771,-3.37592 -1.01865,-0.54056 -4.65006,-2.50541 -8.06979,-4.36634 -3.41974,-1.86092 -8.24178,-4.4755 -10.71563,-5.81017 -2.47385,-1.33467 -6.7601,-3.65745 -9.525,-5.16172 -2.7649,-1.50428 -6.3963,-3.4696 -8.06979,-4.36738 -1.67349,-0.89777 -5.72162,-3.09448 -8.99583,-4.88158 -9.192772,-5.01748 -17.869202,-9.72635 -23.680212,-12.85171 -2.91042,-1.56532 -6.21028,-3.36541 -7.33301,-4.0002 -1.12273,-0.6348 -2.15752,-1.15417 -2.29949,-1.15417 -0.14198,0 -0.34629,-0.14261 -0.454,-0.3169 -0.20638,-0.33394 -0.36224,-30.53305 -0.16052,-31.10237 0.0644,-0.1819 0.2209,-0.33073 0.34768,-0.33073 0.12679,0 1.92974,0.93808 4.00659,2.08463 3.56619,1.96875 10.42297,5.73239 23.09066,12.67429 3.055942,1.67465 6.746882,3.69817 8.202092,4.4967 1.45521,0.79854 3.25231,1.78181 3.99359,2.18506 0.74126,0.40324 1.99141,1.09037 2.77813,1.52696 2.67036,1.48193 14.61907,8.04192 25.63974,14.07652 15.62364,8.55506 26.59168,14.57 32.49551,17.82074 2.81115,1.54785 5.14178,2.81427 5.17922,2.81427 0.0374,0 1.36882,0.7306 2.95862,1.62355 1.58983,0.89296 5.45045,3.01756 8.57914,4.72133 5.91744,3.22243 16.98819,9.30247 21.56355,11.8427 3.13033,1.73795 10.71242,5.87987 12.96458,7.08223 0.87312,0.46614 3.25437,1.77611 5.29167,2.91103 2.03729,1.13493 5.60916,3.09949 7.9375,4.36569 6.01755,3.27249 9.31926,5.08814 11.50641,6.32752 1.04632,0.59292 1.95403,1.07803 2.0171,1.07803 0.0631,0 1.03468,0.5221 2.15913,1.16022 1.12443,0.63813 4.48522,2.49948 7.4684,4.13636 2.98317,1.63687 6.67411,3.66218 8.20208,4.50069 6.39535,3.50958 10.98336,6.01939 15.338,8.3904 2.5423,1.38425 5.07252,2.80099 5.62269,3.14828 l 1.00028,0.63146 -0.0664,123.74649 -0.0664,123.74653 -3.11727,1.99321 c -3.17746,2.03171 -13.71262,8.85978 -22.86926,14.82212 -2.79644,1.82089 -6.36831,4.14036 -7.9375,5.15437 -1.56919,1.01399 -4.99618,3.23773 -7.61556,4.94162 -2.61937,1.70387 -7.08422,4.60473 -9.92187,6.44637 -2.83766,1.84163 -7.36203,4.77961 -10.05417,6.52888 -2.69213,1.74924 -6.30094,4.09091 -8.0196,5.20372 -1.71863,1.11278 -5.31638,3.45199 -7.99499,5.19824 -2.67862,1.74625 -6.51121,4.23969 -8.51686,5.54099 -2.00567,1.30127 -7.57574,4.9199 -12.37792,8.04134 -4.80219,3.12148 -10.3386,6.71185 -12.30313,7.97862 -1.96453,1.26677 -5.41734,3.50607 -7.67292,4.97618 -2.25557,1.47013 -5.47026,3.55999 -7.14374,4.64415 -1.67349,1.08413 -5.21513,3.38204 -7.8703,5.10641 -2.65517,1.72436 -6.46517,4.19697 -8.46667,5.49468 -6.0584,3.92805 -9.51926,6.17717 -13.95783,9.07081 -4.21568,2.74834 -9.62273,6.25994 -15.5512,10.09965 -4.38401,2.8394 -9.85205,6.38966 -13.42067,8.71366 -1.67349,1.0899 -3.816622,2.4783 -4.762502,3.0854 -0.94589,0.6071 -3.86292,2.5027 -6.48229,4.2125 -2.61938,1.7098 -7.14375,4.6536 -10.05417,6.5418 -2.91042,1.8881 -6.74539,4.3802 -8.52215,5.5379 -1.77678,1.1577 -3.29483,2.1049 -3.37344,2.1049 -0.0786,0 -0.15938,-0.2084 -0.17946,-0.4631 z"
       style="fill:#2b2d3c;stroke-width:0.26458332" /></g></g></g><g
     inkscape:groupmode="layer"
     id="layer2"
     inkscape:label="Logo"
     style="display:inline" /><g
     inkscape:groupmode="layer"
     id="layer1"
     inkscape:label="Title"
     style="display:inline">



</g></svg>