<?xml version="1.0" encoding="UTF-8" standalone="no"?>
<!-- Created with Inkscape (http://www.inkscape.org/) -->

<svg
   xmlns:dc="http://purl.org/dc/elements/1.1/"
   xmlns:cc="http://creativecommons.org/ns#"
   xmlns:rdf="http://www.w3.org/1999/02/22-rdf-syntax-ns#"
   xmlns:svg="http://www.w3.org/2000/svg"
   xmlns="http://www.w3.org/2000/svg"
   xmlns:xlink="http://www.w3.org/1999/xlink"
   xmlns:sodipodi="http://sodipodi.sourceforge.net/DTD/sodipodi-0.dtd"
   xmlns:inkscape="http://www.inkscape.org/namespaces/inkscape"
   id="svg2"
   version="1.1"
   inkscape:version="0.92.5 (2060ec1f9f, 2020-04-08)"
   xml:space="preserve"
   width="166.08"
   height="194.66667"
   viewBox="0 0 155.7 182.5"
   sodipodi:docname="IPB2.svg"
   inkscape:export-filename="/home/sneumann/agmsbi/IPBSticker/BASDA/BASDA.svg.png"
   inkscape:export-xdpi="96"
   inkscape:export-ydpi="96"><metadata
     id="metadata8"><rdf:RDF><cc:Work
         rdf:about=""><dc:format>image/svg+xml</dc:format><dc:type
           rdf:resource="http://purl.org/dc/dcmitype/StillImage" /><dc:title></dc:title></cc:Work></rdf:RDF></metadata><defs
     id="defs6"><clipPath
       clipPathUnits="userSpaceOnUse"
       id="clipPath16"><path
         d="m 2.422,38.688 v 68.945 l 59.858,34.478 59.859,-34.478 V 38.688 L 62.28,4.211 Z"
         id="path18"
         inkscape:connector-curvature="0" /></clipPath><radialGradient
       fx="0"
       fy="0"
       cx="0"
       cy="0"
       r="1"
       gradientUnits="userSpaceOnUse"
       gradientTransform="matrix(64.567177,0,0,-64.564835,65.073593,36.61673)"
       spreadMethod="pad"
       id="radialGradient24"><stop
         style="stop-opacity:1;stop-color:#cf8484"
         offset="0"
         id="stop26" /><stop
         style="stop-opacity:1;stop-color:#b02626"
         offset="1"
         id="stop28" /></radialGradient><clipPath
       clipPathUnits="userSpaceOnUse"
       id="clipPath44"><path
         d="M 0,146 H 124.56 V 0 H 0 Z"
         id="path46"
         inkscape:connector-curvature="0" /></clipPath><clipPath
       clipPathUnits="userSpaceOnUse"
       id="clipPath196"><path
         d="m 79.288,86.078 c -1.013,0 -1.843,-0.83 -1.843,-1.843 v 0 c 0,-1.015 0.83,-1.844 1.843,-1.844 v 0 h 10.058 c 1.013,0 1.843,0.829 1.843,1.844 v 0 c 0,1.013 -0.83,1.843 -1.843,1.843 v 0 z m -15.365,0 c -1.014,0 -1.844,-0.83 -1.844,-1.843 v 0 c 0,-1.015 0.83,-1.844 1.844,-1.844 v 0 h 8.964 c 1.015,0 1.845,0.829 1.845,1.844 v 0 c 0,1.013 -0.83,1.843 -1.845,1.843 v 0 z m -17.551,0 c -1.014,0 -1.843,-0.83 -1.843,-1.843 v 0 c 0,-1.015 0.829,-1.844 1.843,-1.844 v 0 H 56.43 c 1.013,0 1.843,0.829 1.843,1.844 v 0 c 0,1.013 -0.83,1.843 -1.843,1.843 v 0 z m -11.081,0 c -1.014,0 -1.844,-0.83 -1.844,-1.843 v 0 c 0,-1.015 0.83,-1.844 1.844,-1.844 v 0 h 4.681 c 1.014,0 1.844,0.829 1.844,1.844 v 0 c 0,1.013 -0.83,1.843 -1.844,1.843 v 0 z m 42.971,-6.399 c -0.45,0 -0.817,-0.368 -0.817,-0.817 v 0 c 0,-0.449 0.367,-0.818 0.817,-0.818 v 0 h 11.987 c 0.45,0 0.817,0.369 0.817,0.818 v 0 c 0,0.449 -0.367,0.817 -0.817,0.817 v 0 z m -15.038,0 c -0.449,0 -0.817,-0.368 -0.817,-0.817 v 0 c 0,-0.449 0.368,-0.818 0.817,-0.818 v 0 h 10.581 c 0.449,0 0.817,0.369 0.817,0.818 v 0 c 0,0.449 -0.368,0.817 -0.817,0.817 v 0 z m -12.654,0 c -0.449,0 -0.817,-0.368 -0.817,-0.817 v 0 c 0,-0.449 0.368,-0.818 0.817,-0.818 v 0 h 6.836 c 0.449,0 0.817,0.369 0.817,0.818 v 0 c 0,0.449 -0.368,0.817 -0.817,0.817 v 0 z m -16.382,0 c -0.449,0 -0.817,-0.368 -0.817,-0.817 v 0 c 0,-0.449 0.368,-0.818 0.817,-0.818 v 0 h 6.836 c 0.449,0 0.817,0.369 0.817,0.818 v 0 c 0,0.449 -0.368,0.817 -0.817,0.817 v 0 z m 44.074,-3.12 c -0.45,0 -0.817,-0.367 -0.817,-0.817 v 0 c 0,-0.449 0.367,-0.817 0.817,-0.817 v 0 h 11.987 c 0.45,0 0.817,0.368 0.817,0.817 v 0 c 0,0.45 -0.367,0.817 -0.817,0.817 v 0 z m -15.038,0 c -0.449,0 -0.817,-0.367 -0.817,-0.817 v 0 c 0,-0.449 0.368,-0.817 0.817,-0.817 v 0 h 10.581 c 0.449,0 0.817,0.368 0.817,0.817 v 0 c 0,0.45 -0.368,0.817 -0.817,0.817 v 0 z m -17.878,0 c -0.45,0 -0.817,-0.367 -0.817,-0.817 v 0 c 0,-0.449 0.367,-0.817 0.817,-0.817 v 0 h 12.06 c 0.449,0 0.817,0.368 0.817,0.817 v 0 c 0,0.45 -0.368,0.817 -0.817,0.817 v 0 z m -11.158,0 c -0.449,0 -0.817,-0.367 -0.817,-0.817 v 0 c 0,-0.449 0.368,-0.817 0.817,-0.817 v 0 h 6.836 c 0.449,0 0.817,0.368 0.817,0.817 v 0 c 0,0.45 -0.368,0.817 -0.817,0.817 v 0 z m 44.074,-3.118 c -0.45,0 -0.817,-0.368 -0.817,-0.817 v 0 c 0,-0.45 0.367,-0.817 0.817,-0.817 v 0 h 11.987 c 0.45,0 0.817,0.367 0.817,0.817 v 0 c 0,0.449 -0.367,0.817 -0.817,0.817 v 0 z m -15.038,0 c -0.449,0 -0.817,-0.368 -0.817,-0.817 v 0 c 0,-0.45 0.368,-0.817 0.817,-0.817 v 0 h 10.581 c 0.449,0 0.817,0.367 0.817,0.817 v 0 c 0,0.449 -0.368,0.817 -0.817,0.817 v 0 z m -6.352,0 c -0.45,0 -0.817,-0.368 -0.817,-0.817 v 0 c 0,-0.45 0.367,-0.817 0.817,-0.817 v 0 h 0.534 c 0.449,0 0.817,0.367 0.817,0.817 v 0 c 0,0.449 -0.368,0.817 -0.817,0.817 v 0 z m -22.684,0 c -0.449,0 -0.817,-0.368 -0.817,-0.817 v 0 c 0,-0.45 0.368,-0.817 0.817,-0.817 v 0 h 6.836 c 0.449,0 0.817,0.367 0.817,0.817 v 0 c 0,0.449 -0.368,0.817 -0.817,0.817 v 0 z m 44.074,-3.119 c -0.45,0 -0.817,-0.368 -0.817,-0.818 v 0 c 0,-0.449 0.367,-0.817 0.817,-0.817 v 0 h 11.987 c 0.45,0 0.817,0.368 0.817,0.817 v 0 c 0,0.45 -0.367,0.818 -0.817,0.818 v 0 z m -10.878,0 c -0.449,0 -0.817,-0.368 -0.817,-0.818 v 0 c 0,-0.449 0.368,-0.817 0.817,-0.817 v 0 h 6.421 c 0.449,0 0.817,0.368 0.817,0.817 v 0 c 0,0.45 -0.368,0.818 -0.817,0.818 v 0 z m -12.68,0 c -0.45,0 -0.817,-0.368 -0.817,-0.818 v 0 c 0,-0.449 0.367,-0.817 0.817,-0.817 v 0 h 2.702 c 0.449,0 0.817,0.368 0.817,0.817 v 0 c 0,0.45 -0.368,0.818 -0.817,0.818 v 0 z m -20.516,0 c -0.449,0 -0.817,-0.368 -0.817,-0.818 v 0 c 0,-0.449 0.368,-0.817 0.817,-0.817 v 0 h 6.836 c 0.449,0 0.817,0.368 0.817,0.817 v 0 c 0,0.45 -0.368,0.818 -0.817,0.818 v 0 z m 44.197,-3.119 c -0.45,0 -0.818,-0.368 -0.818,-0.817 v 0 c 0,-0.45 0.368,-0.817 0.818,-0.817 v 0 h 11.987 c 0.45,0 0.817,0.367 0.817,0.817 v 0 c 0,0.449 -0.367,0.817 -0.817,0.817 v 0 z m -15.051,0 c -0.449,0 -0.817,-0.368 -0.817,-0.817 v 0 c 0,-0.45 0.368,-0.817 0.817,-0.817 v 0 h 10.58 c 0.449,0 0.818,0.367 0.818,0.817 v 0 c 0,0.449 -0.369,0.817 -0.818,0.817 v 0 z m -11.57,0 c -0.45,0 -0.817,-0.368 -0.817,-0.817 v 0 c 0,-0.45 0.367,-0.817 0.817,-0.817 v 0 h 5.717 c 0.45,0 0.817,0.367 0.817,0.817 v 0 c 0,0.449 -0.367,0.817 -0.817,0.817 v 0 z m -17.499,0 c -0.45,0 -0.818,-0.368 -0.818,-0.817 v 0 c 0,-0.45 0.368,-0.817 0.818,-0.817 v 0 h 6.834 c 0.45,0 0.818,0.367 0.818,0.817 v 0 c 0,0.449 -0.368,0.817 -0.818,0.817 v 0 z m 44.12,-3.119 c -0.45,0 -0.818,-0.369 -0.818,-0.818 v 0 c 0,-0.449 0.368,-0.817 0.818,-0.817 v 0 h 11.987 c 0.45,0 0.817,0.368 0.817,0.817 v 0 c 0,0.449 -0.367,0.818 -0.817,0.818 v 0 z m -12.39,0 c -0.449,0 -0.817,-0.369 -0.817,-0.818 v 0 c 0,-0.449 0.368,-0.817 0.817,-0.817 v 0 h 7.919 c 0.449,0 0.818,0.368 0.818,0.817 v 0 c 0,0.449 -0.369,0.818 -0.818,0.818 v 0 z m -8.781,0 c -0.449,0 -0.817,-0.369 -0.817,-0.818 v 0 c 0,-0.449 0.368,-0.817 0.817,-0.817 v 0 h 0.267 c 0.45,0 0.817,0.368 0.817,0.817 v 0 c 0,0.449 -0.367,0.818 -0.817,0.818 v 0 z m -22.949,0 c -0.45,0 -0.818,-0.369 -0.818,-0.818 v 0 c 0,-0.449 0.368,-0.817 0.818,-0.817 v 0 h 6.834 c 0.45,0 0.818,0.368 0.818,0.817 v 0 c 0,0.449 -0.368,0.818 -0.818,0.818 v 0 z m 44.12,-3.119 c -0.45,0 -0.818,-0.368 -0.818,-0.818 v 0 c 0,-0.449 0.368,-0.817 0.818,-0.817 v 0 h 11.987 c 0.45,0 0.817,0.368 0.817,0.817 v 0 c 0,0.45 -0.367,0.818 -0.817,0.818 v 0 z m -14.507,0 c -0.45,0 -0.818,-0.368 -0.818,-0.818 v 0 c 0,-0.449 0.368,-0.817 0.818,-0.817 v 0 h 10.036 c 0.449,0 0.818,0.368 0.818,0.817 v 0 c 0,0.45 -0.369,0.818 -0.818,0.818 v 0 z m -17.064,0 c -0.449,0 -0.817,-0.368 -0.817,-0.818 v 0 c 0,-0.449 0.368,-0.817 0.817,-0.817 v 0 h 10.667 c 0.45,0 0.817,0.368 0.817,0.817 v 0 c 0,0.45 -0.367,0.818 -0.817,0.818 v 0 z m -12.549,0 c -0.45,0 -0.818,-0.368 -0.818,-0.818 v 0 c 0,-0.449 0.368,-0.817 0.818,-0.817 v 0 h 6.834 c 0.45,0 0.818,0.368 0.818,0.817 v 0 c 0,0.45 -0.368,0.818 -0.818,0.818 v 0 z m 44.12,-3.119 c -0.45,0 -0.818,-0.368 -0.818,-0.817 v 0 c 0,-0.45 0.368,-0.818 0.818,-0.818 v 0 h 11.987 c 0.45,0 0.817,0.368 0.817,0.818 v 0 c 0,0.449 -0.367,0.817 -0.817,0.817 v 0 z m -15.051,0 c -0.449,0 -0.817,-0.368 -0.817,-0.817 v 0 c 0,-0.45 0.368,-0.818 0.817,-0.818 v 0 h 10.58 c 0.449,0 0.818,0.368 0.818,0.818 v 0 c 0,0.449 -0.369,0.817 -0.818,0.817 v 0 z m -11.769,0 c -0.45,0 -0.818,-0.368 -0.818,-0.817 v 0 c 0,-0.45 0.368,-0.818 0.818,-0.818 v 0 h 5.916 c 0.45,0 0.817,0.368 0.817,0.818 v 0 c 0,0.449 -0.367,0.817 -0.817,0.817 v 0 z m -17.3,0 c -0.45,0 -0.818,-0.368 -0.818,-0.817 v 0 c 0,-0.45 0.368,-0.818 0.818,-0.818 v 0 h 6.834 c 0.45,0 0.818,0.368 0.818,0.818 v 0 c 0,0.449 -0.368,0.817 -0.818,0.817 v 0 z"
         id="path198"
         inkscape:connector-curvature="0" /></clipPath><clipPath
       clipPathUnits="userSpaceOnUse"
       id="clipPath204"><path
         d="M -32768,32767 H 32767 V -32768 H -32768 Z"
         id="path206"
         inkscape:connector-curvature="0" /></clipPath><linearGradient
       x1="0"
       y1="0"
       x2="1"
       y2="0"
       gradientUnits="userSpaceOnUse"
       gradientTransform="matrix(0,29.86697,29.86697,0,62.280125,56.211143)"
       spreadMethod="pad"
       id="linearGradient208"><stop
         style="stop-opacity:0.2;stop-color:#ffffff"
         offset="0"
         id="stop210" /><stop
         style="stop-opacity:1;stop-color:#ffffff"
         offset="1"
         id="stop212" /></linearGradient><mask
       maskUnits="userSpaceOnUse"
       x="0"
       y="0"
       width="1"
       height="1"
       id="mask214"><g
         id="g216"><g
           clip-path="url(#clipPath204)"
           id="g218"><g
             id="g220"><g
               id="g222"><path
                 d="M -32768,32767 H 32767 V -32768 H -32768 Z"
                 style="fill:url(#linearGradient208);stroke:none"
                 id="path224"
                 inkscape:connector-curvature="0" /></g></g></g></g></mask><linearGradient
       x1="0"
       y1="0"
       x2="1"
       y2="0"
       gradientUnits="userSpaceOnUse"
       gradientTransform="matrix(0,29.86697,29.86697,0,62.280125,56.211143)"
       spreadMethod="pad"
       id="linearGradient230"><stop
         style="stop-opacity:1;stop-color:#ffffff"
         offset="0"
         id="stop232" /><stop
         style="stop-opacity:1;stop-color:#ffffff"
         offset="1"
         id="stop234" /></linearGradient><clipPath
       clipPathUnits="userSpaceOnUse"
       id="clipPath242"><path
         d="M 0,146 H 124.56 V 0 H 0 Z"
         id="path244"
         inkscape:connector-curvature="0" /></clipPath><radialGradient
       fx="-0.033188026"
       fy="2.3714364e-13"
       cx="-0.033188026"
       cy="2.3714364e-13"
       r="1"
       gradientUnits="userSpaceOnUse"
       gradientTransform="matrix(28.591206,0,0,21.613982,152.76634,162.74222)"
       spreadMethod="pad"
       id="radialGradient1169"><stop
         style="stop-opacity:0.042;stop-color:#ffffff"
         offset="0"
         id="stop1165" /><stop
         style="stop-opacity:0.145;stop-color:#2b2d3c"
         offset="1"
         id="stop1167" /></radialGradient><radialGradient
       id="radialGradient841"
       spreadMethod="pad"
       gradientTransform="matrix(64.567177,0,0,-64.564835,65.073593,36.61673)"
       gradientUnits="userSpaceOnUse"
       r="1"
       cy="-2.220446e-16"
       cx="-0.033188026"
       fy="-2.220446e-16"
       fx="-0.033188026"><stop
         id="stop837"
         offset="0"
         style="stop-opacity:0.99354839;stop-color:#ffffff" /><stop
         id="stop839"
         offset="1"
         style="stop-opacity:0.94117647;stop-color:#f2f2f2" /></radialGradient><radialGradient
       inkscape:collect="always"
       xlink:href="#radialGradient1169-3"
       id="radialGradient1163"
       gradientUnits="userSpaceOnUse"
       gradientTransform="matrix(28.591206,0,0,21.613982,152.76634,162.74222)"
       cx="-0.033188026"
       cy="2.3714364e-13"
       fx="-0.033188026"
       fy="2.3714364e-13"
       r="1"
       spreadMethod="pad" /><radialGradient
       fx="-0.033188026"
       fy="2.3714364e-13"
       cx="-0.033188026"
       cy="2.3714364e-13"
       r="1"
       gradientUnits="userSpaceOnUse"
       gradientTransform="matrix(28.591206,0,0,21.613982,152.76634,162.74222)"
       spreadMethod="pad"
       id="radialGradient1169-3"><stop
         style="stop-opacity:0.042;stop-color:#ffffff"
         offset="0"
         id="stop1165-6" /><stop
         style="stop-opacity:0.145;stop-color:#2b2d3c"
         offset="1"
         id="stop1167-7" /></radialGradient></defs><sodipodi:namedview
     pagecolor="#ffffff"
     bordercolor="#666666"
     borderopacity="1"
     objecttolerance="10"
     gridtolerance="10"
     guidetolerance="10"
     inkscape:pageopacity="0"
     inkscape:pageshadow="2"
     inkscape:window-width="924"
     inkscape:window-height="1016"
     id="namedview4"
     showgrid="false"
     inkscape:zoom="3.6575826"
     inkscape:cx="93.570575"
     inkscape:cy="81.313926"
     inkscape:window-x="72"
     inkscape:window-y="27"
     inkscape:window-maximized="0"
     inkscape:current-layer="layer3" /><g
     inkscape:groupmode="layer"
     id="layer4"
     inkscape:label="Background"
     style="display:inline"><g
       transform="matrix(1.25,0,0,-1.25,0,182.5)"
       clip-path="url(#clipPath16)"
       id="g14"><g
         id="g20"><g
           id="g22" /></g></g></g><g
     id="g10"
     inkscape:groupmode="layer"
     inkscape:label="Border"
     transform="matrix(1.25,0,0,-1.25,0,182.5)"
     style="display:inline" /><g
     inkscape:groupmode="layer"
     id="layer5"
     inkscape:label="Guides" /><g
     inkscape:groupmode="layer"
     id="layer3"
     inkscape:label="Bioconductor"
     style="display:inline">


<g
   transform="matrix(3.5433071,0,0,3.5433071,-458.89782,-439.68657)"
   id="g1161"><path
     d="m 130.47132,162.01152 v -24.32226 l 21.11657,-12.16307 21.11692,12.16307 v 24.32226 l -21.11692,12.16272 z"
     style="fill:url(#radialGradient1163);stroke:#ffffff;stroke-width:0.5;stroke-miterlimit:4;stroke-dasharray:none;stroke-opacity:1"
     id="path1141"
     inkscape:connector-curvature="0" /><path
     inkscape:connector-curvature="0"
     id="path1143"
     style="opacity:1;fill:#899e00;fill-opacity:0.94117647;fill-rule:nonzero;stroke:none;stroke-width:0.35277778"
     d="m 129.61689,137.1953 v 25.31004 l 21.971,12.65485 21.971,-12.65485 V 137.1953 l -21.971,-12.65484 z m 1.70886,24.32226 v -23.33448 l 20.26214,-11.6706 20.26215,11.6706 v 23.33448 l -20.26215,11.6706 z" /><text
     transform="rotate(-29.91402)"
     style="font-variant:normal;font-weight:300;font-stretch:normal;font-size:1.41111135px;font-family:'Aller Light';-inkscape-font-specification:Aller-Light;writing-mode:lr-tb;fill:#899e00;fill-opacity:0.94117647;fill-rule:nonzero;stroke:none;stroke-width:0.35277778"
     id="text1147"
     x="45.207291"
     y="225.02863"><tspan
       sodipodi:role="line"
       id="tspan1145"
       x="45.207291"
       y="225.02863">www.ipb-halle.de</tspan></text>
<path
     style="fill:#7e9a2c;stroke-width:0.01619489"
     d="m 151.3094,149.29532 v -19.9322 h 0.32611 0.3261 v 19.9322 19.93219 h -0.3261 -0.32611 z"
     id="path1149"
     inkscape:connector-curvature="0" /><path
     inkscape:connector-curvature="0"
     style="fill:#7e9a2c;stroke-width:0.01482286"
     d="m 150.07911,164.96414 c -0.053,-0.0355 -0.38651,-0.25731 -0.74115,-0.49295 -0.6242,-0.41475 -0.77496,-0.51665 -1.08948,-0.73634 -0.0815,-0.057 -0.21159,-0.14701 -0.28904,-0.20015 -0.15076,-0.10344 -0.40044,-0.28085 -0.99376,-0.70611 -0.20474,-0.14675 -0.40008,-0.28652 -0.4341,-0.3106 -0.30852,-0.21845 -1.76213,-1.31327 -2.13624,-1.60896 -0.0877,-0.0693 -0.17779,-0.13934 -0.20026,-0.15564 -0.0676,-0.049 -0.63706,-0.50365 -0.92477,-0.73823 -0.14802,-0.12068 -0.31165,-0.25408 -0.36363,-0.29645 -0.35887,-0.29253 -1.11817,-0.93962 -1.4535,-1.2387 -0.0606,-0.0541 -0.1273,-0.11132 -0.14822,-0.12726 -0.0209,-0.0159 -0.11142,-0.0963 -0.2011,-0.17863 -0.0897,-0.0823 -0.23642,-0.21567 -0.3261,-0.29638 -0.16271,-0.14643 -0.47704,-0.43969 -0.78561,-0.73296 -0.0897,-0.0852 -0.39985,-0.39224 -0.68926,-0.68224 -0.5929,-0.59409 -0.92722,-0.95171 -1.3916,-1.48859 -1.43479,-1.65877 -2.31562,-3.12211 -2.65526,-4.41128 -0.049,-0.18605 -0.0825,-0.36552 -0.11881,-0.63642 -0.017,-0.12718 -0.0226,-0.77006 -0.007,-0.83338 0.005,-0.0191 0.0144,-0.0948 0.0218,-0.16813 0.0192,-0.19175 0.0497,-0.35914 0.10403,-0.57068 0.0517,-0.20139 0.0675,-0.25704 0.10692,-0.37673 0.26745,-0.81283 0.80719,-1.73153 1.49282,-2.54096 0.0783,-0.0924 0.16457,-0.19582 0.19172,-0.22976 0.1408,-0.17597 0.66599,-0.72299 1.06257,-1.10675 0.61529,-0.59538 1.62362,-1.46224 2.54931,-2.19164 0.14674,-0.11562 0.30016,-0.23661 0.34093,-0.26886 0.0408,-0.0322 0.11079,-0.0876 0.15563,-0.12295 0.0448,-0.0354 0.1449,-0.11436 0.22234,-0.17552 0.0775,-0.0612 0.2012,-0.15744 0.275,-0.21396 0.18117,-0.13876 0.44082,-0.33954 0.78463,-0.60675 0.15734,-0.12229 0.39396,-0.30572 0.52582,-0.40763 0.13185,-0.1019 0.31196,-0.24198 0.40024,-0.31128 0.0883,-0.0693 0.19529,-0.15267 0.23781,-0.18528 0.0425,-0.0326 0.11159,-0.087 0.1535,-0.12092 0.0419,-0.0339 0.28297,-0.22685 0.5357,-0.42878 0.25273,-0.20194 0.49286,-0.39568 0.53362,-0.43054 0.0408,-0.0349 0.19752,-0.16625 0.34834,-0.29198 0.98786,-0.82346 1.88421,-1.67283 2.52117,-2.38903 0.18991,-0.21354 0.38417,-0.44084 0.43542,-0.5095 0.016,-0.0214 0.0796,-0.10231 0.14131,-0.17976 0.17593,-0.22073 0.26292,-0.34126 0.47611,-0.65962 0.40543,-0.60544 0.69542,-1.18094 0.90264,-1.79137 0.0698,-0.20566 0.0721,-0.20981 0.11705,-0.21436 0.0372,-0.004 0.0459,8.2e-4 0.0459,0.0244 0,0.0386 -0.0259,0.30562 -0.0444,0.45831 -0.008,0.0673 -0.0217,0.18065 -0.0301,0.25199 -0.008,0.0713 -0.0215,0.16639 -0.0291,0.21123 -0.0131,0.0771 -0.0241,0.14738 -0.0599,0.38168 -0.008,0.055 -0.0217,0.13341 -0.0296,0.17417 -0.008,0.0408 -0.0271,0.14082 -0.0428,0.22235 -0.0546,0.28425 -0.0756,0.38624 -0.10519,0.51138 -0.0164,0.0693 -0.0366,0.15935 -0.0448,0.20011 -0.015,0.0745 -0.12198,0.48816 -0.17628,0.68185 -0.0703,0.25081 -0.17402,0.57371 -0.28328,0.88196 -0.0419,0.11822 -0.0951,0.2683 -0.11817,0.33352 -0.0858,0.24246 -0.34131,0.85502 -0.48527,1.16359 -0.17965,0.38509 -0.4841,0.98173 -0.63319,1.2409 -0.0599,0.10423 -0.13739,0.23954 -0.17207,0.30068 -0.18063,0.31847 -0.80194,1.28138 -0.93881,1.45499 -0.0171,0.0217 -0.0676,0.0917 -0.11215,0.15563 -0.11356,0.16278 -0.5365,0.72939 -0.65245,0.8741 -0.0531,0.0662 -0.13656,0.17256 -0.18548,0.23624 -0.0489,0.0637 -0.12582,0.15954 -0.17091,0.21304 -0.0451,0.0535 -0.15846,0.19066 -0.25193,0.3048 -0.14926,0.18224 -0.34282,0.40992 -0.85061,1.00054 -0.0736,0.0856 -0.23123,0.2657 -0.3503,0.40022 -0.37312,0.42152 -1.09266,1.25813 -1.27236,1.47938 -0.42672,0.52536 -0.77073,0.99879 -0.98562,1.35644 -0.16744,0.27868 -0.23747,0.41715 -0.3837,0.75872 -0.16467,0.38467 -0.25824,0.92968 -0.21968,1.27961 0.1132,1.02718 0.95404,2.1866 2.64708,3.65002 0.51866,0.44831 1.3819,1.10927 2.10485,1.61161 0.12229,0.085 0.24568,0.17094 0.27422,0.19104 0.10854,0.0765 0.96274,0.64155 1.1043,0.73053 0.0815,0.0513 0.18158,0.11491 0.22234,0.14147 0.0408,0.0266 0.13234,0.0841 0.2035,0.12784 0.0712,0.0437 0.19456,0.11982 0.27422,0.16907 0.57388,0.35477 1.58027,0.94244 1.95323,1.14056 0.0897,0.0476 0.1814,0.0993 0.20382,0.11482 l 0.0408,0.0282 v 3.98634 c 0,3.17949 -0.004,3.98623 -0.0185,3.98578 -0.0102,-5.6e-4 -0.0619,-0.0296 -0.11487,-0.0651 z"
     id="path1151" /><path
     inkscape:connector-curvature="0"
     style="fill:#7e9a2c;stroke-width:0.01482286"
     d="m 153.03874,150.78995 c -0.005,-0.005 -0.01,-0.78252 -0.01,-1.72686 v -1.71698 h 0.37057 0.37057 v 1.72686 1.72687 h -0.36069 c -0.19838,0 -0.36514,-0.004 -0.37057,-0.01 z"
     id="path1153" /><path
     inkscape:connector-curvature="0"
     style="fill:#7e9a2c;stroke-width:0.01482286"
     d="m 154.70383,147.34317 v 1.7286 1.7286 l 0.35946,-0.004 0.35945,-0.004 0.002,-0.62085 c 0.002,-0.45083 0.007,-0.62374 0.0194,-0.63142 0.009,-0.006 0.18179,-0.0146 0.38305,-0.0196 0.24263,-0.006 0.40199,-0.0168 0.47289,-0.032 0.36927,-0.0793 0.6396,-0.26183 0.76381,-0.51561 0.0904,-0.18479 0.10657,-0.26573 0.10567,-0.52998 -9.3e-4,-0.27233 -0.0156,-0.34984 -0.0998,-0.52621 -0.11762,-0.2466 -0.36452,-0.43428 -0.66173,-0.50302 -0.0611,-0.0142 -0.13452,-0.0327 -0.16305,-0.0413 -0.0319,-0.01 -0.33907,-0.0182 -0.79673,-0.0224 z m 1.07622,0.5486 c 0.29181,-7.6e-4 0.4285,0.0403 0.54871,0.15404 0.11723,0.11087 0.14581,0.18863 0.14614,0.39718 2.4e-4,0.15504 -0.003,0.17829 -0.0403,0.25697 -0.0784,0.16737 -0.17782,0.25124 -0.35745,0.30149 -0.11056,0.0309 -0.5862,0.0443 -0.62129,0.0174 -0.0243,-0.0186 -0.0259,-0.0592 -0.0222,-0.56845 l 0.004,-0.54844 0.20752,-0.007 c 0.0484,-0.002 0.0933,-0.003 0.13497,-0.003 z"
     id="path1155" /><path
     inkscape:connector-curvature="0"
     style="fill:#7e9a2c;stroke-width:0.01482286"
     d="m 158.09034,147.34734 c -0.209,7.3e-4 -0.26868,0.005 -0.27501,0.0157 -0.0127,0.0206 -0.0167,3.40479 -0.004,3.42527 0.004,0.006 0.3619,0.0114 0.79554,0.0112 0.81277,-2.6e-4 0.9174,-0.006 1.1442,-0.0656 0.13705,-0.0359 0.30108,-0.12526 0.3999,-0.21788 0.21248,-0.19918 0.30454,-0.54781 0.23583,-0.89317 -0.0558,-0.28044 -0.2215,-0.45755 -0.51521,-0.55067 -0.0579,-0.0184 -0.11166,-0.0435 -0.11945,-0.0558 -0.0185,-0.0292 0.009,-0.0633 0.0625,-0.0765 0.0677,-0.0169 0.19271,-0.0956 0.26754,-0.16846 0.15492,-0.1509 0.21786,-0.38821 0.18262,-0.68857 -0.042,-0.35801 -0.25104,-0.57931 -0.64827,-0.68631 l -0.14713,-0.0396 -0.82087,-0.007 c -0.25363,-0.002 -0.43278,-0.003 -0.55817,-0.003 z m 0.5881,0.47335 c 0.0496,-3.8e-4 0.1205,10e-4 0.22466,0.004 0.35107,0.009 0.42737,0.0244 0.53229,0.10437 0.035,0.0267 0.0784,0.0751 0.0964,0.10766 0.071,0.12838 0.0746,0.38727 0.007,0.51904 -0.0649,0.12686 -0.15542,0.18574 -0.34,0.22107 -0.0746,0.0143 -0.20671,0.022 -0.37584,0.022 -0.23385,0 -0.26335,-0.003 -0.28534,-0.0271 -0.0217,-0.0239 -0.0246,-0.0784 -0.0246,-0.46657 v -0.43948 l 0.0378,-0.0248 c 0.0208,-0.0137 0.0446,-0.0195 0.12738,-0.0201 z m 0.0764,1.42427 c 0.0489,0 0.10726,5.8e-4 0.17639,0.002 0.34593,0.005 0.38153,0.008 0.4578,0.0383 0.20175,0.0804 0.30948,0.24914 0.30992,0.48542 5e-4,0.25474 -0.12886,0.44418 -0.34593,0.50656 -0.0535,0.0154 -0.18292,0.0242 -0.43296,0.0297 -0.32155,0.007 -0.35909,0.005 -0.38169,-0.0173 -0.0225,-0.0225 -0.0251,-0.0749 -0.0251,-0.51877 0,-0.41231 0.004,-0.49661 0.0214,-0.51145 0.0118,-0.01 0.0734,-0.0141 0.22012,-0.014 z"
     id="path1157" /><path
     inkscape:connector-curvature="0"
     id="path1159"
     d="m 153.02681,165.03348 c -0.006,-0.0764 -0.007,-7.9594 -5.7e-4,-7.9765 0.006,-0.0181 0.39161,-0.21185 1.44784,-0.72825 0.17935,-0.0877 0.56623,-0.27777 0.85972,-0.4224 0.69849,-0.34419 1.31691,-0.6483 1.79357,-0.88199 0.21197,-0.10392 0.5855,-0.28723 0.83008,-0.40735 0.24458,-0.12013 0.55808,-0.27361 0.69667,-0.34107 0.25415,-0.12371 0.50862,-0.24867 2.0752,-1.01913 0.47285,-0.23255 1.29663,-0.63748 1.83063,-0.89984 0.53399,-0.26236 0.9859,-0.48674 1.00425,-0.49861 l 0.0334,-0.0216 v -3.88095 c 0,-3.67755 -0.001,-3.88215 -0.0259,-3.9038 -0.0143,-0.0126 -0.15268,-0.0909 -0.30758,-0.17419 -0.1549,-0.0832 -0.35167,-0.18992 -0.43727,-0.23707 -0.0856,-0.0471 -0.39577,-0.21571 -0.68926,-0.37458 -0.2935,-0.15887 -0.65369,-0.35405 -0.80044,-0.43372 -0.14674,-0.0797 -0.43357,-0.23463 -0.63738,-0.34435 -0.20382,-0.10972 -0.39058,-0.2114 -0.41504,-0.22595 -0.0245,-0.0146 -0.0978,-0.0549 -0.16305,-0.0896 -0.17308,-0.0921 -0.64252,-0.34619 -0.7115,-0.38507 -0.0326,-0.0184 -0.10598,-0.0584 -0.16305,-0.0889 -0.0571,-0.0305 -0.26718,-0.14423 -0.46692,-0.25264 -0.19974,-0.10841 -0.44321,-0.24002 -0.54104,-0.29247 -0.0978,-0.0525 -0.28793,-0.1557 -0.42245,-0.22944 -0.13452,-0.0737 -0.29127,-0.15884 -0.34833,-0.18913 -0.0571,-0.0303 -0.26052,-0.14036 -0.4521,-0.24461 -0.19159,-0.10426 -0.46173,-0.25074 -0.60033,-0.32551 -0.13859,-0.0748 -0.37872,-0.2049 -0.53362,-0.28918 -0.1549,-0.0843 -0.35834,-0.19438 -0.4521,-0.24467 -0.0937,-0.0503 -0.32054,-0.17337 -0.50398,-0.27349 -0.51501,-0.28109 -1.00109,-0.5449 -1.32664,-0.71999 -0.16305,-0.0877 -0.34792,-0.18854 -0.41082,-0.22411 -0.0629,-0.0356 -0.12087,-0.0647 -0.12883,-0.0647 -0.008,0 -0.0194,-0.008 -0.0254,-0.0178 -0.0116,-0.0187 -0.0203,-1.71057 -0.009,-1.74246 0.004,-0.0102 0.0124,-0.0185 0.0195,-0.0185 0.007,0 0.10811,0.0526 0.22447,0.11679 0.19979,0.11029 0.58393,0.32115 1.29361,0.71005 0.17121,0.0938 0.37799,0.20719 0.45951,0.25192 0.0815,0.0447 0.18221,0.0998 0.22374,0.12242 0.0415,0.0226 0.11156,0.0611 0.15564,0.0855 0.1496,0.083 0.81901,0.45054 1.43642,0.78862 0.87529,0.47928 1.48976,0.81626 1.82051,0.99838 0.15749,0.0867 0.28806,0.15766 0.29016,0.15766 0.002,0 0.0767,0.0409 0.16575,0.091 0.0891,0.05 0.30536,0.16905 0.48064,0.2645 0.33151,0.18054 0.95173,0.52116 1.20806,0.66347 0.17537,0.0974 0.60015,0.32941 0.72632,0.39677 0.0489,0.0261 0.18232,0.0995 0.29646,0.16309 0.11413,0.0636 0.31424,0.17364 0.44468,0.24458 0.33713,0.18334 0.5221,0.28506 0.64463,0.35449 0.0586,0.0332 0.10947,0.0604 0.11301,0.0604 0.004,0 0.058,0.0292 0.12096,0.065 0.063,0.0357 0.25127,0.14003 0.4184,0.23174 0.16713,0.0917 0.37391,0.20516 0.45951,0.25214 0.35829,0.19662 0.61533,0.33723 0.85929,0.47006 0.14243,0.0776 0.28418,0.15692 0.315,0.17638 l 0.056,0.0354 -0.004,6.9327 -0.004,6.93271 -0.17464,0.11166 c -0.17801,0.11383 -0.76823,0.49636 -1.28121,0.83039 -0.15667,0.10201 -0.35678,0.23196 -0.44469,0.28876 -0.0879,0.0568 -0.2799,0.18139 -0.42665,0.27685 -0.14675,0.0955 -0.39688,0.25797 -0.55586,0.36115 -0.15897,0.10317 -0.41244,0.26777 -0.56327,0.36577 -0.15082,0.098 -0.353,0.22919 -0.44928,0.29153 -0.0963,0.0623 -0.29784,0.19339 -0.44791,0.29122 -0.15006,0.0978 -0.36478,0.23752 -0.47714,0.31043 -0.11237,0.0729 -0.42442,0.27563 -0.69345,0.4505 -0.26904,0.17488 -0.57921,0.37602 -0.68927,0.44699 -0.11006,0.071 -0.3035,0.19642 -0.42986,0.27878 -0.12637,0.0824 -0.30646,0.19944 -0.40022,0.26018 -0.0937,0.0607 -0.29217,0.18948 -0.44092,0.28608 -0.14875,0.0966 -0.3622,0.23513 -0.47433,0.30783 -0.33941,0.22007 -0.5333,0.34607 -0.78197,0.50818 -0.23617,0.15397 -0.53909,0.3507 -0.87123,0.56582 -0.2456,0.15907 -0.55194,0.35797 -0.75187,0.48817 -0.0937,0.0611 -0.21382,0.13884 -0.26681,0.17285 -0.053,0.034 -0.21641,0.14021 -0.36316,0.236 -0.14675,0.0958 -0.40022,0.26071 -0.56327,0.36649 -0.16305,0.10578 -0.3779,0.2454 -0.47744,0.31026 -0.0995,0.0649 -0.18459,0.11792 -0.18899,0.11792 -0.004,0 -0.009,-0.0117 -0.01,-0.0259 z"
     style="fill:#2b2d3c;stroke-width:0.01482286" /></g></g><g
     inkscape:groupmode="layer"
     id="layer2"
     inkscape:label="Logo"
     style="display:inline" /><g
     inkscape:groupmode="layer"
     id="layer1"
     inkscape:label="Title"
     style="display:inline">



</g></svg>