<?xml version="1.0" encoding="UTF-8" standalone="no"?><!DOCTYPE svg PUBLIC "-//W3C//DTD SVG 1.1//EN" "http://www.w3.org/Graphics/SVG/1.1/DTD/svg11.dtd"><svg width="100%" height="100%" viewBox="0 0 325 381" version="1.1" xmlns="http://www.w3.org/2000/svg" xmlns:xlink="http://www.w3.org/1999/xlink" xml:space="preserve" xmlns:serif="http://www.serif.com/" style="fill-rule:evenodd;clip-rule:evenodd;stroke-miterlimit:10;"><clipPath id="_clip1"><path id="path30" d="M6.307,279.458l0,-179.544l155.881,-89.786l155.882,89.786l0,179.544l-155.882,89.784l-155.881,-89.784Z"/></clipPath><g clip-path="url(#_clip1)"><path d="M6.307,279.458l0,-179.544l155.881,-89.786l155.882,89.786l0,179.544l-155.882,89.784l-155.881,-89.784Z" style="fill:url(#_Radial2);fill-rule:nonzero;"/></g><path id="path34" d="M0,96.268l0,186.836l162.188,93.416l162.187,-93.416l0,-186.836l-162.187,-93.417l-162.188,93.417Zm12.615,179.544l0,-172.253l149.573,-86.151l149.572,86.151l0,172.253l-149.572,86.151l-149.573,-86.151Z" style="fill:#fffc22;fill-rule:nonzero;"/><g><clipPath id="_clip3"><polygon id="dna-2858794" points="349.014,283.049 69.6,376.898 -24.639,96.323 254.775,2.473 349.014,283.049 "/></clipPath><g clip-path="url(#_clip3)"><g><g><g><path d="M28.562,234.568c-7.664,-23.403 12.856,-28.207 13.72,-50.715" style="fill:none;fill-rule:nonzero;stroke:#000;stroke-width:2.63px;"/><path d="M21.283,182.884c-0.978,24.779 20.154,23.367 27.204,44.991" style="fill:none;fill-rule:nonzero;stroke:#000;stroke-width:2.63px;"/></g><path d="M27.311,230.156l19.877,-5.98" style="fill:none;fill-rule:nonzero;stroke:#000;stroke-width:2.63px;"/><path d="M42.284,216.417l-15.077,3.394" style="fill:none;fill-rule:nonzero;stroke:#000;stroke-width:2.63px;"/><path d="M21.172,187.609l20.758,0.261" style="fill:none;fill-rule:nonzero;stroke:#000;stroke-width:2.63px;"/><path d="M39.383,196.793l-15.427,0.933" style="fill:none;fill-rule:nonzero;stroke:#000;stroke-width:2.63px;"/></g><g><g><path d="M21.283,182.884c0.718,-24.28 21.819,-21.17 31.157,-42.304" style="fill:none;fill-rule:nonzero;stroke:#000;stroke-width:2.63px;"/><path d="M33.205,132.084c-1.913,4.332 -2.954,9.039 -2.558,13.869c1.357,14.568 12.156,18.451 11.635,37.9" style="fill:none;fill-rule:nonzero;stroke:#000;stroke-width:2.63px;"/></g><path d="M21.699,178.311l20.696,1.631" style="fill:none;fill-rule:nonzero;stroke:#000;stroke-width:2.63px;"/><path d="M40.639,170.943l-15.282,-2.317" style="fill:none;fill-rule:nonzero;stroke:#000;stroke-width:2.63px;"/><path d="M31.4,136.446l19.262,7.756" style="fill:none;fill-rule:nonzero;stroke:#000;stroke-width:2.63px;"/><path d="M45.055,151.603l-14.718,-4.728" style="fill:none;fill-rule:nonzero;stroke:#000;stroke-width:2.63px;"/></g><g><g><path d="M33.205,132.084c10.339,-22.749 27.202,-11.504 44.298,-28.211" style="fill:none;fill-rule:nonzero;stroke:#000;stroke-width:2.63px;"/><path d="M62.614,89.014c-17.33,17.003 -0.893,31.252 -10.174,51.566" style="fill:none;fill-rule:nonzero;stroke:#000;stroke-width:2.63px;"/></g><path d="M35.252,127.979l18.717,8.996" style="fill:none;fill-rule:nonzero;stroke:#000;stroke-width:2.63px;"/><path d="M55.577,127.944l-13.426,-7.669" style="fill:none;fill-rule:nonzero;stroke:#000;stroke-width:2.63px;"/><path d="M59.349,92.424l15.184,14.175" style="fill:none;fill-rule:nonzero;stroke:#000;stroke-width:2.63px;"/><path d="M66.642,111.482l-12.038,-9.708" style="fill:none;fill-rule:nonzero;stroke:#000;stroke-width:2.63px;"/></g><g><g><path d="M62.614,89.014c17.014,-17.241 30.507,-1.061 51.507,-10.249" style="fill:none;fill-rule:nonzero;stroke:#000;stroke-width:2.63px;"/><path d="M105.634,59.514c-22.295,9.767 -12.069,28.055 -28.131,44.358" style="fill:none;fill-rule:nonzero;stroke:#000;stroke-width:2.63px;"/></g><path d="M65.999,85.915l14.22,15.143" style="fill:none;fill-rule:nonzero;stroke:#000;stroke-width:2.63px;"/><path d="M84.972,93.226l-9.752,-12.006" style="fill:none;fill-rule:nonzero;stroke:#000;stroke-width:2.63px;"/><path d="M101.356,61.504l9.006,18.723" style="fill:none;fill-rule:nonzero;stroke:#000;stroke-width:2.63px;"/><path d="M101.239,81.909l-7.697,-13.417" style="fill:none;fill-rule:nonzero;stroke:#000;stroke-width:2.63px;"/></g><g><g><path d="M105.634,59.514c22.924,-9.972 28.563,10.424 51.734,9.017" style="fill:none;fill-rule:nonzero;stroke:#000;stroke-width:2.63px;"/><path d="M156.367,47.518c-24.817,1.456 -21.35,22.177 -42.246,31.247" style="fill:none;fill-rule:nonzero;stroke:#000;stroke-width:2.63px;"/></g><path d="M109.91,57.859l7.767,19.27" style="fill:none;fill-rule:nonzero;stroke:#000;stroke-width:2.63px;"/><path d="M124.955,71.547l-4.762,-14.718" style="fill:none;fill-rule:nonzero;stroke:#000;stroke-width:2.63px;"/><path d="M151.656,47.851l1.683,20.708" style="fill:none;fill-rule:nonzero;stroke:#000;stroke-width:2.63px;"/><path d="M144.221,66.844l-2.369,-15.286" style="fill:none;fill-rule:nonzero;stroke:#000;stroke-width:2.63px;"/></g><g><g><path d="M156.367,47.518c24.754,-0.886 22.64,19.198 44.987,27.169" style="fill:none;fill-rule:nonzero;stroke:#000;stroke-width:2.63px;"/><path d="M208.03,54.743c-22.664,-8.014 -28.536,13.04 -50.662,13.788" style="fill:none;fill-rule:nonzero;stroke:#000;stroke-width:2.63px;"/></g><path d="M160.958,47.523l0.312,20.772" style="fill:none;fill-rule:nonzero;stroke:#000;stroke-width:2.63px;"/><path d="M170.057,65.715l0.879,-15.441" style="fill:none;fill-rule:nonzero;stroke:#000;stroke-width:2.63px;"/><path d="M203.525,53.336l-5.937,19.903" style="fill:none;fill-rule:nonzero;stroke:#000;stroke-width:2.63px;"/><path d="M189.707,68.329l3.34,-15.1" style="fill:none;fill-rule:nonzero;stroke:#000;stroke-width:2.63px;"/></g><g><g><path d="M208.03,54.743c23.276,7.973 14.552,26.79 32.174,41.565" style="fill:none;fill-rule:nonzero;stroke:#000;stroke-width:2.63px;"/><path d="M253.603,80.107c-19.127,-15.654 -30.819,1.946 -52.249,-5.42" style="fill:none;fill-rule:nonzero;stroke:#000;stroke-width:2.63px;"/></g><path d="M212.306,56.405l-7.224,19.472" style="fill:none;fill-rule:nonzero;stroke:#000;stroke-width:2.63px;"/><path d="M214.216,76.657l6.393,-14.079" style="fill:none;fill-rule:nonzero;stroke:#000;stroke-width:2.63px;"/><path d="M249.905,77.171l-12.694,16.432" style="fill:none;fill-rule:nonzero;stroke:#000;stroke-width:2.63px;"/><path d="M231.62,86.185l8.545,-12.884" style="fill:none;fill-rule:nonzero;stroke:#000;stroke-width:2.63px;"/></g><g><g><path d="M253.603,80.107c19.164,15.795 3.588,30.139 15.001,50.37" style="fill:none;fill-rule:nonzero;stroke:#000;stroke-width:2.63px;"/><path d="M286.971,120.254c-12.007,-21.328 -29.398,-9.643 -46.767,-23.946" style="fill:none;fill-rule:nonzero;stroke:#000;stroke-width:2.63px;"/></g><path d="M257.004,83.19l-13.743,15.563" style="fill:none;fill-rule:nonzero;stroke:#000;stroke-width:2.63px;"/><path d="M251.499,102.769l11.035,-10.824" style="fill:none;fill-rule:nonzero;stroke:#000;stroke-width:2.63px;"/><path d="M284.585,116.176l-17.79,10.697" style="fill:none;fill-rule:nonzero;stroke:#000;stroke-width:2.63px;"/><path d="M264.274,117.938l12.63,-8.908" style="fill:none;fill-rule:nonzero;stroke:#000;stroke-width:2.63px;"/></g><g><g><path d="M286.971,120.254c11.96,21.541 -7.119,29.087 -4.201,52.396" style="fill:none;fill-rule:nonzero;stroke:#000;stroke-width:2.63px;"/><path d="M303.583,169.713c-3.431,-24.132 -23.314,-19.03 -34.979,-39.236" style="fill:none;fill-rule:nonzero;stroke:#000;stroke-width:2.63px;"/></g><path d="M289.022,124.363l-18.456,9.501" style="fill:none;fill-rule:nonzero;stroke:#000;stroke-width:2.63px;"/><path d="M276.784,140.603l14.21,-6.076" style="fill:none;fill-rule:nonzero;stroke:#000;stroke-width:2.63px;"/><path d="M302.827,165.049l-20.446,3.586" style="fill:none;fill-rule:nonzero;stroke:#000;stroke-width:2.63px;"/><path d="M283.235,159.386l14.99,-3.761" style="fill:none;fill-rule:nonzero;stroke:#000;stroke-width:2.63px;"/></g><g><g><path d="M303.583,169.713c3.363,24.699 -17.402,24.535 -22.829,47.322" style="fill:none;fill-rule:nonzero;stroke:#000;stroke-width:2.63px;"/><path d="M301.216,221.863c5.683,-23.903 -15.372,-26.482 -18.446,-49.213" style="fill:none;fill-rule:nonzero;stroke:#000;stroke-width:2.63px;"/></g><path d="M304.014,174.286l-20.638,2.23" style="fill:none;fill-rule:nonzero;stroke:#000;stroke-width:2.63px;"/><path d="M286.763,185.034l15.446,-0.552" style="fill:none;fill-rule:nonzero;stroke:#000;stroke-width:2.63px;"/><path d="M302.207,217.245l-20.355,-4.092" style="fill:none;fill-rule:nonzero;stroke:#000;stroke-width:2.63px;"/><path d="M286.004,204.851l15.335,1.94" style="fill:none;fill-rule:nonzero;stroke:#000;stroke-width:2.63px;"/></g><g><g><path d="M301.216,221.863c-5.762,23.869 -25.845,17.202 -38.384,35.862" style="fill:none;fill-rule:nonzero;stroke:#000;stroke-width:2.63px;"/><path d="M280.194,269.594c13.876,-20.603 -4.663,-29.736 0.56,-52.559" style="fill:none;fill-rule:nonzero;stroke:#000;stroke-width:2.63px;"/></g><path d="M299.962,226.278l-20.043,-5.419" style="fill:none;fill-rule:nonzero;stroke:#000;stroke-width:2.63px;"/><path d="M279.987,230.031l14.6,5.086" style="fill:none;fill-rule:nonzero;stroke:#000;stroke-width:2.63px;"/><path d="M282.768,265.638l-17.524,-11.147" style="fill:none;fill-rule:nonzero;stroke:#000;stroke-width:2.63px;"/><path d="M272.109,248.241l13.609,7.34" style="fill:none;fill-rule:nonzero;stroke:#000;stroke-width:2.63px;"/></g><g><g><path d="M280.194,269.594c-13.371,20.283 -30.315,6.614 -48.713,19.591" style="fill:none;fill-rule:nonzero;stroke:#000;stroke-width:2.63px;"/><path d="M243.368,306.541c20.061,-14.089 6.661,-29.278 19.464,-48.816" style="fill:none;fill-rule:nonzero;stroke:#000;stroke-width:2.63px;"/></g><path d="M277.439,273.262l-16.76,-12.268" style="fill:none;fill-rule:nonzero;stroke:#000;stroke-width:2.63px;"/><path d="M257.449,269.575l11.796,10" style="fill:none;fill-rule:nonzero;stroke:#000;stroke-width:2.63px;"/><path d="M247.199,303.78l-12.307,-16.737" style="fill:none;fill-rule:nonzero;stroke:#000;stroke-width:2.63px;"/><path d="M243.546,283.706l10.045,11.761" style="fill:none;fill-rule:nonzero;stroke:#000;stroke-width:2.63px;"/></g><g><g><path d="M243.368,306.541c-21.08,14.098 -19.827,-5.979 -42.416,-0.485" style="fill:none;fill-rule:nonzero;stroke:#000;stroke-width:2.63px;"/><path d="M195.68,327.602c23.937,-5.8 17.114,-25.974 35.801,-38.417" style="fill:none;fill-rule:nonzero;stroke:#000;stroke-width:2.63px;"/></g><path d="M239.461,308.951l-11.175,-17.513" style="fill:none;fill-rule:nonzero;stroke:#000;stroke-width:2.63px;"/><path d="M222.168,298.257l7.364,13.603" style="fill:none;fill-rule:nonzero;stroke:#000;stroke-width:2.63px;"/><path d="M204.076,306.379l5.114,14.599" style="fill:none;fill-rule:nonzero;stroke:#000;stroke-width:2.63px;"/></g><g><g><path d="M195.68,327.602c-23.616,5.659 -26.634,-15.091 -49.205,-18.382" style="fill:none;fill-rule:nonzero;stroke:#000;stroke-width:2.63px;"/><path d="M143.575,330.054c24.344,3.528 16.478,-14.133 39.059,-19.554" style="fill:none;fill-rule:nonzero;stroke:#000;stroke-width:2.63px;"/></g><path d="M178.871,312.257l1.992,15.339" style="fill:none;fill-rule:nonzero;stroke:#000;stroke-width:2.63px;"/><path d="M148.263,330.611l2.176,-20.659" style="fill:none;fill-rule:nonzero;stroke:#000;stroke-width:2.63px;"/><path d="M159.084,313.324l-0.498,15.459" style="fill:none;fill-rule:nonzero;stroke:#000;stroke-width:2.63px;"/></g><g><g><path d="M143.575,330.054c-24.294,-3.122 -19.233,-24.191 -39.24,-34.969" style="fill:none;fill-rule:nonzero;stroke:#000;stroke-width:2.63px;"/><path d="M94.128,313.469c21.518,11.648 29.7,-7.114 52.347,-4.249" style="fill:none;fill-rule:nonzero;stroke:#000;stroke-width:2.63px;"/></g><path d="M139.063,329.214l3.53,-20.47" style="fill:none;fill-rule:nonzero;stroke:#000;stroke-width:2.63px;"/><path d="M133.476,309.652l-3.709,15.013" style="fill:none;fill-rule:nonzero;stroke:#000;stroke-width:2.63px;"/><path d="M98.304,315.669l9.474,-18.479" style="fill:none;fill-rule:nonzero;stroke:#000;stroke-width:2.63px;"/><path d="M114.632,303.461l-6.048,14.231" style="fill:none;fill-rule:nonzero;stroke:#000;stroke-width:2.63px;"/></g><g><g><path d="M94.128,313.469c-21.177,-11.757 -9.413,-28.505 -24.014,-46.751" style="fill:none;fill-rule:nonzero;stroke:#000;stroke-width:2.63px;"/><path d="M53.958,280.166c14.969,18.601 30.83,4.071 50.377,14.919" style="fill:none;fill-rule:nonzero;stroke:#000;stroke-width:2.63px;"/></g><path d="M90.229,311.052l10.658,-17.822" style="fill:none;fill-rule:nonzero;stroke:#000;stroke-width:2.63px;"/><path d="M92.048,290.794l-8.857,12.671" style="fill:none;fill-rule:nonzero;stroke:#000;stroke-width:2.63px;"/><path d="M57.054,283.736l15.502,-13.809" style="fill:none;fill-rule:nonzero;stroke:#000;stroke-width:2.63px;"/><path d="M76.686,278.243l-10.765,11.093" style="fill:none;fill-rule:nonzero;stroke:#000;stroke-width:2.63px;"/></g><g><g><path d="M53.958,280.166c-15.77,-19.203 1.939,-30.861 -5.471,-52.291" style="fill:none;fill-rule:nonzero;stroke:#000;stroke-width:2.63px;"/><path d="M28.562,234.568c7.974,23.158 27.389,14.865 41.552,32.15" style="fill:none;fill-rule:nonzero;stroke:#000;stroke-width:2.63px;"/></g><path d="M51.19,276.5l16.379,-12.753" style="fill:none;fill-rule:nonzero;stroke:#000;stroke-width:2.63px;"/><path d="M60.216,258.28l-12.847,8.593" style="fill:none;fill-rule:nonzero;stroke:#000;stroke-width:2.63px;"/><path d="M30.167,239.004l19.45,-7.249" style="fill:none;fill-rule:nonzero;stroke:#000;stroke-width:2.63px;"/><path d="M50.452,241.012l-14.057,6.422" style="fill:none;fill-rule:nonzero;stroke:#000;stroke-width:2.63px;"/></g></g></g></g><path d="M98.536,249.247l127.303,0" style="fill:none;stroke:#000;stroke-width:2.09px;stroke-linecap:round;stroke-linejoin:round;stroke-miterlimit:1.5;"/><path d="M98.536,238.049l127.303,0" style="fill:none;stroke:#000;stroke-width:2.09px;stroke-linecap:round;stroke-linejoin:round;stroke-miterlimit:1.5;"/><path d="M116.217,276.358l0,-27.111" style="fill:none;stroke:#000;stroke-width:2.09px;stroke-linecap:round;stroke-linejoin:round;stroke-miterlimit:1.5;"/><path d="M116.217,276.358l29.468,0l0,-27.111l-29.468,27.111Z" style="fill:none;stroke:#000;stroke-width:2.09px;stroke-linecap:round;stroke-linejoin:round;stroke-miterlimit:1.5;"/><path d="M148.043,281.662l-34.184,0" style="fill:none;stroke:#000;stroke-width:2.09px;stroke-linecap:round;stroke-linejoin:round;stroke-miterlimit:1.5;"/><path d="M149.811,287.556l-37.72,0" style="fill:none;stroke:#000;stroke-width:2.09px;stroke-linecap:round;stroke-linejoin:round;stroke-miterlimit:1.5;"/><path d="M116.217,276.358l29.468,0l0,-27.111l-29.468,27.111Z" style="fill:none;stroke:#000;stroke-width:2.09px;stroke-linecap:round;stroke-linejoin:round;stroke-miterlimit:1.5;"/><path d="M182.053,272.097l0,-22.104" style="fill:none;stroke:#000;stroke-width:2.09px;stroke-linecap:round;stroke-linejoin:round;stroke-miterlimit:1.5;"/><path d="M182.053,272.097l24.027,0l0,-22.104l-24.027,22.104Z" style="fill:none;stroke:#000;stroke-width:2.09px;stroke-linecap:round;stroke-linejoin:round;stroke-miterlimit:1.5;"/><path d="M208.034,276.358l-27.871,0" style="fill:none;stroke:#000;stroke-width:2.09px;stroke-linecap:round;stroke-linejoin:round;stroke-miterlimit:1.5;"/><path d="M209.738,281.073l-30.753,0" style="fill:none;stroke:#000;stroke-width:2.09px;stroke-linecap:round;stroke-linejoin:round;stroke-miterlimit:1.5;"/><path d="M116.217,238.049l0,-82.512l29.468,0l0,82.512" style="fill:none;stroke:#000;stroke-width:2.09px;stroke-linecap:round;stroke-linejoin:round;stroke-miterlimit:1.5;"/><path d="M181.047,238.049l0,-70.09l25.033,0l0,70.09" style="fill:none;stroke:#000;stroke-width:2.09px;stroke-linecap:round;stroke-linejoin:round;stroke-miterlimit:1.5;"/><path d="M98.536,232.155c14.903,-5.296 17.066,-36.101 17.681,-76.618l29.468,0c11.001,90.659 19.736,97.884 35.362,12.422" style="fill:none;stroke:#000;stroke-width:2.09px;stroke-linecap:round;stroke-linejoin:round;stroke-miterlimit:1.5;"/><path d="M206.08,167.959c4.858,35.229 10.232,66.332 19.759,64.196" style="fill:none;stroke:#000;stroke-width:2.09px;stroke-linecap:round;stroke-linejoin:round;stroke-miterlimit:1.5;"/><g><path d="M122.11,217.065l17.681,0.047" style="fill:none;stroke:#000;stroke-width:2.09px;stroke-linecap:round;stroke-linejoin:round;stroke-miterlimit:1.5;"/><path d="M122.11,221.532l17.681,0.047" style="fill:none;stroke:#000;stroke-width:2.09px;stroke-linecap:round;stroke-linejoin:round;stroke-miterlimit:1.5;"/></g><g><path d="M122.11,191.582l17.681,0.047" style="fill:none;stroke:#000;stroke-width:2.09px;stroke-linecap:round;stroke-linejoin:round;stroke-miterlimit:1.5;"/><path d="M122.11,196.049l17.681,0.047" style="fill:none;stroke:#000;stroke-width:2.09px;stroke-linecap:round;stroke-linejoin:round;stroke-miterlimit:1.5;"/></g><g><path d="M122.11,166.099l17.681,0.047" style="fill:none;stroke:#000;stroke-width:2.09px;stroke-linecap:round;stroke-linejoin:round;stroke-miterlimit:1.5;"/><path d="M122.11,170.566l17.681,0.047" style="fill:none;stroke:#000;stroke-width:2.09px;stroke-linecap:round;stroke-linejoin:round;stroke-miterlimit:1.5;"/></g><path d="M187.825,224.657l11.787,0" style="fill:none;stroke:#000;stroke-width:2.09px;stroke-linecap:round;stroke-linejoin:round;stroke-miterlimit:1.5;"/><path d="M187.825,200.116l11.787,0" style="fill:none;stroke:#000;stroke-width:2.09px;stroke-linecap:round;stroke-linejoin:round;stroke-miterlimit:1.5;"/><path d="M187.825,175.576l11.787,0" style="fill:none;stroke:#000;stroke-width:2.09px;stroke-linecap:round;stroke-linejoin:round;stroke-miterlimit:1.5;"/><path d="M132.719,264.936l12.966,11.422" style="fill:none;stroke:#000;stroke-width:2.09px;stroke-linecap:round;stroke-linejoin:round;stroke-miterlimit:1.5;"/><path d="M196.371,262.508l9.709,9.135" style="fill:none;stroke:#000;stroke-width:2.09px;stroke-linecap:round;stroke-linejoin:round;stroke-miterlimit:1.5;"/><path d="M128.593,261.045l-12.376,-11.798" style="fill:none;stroke:#000;stroke-width:2.09px;stroke-linecap:round;stroke-linejoin:round;stroke-miterlimit:1.5;"/><path d="M192.54,258.972l-10.487,-9.725" style="fill:none;stroke:#000;stroke-width:2.09px;stroke-linecap:round;stroke-linejoin:round;stroke-miterlimit:1.5;"/><text x="104.092px" y="141.444px" style="font-family:'LucidaGrande-Bold', 'Lucida Grande', sans-serif;font-weight:600;font-size:73.506px;">GM</text><g><path d="M201.07,319.926l0.366,0.39l0.299,0.484l-0.229,0.313l-0.552,-0.138l-0.483,-0.231l-0.345,0.391l0.288,0.451l0.205,0.53l-0.283,0.266l-0.517,-0.237l-0.432,-0.316l-0.411,0.321l0.2,0.496l0.105,0.559l-0.328,0.209l-0.464,-0.328l-0.367,-0.389l-0.463,0.239l0.106,0.525l0,0.568l-0.361,0.146l-0.395,-0.408l-0.29,-0.45l-0.499,0.15l0.007,0.535l-0.104,0.559l-0.381,0.077l-0.314,-0.474l-0.202,-0.495l-0.518,0.056l-0.091,0.527l-0.206,0.53l-0.388,0.006l-0.222,-0.524l-0.107,-0.524l-0.52,-0.04l-0.186,0.501l-0.3,0.484l-0.383,-0.066l-0.121,-0.555l-0.01,-0.535l-0.503,-0.135l-0.275,0.458l-0.383,0.42l-0.365,-0.134l-0.017,-0.569l0.089,-0.527l-0.47,-0.225l-0.355,0.4l-0.454,0.342l-0.333,-0.199l0.087,-0.562l0.184,-0.502l-0.42,-0.308l-0.423,0.328l-0.509,0.254l-0.291,-0.258l0.189,-0.536l0.274,-0.459l-0.357,-0.38l-0.476,0.245l-0.547,0.155l-0.239,-0.306l0.285,-0.493l0.353,-0.401l-0.281,-0.439l-0.512,0.153l-0.567,0.053l-0.178,-0.346l0.37,-0.431l0.421,-0.33l-0.196,-0.483l-0.532,0.057l-0.566,-0.053l-0.112,-0.372l0.443,-0.357l0.475,-0.246l-0.104,-0.511l-0.533,-0.042l-0.547,-0.156l-0.042,-0.386l0.501,-0.269l0.512,-0.155l-0.008,-0.521l-0.517,-0.14l-0.508,-0.253l0.029,-0.388l0.542,-0.172l0.532,-0.058l0.088,-0.514l-0.482,-0.232l-0.454,-0.343l0.101,-0.375l0.564,-0.07l0.533,0.04l0.181,-0.489l-0.431,-0.316l-0.383,-0.42l0.168,-0.351l0.567,0.035l0.517,0.138l0.268,-0.447l-0.366,-0.391l-0.299,-0.483l0.229,-0.314l0.551,0.139l0.483,0.23l0.345,-0.39l-0.287,-0.451l-0.206,-0.531l0.284,-0.266l0.516,0.238l0.432,0.315l0.411,-0.32l-0.2,-0.496l-0.104,-0.559l0.327,-0.21l0.464,0.329l0.367,0.389l0.463,-0.24l-0.105,-0.524l0,-0.568l0.36,-0.146l0.396,0.408l0.289,0.45l0.499,-0.151l-0.007,-0.534l0.105,-0.559l0.381,-0.077l0.314,0.474l0.201,0.495l0.518,-0.056l0.092,-0.527l0.205,-0.53l0.389,-0.006l0.221,0.523l0.108,0.524l0.519,0.041l0.187,-0.502l0.299,-0.483l0.383,0.066l0.122,0.555l0.009,0.535l0.503,0.135l0.276,-0.459l0.383,-0.42l0.364,0.135l0.018,0.568l-0.089,0.528l0.47,0.225l0.355,-0.4l0.453,-0.343l0.334,0.2l-0.087,0.562l-0.185,0.502l0.421,0.307l0.422,-0.328l0.509,-0.253l0.292,0.257l-0.189,0.537l-0.274,0.459l0.357,0.38l0.475,-0.245l0.547,-0.155l0.239,0.306l-0.284,0.492l-0.353,0.402l0.281,0.439l0.512,-0.154l0.566,-0.052l0.179,0.345l-0.37,0.432l-0.421,0.33l0.195,0.483l0.532,-0.057l0.566,0.053l0.112,0.372l-0.442,0.356l-0.475,0.247l0.104,0.51l0.533,0.043l0.547,0.155l0.041,0.387l-0.501,0.269l-0.511,0.155l0.008,0.521l0.516,0.139l0.509,0.254l-0.03,0.387l-0.542,0.173l-0.531,0.058l-0.088,0.514l0.482,0.232l0.453,0.342l-0.1,0.376l-0.564,0.07l-0.534,-0.041l-0.181,0.489l0.432,0.317l0.383,0.42l-0.168,0.35l-0.568,-0.035l-0.517,-0.137l-0.267,0.447Z" style="fill-rule:nonzero;"/><path d="M196.197,316.991c-0.858,1.173 -2.504,1.428 -3.677,0.57c-1.173,-0.858 -1.429,-2.504 -0.571,-3.677c0.858,-1.173 2.504,-1.428 3.677,-0.57c1.173,0.858 1.429,2.504 0.571,3.677Z" style="fill:#ffda22;fill-rule:nonzero;"/><path d="M193.561,303.813l0.117,0.072l0.258,0.263l0.283,0.469l-0.209,0.286l-0.533,-0.128l-0.329,-0.166l-0.104,-0.09l-0.38,0.399l0.094,0.099l0.182,0.321l0.152,0.527l-0.276,0.222l-0.482,-0.262l-0.275,-0.246l-0.077,-0.113l-0.47,0.286l0.065,0.121l0.093,0.356l0.01,0.549l-0.324,0.143l-0.398,-0.378l-0.201,-0.308l-0.046,-0.13l-0.528,0.155l0.032,0.133l-0.003,0.369l-0.132,0.532l-0.35,0.055l-0.287,-0.468l-0.115,-0.35l-0.01,-0.137l-0.55,0.013l-0.004,0.137l-0.099,0.355l-0.264,0.48l-0.353,-0.038l-0.156,-0.526l-0.02,-0.368l0.026,-0.134l-0.535,-0.131l-0.039,0.131l-0.187,0.318l-0.38,0.395l-0.331,-0.128l-0.015,-0.548l0.076,-0.361l0.06,-0.123l-0.483,-0.264l-0.072,0.116l-0.263,0.259l-0.469,0.283l-0.286,-0.209l0.127,-0.533l0.167,-0.329l0.089,-0.104l-0.398,-0.38l-0.099,0.094l-0.321,0.181l-0.527,0.153l-0.222,-0.277l0.261,-0.482l0.246,-0.274l0.113,-0.077l-0.286,-0.471l-0.12,0.066l-0.357,0.092l-0.548,0.011l-0.144,-0.325l0.378,-0.397l0.308,-0.202l0.13,-0.045l-0.155,-0.529l-0.133,0.032l-0.369,-0.003l-0.532,-0.132l-0.055,-0.35l0.468,-0.286l0.35,-0.115l0.137,-0.01l-0.013,-0.551l-0.137,-0.003l-0.355,-0.099l-0.48,-0.265l0.038,-0.352l0.526,-0.156l0.368,-0.02l0.134,0.025l0.13,-0.535l-0.131,-0.039l-0.318,-0.187l-0.395,-0.38l0.128,-0.33l0.548,-0.015l0.361,0.076l0.124,0.06l0.264,-0.484l-0.117,-0.071l-0.258,-0.263l-0.284,-0.47l0.21,-0.286l0.533,0.128l0.329,0.167l0.103,0.089l0.381,-0.398l-0.094,-0.099l-0.182,-0.321l-0.152,-0.527l0.276,-0.222l0.482,0.261l0.274,0.246l0.077,0.114l0.471,-0.287l-0.065,-0.12l-0.093,-0.357l-0.01,-0.548l0.324,-0.143l0.398,0.377l0.201,0.309l0.045,0.129l0.529,-0.155l-0.032,-0.133l0.003,-0.368l0.132,-0.533l0.35,-0.054l0.287,0.467l0.114,0.351l0.01,0.136l0.551,-0.012l0.004,-0.137l0.098,-0.355l0.265,-0.48l0.352,0.038l0.156,0.525l0.02,0.369l-0.025,0.134l0.535,0.13l0.039,-0.131l0.187,-0.318l0.38,-0.395l0.331,0.128l0.014,0.548l-0.075,0.361l-0.06,0.123l0.483,0.265l0.072,-0.117l0.263,-0.258l0.469,-0.283l0.286,0.209l-0.128,0.533l-0.166,0.329l-0.09,0.103l0.399,0.381l0.099,-0.094l0.321,-0.182l0.527,-0.152l0.222,0.276l-0.261,0.482l-0.247,0.275l-0.113,0.077l0.287,0.47l0.12,-0.065l0.357,-0.092l0.548,-0.011l0.143,0.324l-0.377,0.398l-0.309,0.202l-0.129,0.045l0.155,0.528l0.133,-0.032l0.369,0.003l0.532,0.132l0.054,0.35l-0.467,0.287l-0.351,0.115l-0.136,0.01l0.013,0.55l0.137,0.004l0.355,0.099l0.48,0.264l-0.038,0.353l-0.526,0.156l-0.368,0.02l-0.135,-0.026l-0.13,0.535l0.131,0.039l0.318,0.187l0.395,0.38l-0.128,0.331l-0.548,0.014l-0.361,-0.075l-0.123,-0.06l-0.264,0.483Z" style="fill:#4c4c4c;fill-rule:nonzero;"/><path d="M190.664,302.239c-0.706,0.965 -2.061,1.175 -3.026,0.469c-0.965,-0.706 -1.176,-2.061 -0.47,-3.026c0.706,-0.965 2.061,-1.175 3.026,-0.469c0.965,0.706 1.176,2.061 0.47,3.026Z" style="fill:#ffda22;fill-rule:nonzero;"/></g><defs><radialGradient id="_Radial2" cx="0" cy="0" r="1" gradientUnits="userSpaceOnUse" gradientTransform="matrix(155.882,0,0,-179.557,162.189,189.685)"><stop offset="0" style="stop-color:#fff3bf;stop-opacity:1"/><stop offset="1" style="stop-color:#ffd60a;stop-opacity:1"/></radialGradient></defs></svg>