<?xml version="1.0" encoding="UTF-8" standalone="no"?><!DOCTYPE svg PUBLIC "-//W3C//DTD SVG 1.1//EN" "http://www.w3.org/Graphics/SVG/1.1/DTD/svg11.dtd"><svg width="100%" height="100%" viewBox="0 0 500 500" version="1.1" xmlns="http://www.w3.org/2000/svg" xmlns:xlink="http://www.w3.org/1999/xlink" xml:space="preserve" xmlns:serif="http://www.serif.com/" style="fill-rule:evenodd;clip-rule:evenodd;stroke-miterlimit:10;"><ellipse cx="249.99" cy="250.014" rx="249.986" ry="249.985" style="fill:#ffd60a;"/><g><clipPath id="_clip1"><polygon id="dna-2858794" points="565.976,410.176 90.821,569.77 -69.437,92.641 405.718,-66.954 565.976,410.176 "/></clipPath><g clip-path="url(#_clip1)"><g><g><g><path d="M21.035,327.732c-13.034,-39.797 21.861,-47.967 23.33,-86.242" style="fill:none;fill-rule:nonzero;stroke:#000;stroke-width:4.47px;"/><path d="M8.655,239.843c-1.663,42.136 34.273,39.735 46.263,76.508" style="fill:none;fill-rule:nonzero;stroke:#000;stroke-width:4.47px;"/></g><path d="M18.907,320.23l33.801,-10.17" style="fill:none;fill-rule:nonzero;stroke:#000;stroke-width:4.47px;"/><path d="M44.369,296.867l-25.64,5.771" style="fill:none;fill-rule:nonzero;stroke:#000;stroke-width:4.47px;"/><path d="M8.467,247.877l35.299,0.443" style="fill:none;fill-rule:nonzero;stroke:#000;stroke-width:4.47px;"/><path d="M39.435,263.495l-26.234,1.587" style="fill:none;fill-rule:nonzero;stroke:#000;stroke-width:4.47px;"/></g><g><g><path d="M8.655,239.843c1.222,-41.29 37.105,-36.002 52.985,-71.941" style="fill:none;fill-rule:nonzero;stroke:#000;stroke-width:4.47px;"/><path d="M28.93,153.455c-3.254,7.365 -5.023,15.37 -4.351,23.584c2.309,24.773 20.673,31.377 19.786,64.451" style="fill:none;fill-rule:nonzero;stroke:#000;stroke-width:4.47px;"/></g><path d="M9.364,232.065l35.194,2.774" style="fill:none;fill-rule:nonzero;stroke:#000;stroke-width:4.47px;"/><path d="M41.572,219.536l-25.989,-3.94" style="fill:none;fill-rule:nonzero;stroke:#000;stroke-width:4.47px;"/><path d="M25.86,160.871l32.756,13.191" style="fill:none;fill-rule:nonzero;stroke:#000;stroke-width:4.47px;"/><path d="M49.082,186.647l-25.03,-8.04" style="fill:none;fill-rule:nonzero;stroke:#000;stroke-width:4.47px;"/></g><g><g><path d="M28.93,153.455c17.581,-38.686 46.257,-19.563 75.33,-47.975" style="fill:none;fill-rule:nonzero;stroke:#000;stroke-width:4.47px;"/><path d="M78.941,80.212c-29.471,28.915 -1.518,53.146 -17.301,87.69" style="fill:none;fill-rule:nonzero;stroke:#000;stroke-width:4.47px;"/></g><path d="M32.41,146.474l31.829,15.298" style="fill:none;fill-rule:nonzero;stroke:#000;stroke-width:4.47px;"/><path d="M66.975,146.415l-22.832,-13.043" style="fill:none;fill-rule:nonzero;stroke:#000;stroke-width:4.47px;"/><path d="M73.389,86.012l25.821,24.104" style="fill:none;fill-rule:nonzero;stroke:#000;stroke-width:4.47px;"/><path d="M85.791,118.419l-20.471,-16.508" style="fill:none;fill-rule:nonzero;stroke:#000;stroke-width:4.47px;"/></g><g><g><path d="M78.941,80.212c28.933,-29.319 51.879,-1.805 87.59,-17.429" style="fill:none;fill-rule:nonzero;stroke:#000;stroke-width:4.47px;"/><path d="M152.099,30.047c-37.915,16.609 -20.525,47.708 -47.839,75.432" style="fill:none;fill-rule:nonzero;stroke:#000;stroke-width:4.47px;"/></g><path d="M84.697,74.942l24.181,25.751" style="fill:none;fill-rule:nonzero;stroke:#000;stroke-width:4.47px;"/><path d="M116.961,87.374l-16.583,-20.416" style="fill:none;fill-rule:nonzero;stroke:#000;stroke-width:4.47px;"/><path d="M144.824,33.431l15.315,31.838" style="fill:none;fill-rule:nonzero;stroke:#000;stroke-width:4.47px;"/><path d="M144.624,68.13l-13.089,-22.817" style="fill:none;fill-rule:nonzero;stroke:#000;stroke-width:4.47px;"/></g><g><g><path d="M152.099,30.047c38.983,-16.959 48.571,17.726 87.974,15.334" style="fill:none;fill-rule:nonzero;stroke:#000;stroke-width:4.47px;"/><path d="M238.371,9.647c-42.202,2.476 -36.306,37.713 -71.84,53.137" style="fill:none;fill-rule:nonzero;stroke:#000;stroke-width:4.47px;"/></g><path d="M159.369,27.232l13.209,32.77" style="fill:none;fill-rule:nonzero;stroke:#000;stroke-width:4.47px;"/><path d="M184.954,50.508l-8.098,-25.027" style="fill:none;fill-rule:nonzero;stroke:#000;stroke-width:4.47px;"/><path d="M230.361,10.213l2.861,35.214" style="fill:none;fill-rule:nonzero;stroke:#000;stroke-width:4.47px;"/><path d="M217.716,42.51l-4.028,-25.994" style="fill:none;fill-rule:nonzero;stroke:#000;stroke-width:4.47px;"/></g><g><g><path d="M238.371,9.647c42.096,-1.507 38.501,32.646 76.502,46.201" style="fill:none;fill-rule:nonzero;stroke:#000;stroke-width:4.47px;"/><path d="M326.227,21.934c-38.542,-13.629 -48.526,22.175 -86.154,23.446" style="fill:none;fill-rule:nonzero;stroke:#000;stroke-width:4.47px;"/></g><path d="M246.178,9.655l0.531,35.324" style="fill:none;fill-rule:nonzero;stroke:#000;stroke-width:4.47px;"/><path d="M261.652,40.592l1.495,-26.259" style="fill:none;fill-rule:nonzero;stroke:#000;stroke-width:4.47px;"/><path d="M318.566,19.54l-10.096,33.846" style="fill:none;fill-rule:nonzero;stroke:#000;stroke-width:4.47px;"/><path d="M295.068,45.037l5.679,-25.678" style="fill:none;fill-rule:nonzero;stroke:#000;stroke-width:4.47px;"/></g><g><g><path d="M326.227,21.934c39.581,13.557 24.745,45.556 54.713,70.683" style="fill:none;fill-rule:nonzero;stroke:#000;stroke-width:4.47px;"/><path d="M403.726,65.066c-32.527,-26.62 -52.409,3.309 -88.853,-9.218" style="fill:none;fill-rule:nonzero;stroke:#000;stroke-width:4.47px;"/></g><path d="M333.498,24.759l-12.284,33.113" style="fill:none;fill-rule:nonzero;stroke:#000;stroke-width:4.47px;"/><path d="M336.747,59.198l10.871,-23.941" style="fill:none;fill-rule:nonzero;stroke:#000;stroke-width:4.47px;"/><path d="M397.436,60.073l-21.586,27.942" style="fill:none;fill-rule:nonzero;stroke:#000;stroke-width:4.47px;"/><path d="M366.342,75.401l14.531,-21.909" style="fill:none;fill-rule:nonzero;stroke:#000;stroke-width:4.47px;"/></g><g><g><path d="M403.726,65.066c32.589,26.86 6.101,51.252 25.51,85.656" style="fill:none;fill-rule:nonzero;stroke:#000;stroke-width:4.47px;"/><path d="M460.469,133.338c-20.419,-36.269 -49.993,-16.399 -79.529,-40.721" style="fill:none;fill-rule:nonzero;stroke:#000;stroke-width:4.47px;"/></g><path d="M409.509,70.308l-23.37,26.465" style="fill:none;fill-rule:nonzero;stroke:#000;stroke-width:4.47px;"/><path d="M400.148,103.603l18.764,-18.407" style="fill:none;fill-rule:nonzero;stroke:#000;stroke-width:4.47px;"/><path d="M456.41,126.402l-30.252,18.19" style="fill:none;fill-rule:nonzero;stroke:#000;stroke-width:4.47px;"/><path d="M421.871,129.399l21.478,-15.149" style="fill:none;fill-rule:nonzero;stroke:#000;stroke-width:4.47px;"/></g><g><g><path d="M460.469,133.338c20.338,36.63 -12.106,49.462 -7.145,89.101" style="fill:none;fill-rule:nonzero;stroke:#000;stroke-width:4.47px;"/><path d="M488.718,217.444c-5.834,-41.038 -39.646,-32.362 -59.482,-66.723" style="fill:none;fill-rule:nonzero;stroke:#000;stroke-width:4.47px;"/></g><path d="M463.957,140.324l-31.385,16.157" style="fill:none;fill-rule:nonzero;stroke:#000;stroke-width:4.47px;"/><path d="M443.146,167.942l24.164,-10.334" style="fill:none;fill-rule:nonzero;stroke:#000;stroke-width:4.47px;"/><path d="M487.432,209.513l-34.769,6.097" style="fill:none;fill-rule:nonzero;stroke:#000;stroke-width:4.47px;"/><path d="M454.116,199.883l25.491,-6.396" style="fill:none;fill-rule:nonzero;stroke:#000;stroke-width:4.47px;"/></g><g><g><path d="M488.718,217.444c5.719,42.002 -29.592,41.723 -38.822,80.472" style="fill:none;fill-rule:nonzero;stroke:#000;stroke-width:4.47px;"/><path d="M484.693,306.126c9.664,-40.647 -26.141,-45.033 -31.369,-83.687" style="fill:none;fill-rule:nonzero;stroke:#000;stroke-width:4.47px;"/></g><path d="M489.451,225.22l-35.096,3.793" style="fill:none;fill-rule:nonzero;stroke:#000;stroke-width:4.47px;"/><path d="M460.115,243.497l26.266,-0.937" style="fill:none;fill-rule:nonzero;stroke:#000;stroke-width:4.47px;"/><path d="M486.378,298.274l-34.615,-6.959" style="fill:none;fill-rule:nonzero;stroke:#000;stroke-width:4.47px;"/><path d="M458.825,277.197l26.078,3.299" style="fill:none;fill-rule:nonzero;stroke:#000;stroke-width:4.47px;"/></g><g><g><path d="M484.693,306.126c-9.798,40.59 -43.951,29.254 -65.273,60.986" style="fill:none;fill-rule:nonzero;stroke:#000;stroke-width:4.47px;"/><path d="M448.945,387.296c23.596,-35.037 -7.93,-50.568 0.951,-89.38" style="fill:none;fill-rule:nonzero;stroke:#000;stroke-width:4.47px;"/></g><path d="M482.561,313.634l-34.085,-9.214" style="fill:none;fill-rule:nonzero;stroke:#000;stroke-width:4.47px;"/><path d="M448.592,320.017l24.827,8.649" style="fill:none;fill-rule:nonzero;stroke:#000;stroke-width:4.47px;"/><path d="M453.322,380.569l-29.8,-18.956" style="fill:none;fill-rule:nonzero;stroke:#000;stroke-width:4.47px;"/><path d="M435.196,350.984l23.142,12.481" style="fill:none;fill-rule:nonzero;stroke:#000;stroke-width:4.47px;"/></g><g><g><path d="M448.945,387.296c-22.739,34.492 -51.552,11.247 -82.84,33.314" style="fill:none;fill-rule:nonzero;stroke:#000;stroke-width:4.47px;"/><path d="M386.319,450.126c34.115,-23.96 11.329,-49.789 33.101,-83.014" style="fill:none;fill-rule:nonzero;stroke:#000;stroke-width:4.47px;"/></g><path d="M444.259,393.533l-28.501,-20.863" style="fill:none;fill-rule:nonzero;stroke:#000;stroke-width:4.47px;"/><path d="M410.265,387.263l20.06,17.005" style="fill:none;fill-rule:nonzero;stroke:#000;stroke-width:4.47px;"/><path d="M392.835,445.431l-20.928,-28.463" style="fill:none;fill-rule:nonzero;stroke:#000;stroke-width:4.47px;"/><path d="M386.624,411.294l17.08,20" style="fill:none;fill-rule:nonzero;stroke:#000;stroke-width:4.47px;"/></g><g><g><path d="M386.319,450.126c-35.846,23.974 -33.716,-10.168 -72.129,-0.825" style="fill:none;fill-rule:nonzero;stroke:#000;stroke-width:4.47px;"/><path d="M305.224,485.941c40.707,-9.864 29.104,-44.171 60.881,-65.331" style="fill:none;fill-rule:nonzero;stroke:#000;stroke-width:4.47px;"/></g><path d="M379.676,454.224l-19.003,-29.783" style="fill:none;fill-rule:nonzero;stroke:#000;stroke-width:4.47px;"/><path d="M350.268,436.038l12.523,23.132" style="fill:none;fill-rule:nonzero;stroke:#000;stroke-width:4.47px;"/><path d="M319.502,449.85l8.698,24.826" style="fill:none;fill-rule:nonzero;stroke:#000;stroke-width:4.47px;"/></g><g><g><path d="M305.224,485.941c-40.159,9.623 -45.291,-25.663 -83.674,-31.26" style="fill:none;fill-rule:nonzero;stroke:#000;stroke-width:4.47px;"/><path d="M216.617,490.11c41.399,6 28.022,-24.033 66.423,-33.253" style="fill:none;fill-rule:nonzero;stroke:#000;stroke-width:4.47px;"/></g><path d="M276.64,459.845l3.388,26.085" style="fill:none;fill-rule:nonzero;stroke:#000;stroke-width:4.47px;"/><path d="M224.591,491.057l3.7,-35.131" style="fill:none;fill-rule:nonzero;stroke:#000;stroke-width:4.47px;"/><path d="M242.991,461.66l-0.846,26.289" style="fill:none;fill-rule:nonzero;stroke:#000;stroke-width:4.47px;"/></g><g><g><path d="M216.617,490.11c-41.311,-5.309 -32.706,-41.138 -66.727,-59.467" style="fill:none;fill-rule:nonzero;stroke:#000;stroke-width:4.47px;"/><path d="M132.532,461.907c36.592,19.808 50.506,-12.097 89.018,-7.226" style="fill:none;fill-rule:nonzero;stroke:#000;stroke-width:4.47px;"/></g><path d="M208.945,488.682l6.003,-34.81" style="fill:none;fill-rule:nonzero;stroke:#000;stroke-width:4.47px;"/><path d="M199.444,455.416l-6.307,25.531" style="fill:none;fill-rule:nonzero;stroke:#000;stroke-width:4.47px;"/><path d="M139.633,465.648l16.111,-31.425" style="fill:none;fill-rule:nonzero;stroke:#000;stroke-width:4.47px;"/><path d="M167.399,444.887l-10.285,24.2" style="fill:none;fill-rule:nonzero;stroke:#000;stroke-width:4.47px;"/></g><g><g><path d="M132.532,461.907c-36.013,-19.994 -16.007,-48.474 -40.837,-79.503" style="fill:none;fill-rule:nonzero;stroke:#000;stroke-width:4.47px;"/><path d="M64.22,405.274c25.457,31.631 52.429,6.923 85.67,25.369" style="fill:none;fill-rule:nonzero;stroke:#000;stroke-width:4.47px;"/></g><path d="M125.901,457.797l18.124,-30.307" style="fill:none;fill-rule:nonzero;stroke:#000;stroke-width:4.47px;"/><path d="M128.995,423.348l-15.062,21.547" style="fill:none;fill-rule:nonzero;stroke:#000;stroke-width:4.47px;"/><path d="M69.486,411.344l26.361,-23.482" style="fill:none;fill-rule:nonzero;stroke:#000;stroke-width:4.47px;"/><path d="M102.87,402.004l-18.306,18.864" style="fill:none;fill-rule:nonzero;stroke:#000;stroke-width:4.47px;"/></g><g><g><path d="M64.22,405.274c-26.817,-32.656 3.298,-52.481 -9.302,-88.923" style="fill:none;fill-rule:nonzero;stroke:#000;stroke-width:4.47px;"/><path d="M21.035,327.732c13.559,39.382 46.576,25.279 70.66,54.672" style="fill:none;fill-rule:nonzero;stroke:#000;stroke-width:4.47px;"/></g><path d="M59.513,399.04l27.854,-21.688" style="fill:none;fill-rule:nonzero;stroke:#000;stroke-width:4.47px;"/><path d="M74.862,368.055l-21.846,14.613" style="fill:none;fill-rule:nonzero;stroke:#000;stroke-width:4.47px;"/><path d="M23.763,335.276l33.076,-12.327" style="fill:none;fill-rule:nonzero;stroke:#000;stroke-width:4.47px;"/><path d="M58.259,338.69l-23.905,10.921" style="fill:none;fill-rule:nonzero;stroke:#000;stroke-width:4.47px;"/></g></g></g><g><path d="M284.614,412.646l-0.633,-1.174l-0.414,-1.355l0.752,-0.609l1.24,0.684l1.017,0.862l1.08,-0.721l-0.406,-1.27l-0.158,-1.408l0.851,-0.461l1.094,0.901l0.841,1.034l1.194,-0.51l-0.167,-1.323l0.104,-1.413l0.922,-0.296l0.909,1.086l0.637,1.171l1.268,-0.283l0.079,-1.33l0.362,-1.37l0.96,-0.122l0.694,1.235l0.411,1.268l1.298,-0.045l0.323,-1.293l0.607,-1.28l0.967,0.056l0.455,1.342l0.171,1.321l1.284,0.195l0.555,-1.212l0.832,-1.146l0.94,0.232l0.201,1.403l-0.075,1.33l1.227,0.428l0.767,-1.089l1.029,-0.975l0.881,0.402l-0.06,1.415l-0.318,1.295l1.128,0.645l0.954,-0.93l1.19,-0.768l0.793,0.557l-0.319,1.38l-0.55,1.214l0.989,0.841l1.11,-0.738l1.31,-0.537l0.677,0.693l-0.567,1.298l-0.764,1.092l0.818,1.009l1.226,-0.522l1.388,-0.287l0.538,0.806l-0.796,1.171l-0.952,0.933l0.619,1.142l1.301,-0.287l1.416,-0.027l0.381,0.89l-0.998,1.006l-1.107,0.742l0.399,1.236l1.332,-0.044l1.397,0.234l0.211,0.945l-1.166,0.806l-1.224,0.526l0.164,1.288l1.318,0.202l1.33,0.487l0.034,0.967l-1.294,0.577l-1.3,0.293l-0.075,1.296l1.257,0.441l1.219,0.723l-0.145,0.957l-1.378,0.329l-1.332,0.049l-0.312,1.26l1.156,0.665l1.065,0.934l-0.319,0.915l-1.414,0.07l-1.318,-0.197l-0.539,1.182l1.014,0.865l0.875,1.114l-0.481,0.841l-1.404,-0.191l-1.259,-0.436l-0.746,1.062l0.838,1.037l0.655,1.256l-0.627,0.738l-1.345,-0.445l-1.158,-0.661l-0.929,0.908l0.633,1.173l0.414,1.355l-0.752,0.61l-1.241,-0.685l-1.017,-0.862l-1.079,0.722l0.406,1.269l0.158,1.408l-0.852,0.461l-1.093,-0.901l-0.841,-1.034l-1.194,0.511l0.166,1.322l-0.103,1.413l-0.922,0.297l-0.909,-1.087l-0.638,-1.17l-1.267,0.282l-0.079,1.33l-0.362,1.37l-0.96,0.123l-0.695,-1.235l-0.411,-1.268l-1.298,0.044l-0.322,1.293l-0.607,1.28l-0.967,-0.056l-0.455,-1.341l-0.172,-1.322l-1.283,-0.195l-0.555,1.212l-0.832,1.147l-0.94,-0.233l-0.201,-1.402l0.074,-1.331l-1.226,-0.427l-0.768,1.089l-1.028,0.974l-0.882,-0.402l0.06,-1.415l0.318,-1.294l-1.127,-0.645l-0.955,0.929l-1.19,0.769l-0.792,-0.557l0.319,-1.38l0.55,-1.214l-0.989,-0.841l-1.11,0.738l-1.311,0.536l-0.677,-0.692l0.568,-1.298l0.764,-1.092l-0.818,-1.009l-1.227,0.522l-1.387,0.286l-0.538,-0.805l0.796,-1.172l0.952,-0.933l-0.619,-1.142l-1.301,0.288l-1.417,0.027l-0.381,-0.891l0.998,-1.005l1.107,-0.742l-0.398,-1.236l-1.332,0.043l-1.397,-0.234l-0.211,-0.945l1.166,-0.805l1.224,-0.526l-0.165,-1.288l-1.317,-0.202l-1.33,-0.487l-0.034,-0.968l1.294,-0.577l1.3,-0.292l0.075,-1.296l-1.258,-0.441l-1.218,-0.723l0.145,-0.958l1.378,-0.329l1.331,-0.048l0.312,-1.261l-1.155,-0.664l-1.065,-0.935l0.318,-0.914l1.415,-0.071l1.318,0.198l0.538,-1.182l-1.013,-0.865l-0.876,-1.115l0.481,-0.84l1.404,0.191l1.26,0.436l0.746,-1.063l-0.838,-1.037l-0.655,-1.256l0.627,-0.737l1.345,0.445l1.158,0.66l0.929,-0.907Z" style="fill-rule:nonzero;"/><path d="M294.488,422.814c2.812,-2.28 6.941,-1.848 9.222,0.964c2.28,2.813 1.849,6.942 -0.963,9.222c-2.812,2.281 -6.941,1.849 -9.222,-0.964c-2.28,-2.812 -1.849,-6.941 0.963,-9.222Z" style="fill:#ffd60a;fill-rule:nonzero;"/><path d="M292.461,456.24l-0.235,-0.247l-0.456,-0.798l-0.384,-1.311l0.686,-0.556l1.203,0.646l0.686,0.611l0.193,0.282l1.17,-0.718l-0.164,-0.3l-0.233,-0.888l-0.032,-1.366l0.807,-0.36l0.994,0.937l0.505,0.767l0.114,0.322l1.315,-0.39l-0.08,-0.332l0.004,-0.919l0.323,-1.327l0.872,-0.139l0.719,1.162l0.289,0.872l0.026,0.34l1.372,-0.036l0.008,-0.341l0.242,-0.887l0.655,-1.198l0.879,0.091l0.393,1.309l0.054,0.917l-0.063,0.335l1.335,0.32l0.096,-0.327l0.463,-0.794l0.943,-0.988l0.825,0.316l0.042,1.366l-0.186,0.899l-0.147,0.308l1.206,0.654l0.178,-0.291l0.652,-0.647l1.167,-0.71l0.715,0.519l-0.313,1.33l-0.412,0.821l-0.222,0.259l0.996,0.944l0.247,-0.236l0.798,-0.455l1.311,-0.384l0.556,0.686l-0.647,1.203l-0.61,0.686l-0.282,0.193l0.718,1.17l0.3,-0.163l0.888,-0.234l1.366,-0.032l0.36,0.807l-0.937,0.995l-0.767,0.505l-0.322,0.113l0.391,1.316l0.331,-0.08l0.919,0.004l1.327,0.323l0.139,0.872l-1.161,0.719l-0.872,0.289l-0.341,0.026l0.037,1.372l0.341,0.008l0.887,0.242l1.198,0.655l-0.091,0.879l-1.309,0.393l-0.917,0.054l-0.335,-0.063l-0.319,1.335l0.327,0.096l0.793,0.463l0.989,0.943l-0.316,0.825l-1.366,0.042l-0.9,-0.186l-0.307,-0.147l-0.654,1.206l0.291,0.177l0.647,0.653l0.71,1.167l-0.519,0.715l-1.329,-0.314l-0.821,-0.412l-0.259,-0.222l-0.944,0.996l0.235,0.247l0.456,0.798l0.384,1.311l-0.686,0.556l-1.203,-0.647l-0.687,-0.61l-0.193,-0.282l-1.169,0.718l0.163,0.299l0.234,0.889l0.032,1.366l-0.807,0.359l-0.995,-0.936l-0.505,-0.767l-0.113,-0.322l-1.316,0.39l0.081,0.332l-0.004,0.919l-0.323,1.327l-0.872,0.139l-0.719,-1.162l-0.289,-0.872l-0.027,-0.34l-1.371,0.036l-0.008,0.341l-0.242,0.887l-0.656,1.198l-0.878,-0.092l-0.394,-1.308l-0.053,-0.917l0.062,-0.335l-1.334,-0.32l-0.096,0.327l-0.463,0.794l-0.944,0.988l-0.824,-0.316l-0.042,-1.366l0.186,-0.899l0.147,-0.308l-1.207,-0.654l-0.177,0.291l-0.653,0.646l-1.166,0.711l-0.716,-0.519l0.314,-1.33l0.412,-0.821l0.222,-0.259l-0.996,-0.944l-0.247,0.236l-0.798,0.455l-1.311,0.384l-0.556,-0.686l0.647,-1.203l0.61,-0.687l0.282,-0.193l-0.718,-1.169l-0.3,0.163l-0.888,0.234l-1.366,0.032l-0.36,-0.807l0.936,-0.995l0.768,-0.505l0.321,-0.113l-0.39,-1.316l-0.332,0.08l-0.918,-0.004l-1.328,-0.323l-0.139,-0.872l1.162,-0.719l0.872,-0.289l0.34,-0.026l-0.037,-1.372l-0.341,-0.008l-0.886,-0.242l-1.199,-0.656l0.092,-0.878l1.308,-0.393l0.917,-0.054l0.336,0.063l0.319,-1.335l-0.327,-0.096l-0.794,-0.463l-0.988,-0.943l0.316,-0.825l1.366,-0.042l0.899,0.186l0.308,0.147l0.654,-1.206l-0.291,-0.178l-0.647,-0.652l-0.71,-1.167l0.518,-0.715l1.33,0.313l0.821,0.413l0.259,0.221l0.944,-0.995Z" style="fill:#4c4c4c;fill-rule:nonzero;"/><path d="M298.44,461.875c2.315,-1.877 5.712,-1.522 7.589,0.793c1.876,2.314 1.522,5.712 -0.792,7.588c-2.315,1.877 -5.712,1.522 -7.589,-0.793c-1.876,-2.315 -1.522,-5.712 0.792,-7.588Z" style="fill:#ffd60a;fill-rule:nonzero;"/></g></g><text x="173.701px" y="146.133px" style="font-family:'LucidaGrande-Bold', 'Lucida Grande', sans-serif;font-weight:600;font-size:100px;">GM</text><text x="279.744px" y="170px" style="font-family:'LucidaGrande-Bold', 'Lucida Grande', sans-serif;font-weight:600;font-size:25px;">Web</text><path d="M154.586,330.971l206.311,0" style="fill:none;stroke:#000;stroke-width:3.38px;stroke-linecap:round;stroke-linejoin:round;stroke-miterlimit:1.5;"/><path d="M154.586,312.823l206.311,0" style="fill:none;stroke:#000;stroke-width:3.38px;stroke-linecap:round;stroke-linejoin:round;stroke-miterlimit:1.5;"/><path d="M183.241,374.907l0,-43.936" style="fill:none;stroke:#000;stroke-width:3.38px;stroke-linecap:round;stroke-linejoin:round;stroke-miterlimit:1.5;"/><path d="M183.241,374.907l47.757,0l0,-43.936l-47.757,43.936Z" style="fill:none;stroke:#000;stroke-width:3.38px;stroke-linecap:round;stroke-linejoin:round;stroke-miterlimit:1.5;"/><path d="M234.818,383.503l-55.398,0" style="fill:none;stroke:#000;stroke-width:3.38px;stroke-linecap:round;stroke-linejoin:round;stroke-miterlimit:1.5;"/><path d="M237.684,393.055l-61.129,0" style="fill:none;stroke:#000;stroke-width:3.38px;stroke-linecap:round;stroke-linejoin:round;stroke-miterlimit:1.5;"/><path d="M183.241,374.907l47.757,0l0,-43.936l-47.757,43.936Z" style="fill:none;stroke:#000;stroke-width:3.38px;stroke-linecap:round;stroke-linejoin:round;stroke-miterlimit:1.5;"/><path d="M289.937,368.002l0,-35.823" style="fill:none;stroke:#000;stroke-width:3.38px;stroke-linecap:round;stroke-linejoin:round;stroke-miterlimit:1.5;"/><path d="M289.937,368.002l38.937,0l0,-35.823l-38.937,35.823Z" style="fill:none;stroke:#000;stroke-width:3.38px;stroke-linecap:round;stroke-linejoin:round;stroke-miterlimit:1.5;"/><path d="M332.041,374.907l-45.167,0" style="fill:none;stroke:#000;stroke-width:3.38px;stroke-linecap:round;stroke-linejoin:round;stroke-miterlimit:1.5;"/><path d="M334.803,382.548l-49.84,0" style="fill:none;stroke:#000;stroke-width:3.38px;stroke-linecap:round;stroke-linejoin:round;stroke-miterlimit:1.5;"/><path d="M183.241,312.823l0,-133.72l47.757,0l0,133.72" style="fill:none;stroke:#000;stroke-width:3.38px;stroke-linecap:round;stroke-linejoin:round;stroke-miterlimit:1.5;"/><path d="M288.306,312.823l0,-113.59l40.568,0l0,113.59" style="fill:none;stroke:#000;stroke-width:3.38px;stroke-linecap:round;stroke-linejoin:round;stroke-miterlimit:1.5;"/><path d="M154.586,303.271c24.154,-8.582 27.659,-58.506 28.655,-124.168l47.757,0c17.828,146.922 31.984,158.631 57.308,20.13" style="fill:none;stroke:#000;stroke-width:3.38px;stroke-linecap:round;stroke-linejoin:round;stroke-miterlimit:1.5;"/><path d="M328.874,199.233c7.874,57.093 16.583,107.499 32.023,104.038" style="fill:none;stroke:#000;stroke-width:3.38px;stroke-linecap:round;stroke-linejoin:round;stroke-miterlimit:1.5;"/><g><path d="M192.792,278.816l28.654,0.076" style="fill:none;stroke:#000;stroke-width:3.38px;stroke-linecap:round;stroke-linejoin:round;stroke-miterlimit:1.5;"/><path d="M192.792,286.055l28.654,0.077" style="fill:none;stroke:#000;stroke-width:3.38px;stroke-linecap:round;stroke-linejoin:round;stroke-miterlimit:1.5;"/></g><g><path d="M192.792,237.518l28.654,0.076" style="fill:none;stroke:#000;stroke-width:3.38px;stroke-linecap:round;stroke-linejoin:round;stroke-miterlimit:1.5;"/><path d="M192.792,244.757l28.654,0.076" style="fill:none;stroke:#000;stroke-width:3.38px;stroke-linecap:round;stroke-linejoin:round;stroke-miterlimit:1.5;"/></g><g><path d="M192.792,196.219l28.654,0.076" style="fill:none;stroke:#000;stroke-width:3.38px;stroke-linecap:round;stroke-linejoin:round;stroke-miterlimit:1.5;"/><path d="M192.792,203.459l28.654,0.076" style="fill:none;stroke:#000;stroke-width:3.38px;stroke-linecap:round;stroke-linejoin:round;stroke-miterlimit:1.5;"/></g><path d="M299.29,291.119l19.103,0" style="fill:none;stroke:#000;stroke-width:3.38px;stroke-linecap:round;stroke-linejoin:round;stroke-miterlimit:1.5;"/><path d="M299.29,251.348l19.103,0" style="fill:none;stroke:#000;stroke-width:3.38px;stroke-linecap:round;stroke-linejoin:round;stroke-miterlimit:1.5;"/><path d="M299.29,211.578l19.103,0" style="fill:none;stroke:#000;stroke-width:3.38px;stroke-linecap:round;stroke-linejoin:round;stroke-miterlimit:1.5;"/><path d="M209.985,356.396l21.013,18.511" style="fill:none;stroke:#000;stroke-width:3.38px;stroke-linecap:round;stroke-linejoin:round;stroke-miterlimit:1.5;"/><path d="M313.14,352.461l15.734,14.805" style="fill:none;stroke:#000;stroke-width:3.38px;stroke-linecap:round;stroke-linejoin:round;stroke-miterlimit:1.5;"/><path d="M203.299,350.091l-20.058,-19.12" style="fill:none;stroke:#000;stroke-width:3.38px;stroke-linecap:round;stroke-linejoin:round;stroke-miterlimit:1.5;"/><path d="M306.932,346.73l-16.995,-15.759" style="fill:none;stroke:#000;stroke-width:3.38px;stroke-linecap:round;stroke-linejoin:round;stroke-miterlimit:1.5;"/></svg>